<svg width="500" height="500" viewBox="0 0 500 500" fill="none" xmlns="http://www.w3.org/2000/svg">
<path d="M500 382.4H0V382.65H500V382.4Z" fill="#E0E0E0"/>
<path d="M379.33 391.62H344.93V391.87H379.33V391.62Z" fill="#E0E0E0"/>
<path d="M419.8 390.91H400.44V391.16H419.8V390.91Z" fill="#E0E0E0"/>
<path d="M247.34 391.5H221.66V391.75H247.34V391.5Z" fill="#E0E0E0"/>
<path d="M265.89 395.05H248.35V395.3H265.89V395.05Z" fill="#E0E0E0"/>
<path d="M144.67 388.97H91.6802V389.22H144.67V388.97Z" fill="#E0E0E0"/>
<path d="M237 337.8H43.91C42.3973 337.797 40.9475 337.195 39.8788 336.124C38.8102 335.053 38.21 333.603 38.21 332.09V60.66C38.2231 59.156 38.8292 57.718 39.8964 56.6582C40.9637 55.5985 42.4059 55.0026 43.91 55H237C238.514 55 239.967 55.6016 241.038 56.6724C242.108 57.7433 242.71 59.1956 242.71 60.71V332.09C242.71 333.604 242.108 335.057 241.038 336.128C239.967 337.198 238.514 337.8 237 337.8ZM43.91 55.2C42.4636 55.2026 41.0774 55.7791 40.0556 56.8027C39.0338 57.8264 38.46 59.2136 38.46 60.66V332.09C38.46 333.536 39.0338 334.924 40.0556 335.947C41.0774 336.971 42.4636 337.547 43.91 337.55H237C238.447 337.547 239.834 336.971 240.858 335.948C241.881 334.924 242.457 333.537 242.46 332.09V60.66C242.457 59.2127 241.881 57.8255 240.858 56.8021C239.834 55.7787 238.447 55.2026 237 55.2H43.91Z" fill="#E0E0E0"/>
<path d="M453.31 337.8H260.21C258.696 337.797 257.246 337.195 256.175 336.125C255.105 335.054 254.503 333.604 254.5 332.09V60.66C254.516 59.1551 255.124 57.7171 256.193 56.6576C257.262 55.5981 258.705 55.0025 260.21 55H453.31C454.812 55.0052 456.252 55.6022 457.317 56.6617C458.382 57.7212 458.987 59.1578 459 60.66V332.09C459 333.601 458.401 335.05 457.335 336.121C456.268 337.191 454.821 337.795 453.31 337.8ZM260.21 55.2C258.763 55.2026 257.375 55.7787 256.352 56.8021C255.329 57.8255 254.753 59.2127 254.75 60.66V332.09C254.753 333.537 255.329 334.924 256.352 335.948C257.375 336.971 258.763 337.547 260.21 337.55H453.31C454.757 337.547 456.145 336.971 457.168 335.948C458.191 334.924 458.767 333.537 458.77 332.09V60.66C458.767 59.2127 458.191 57.8255 457.168 56.8021C456.145 55.7787 454.757 55.2026 453.31 55.2H260.21Z" fill="#E0E0E0"/>
<path d="M434.03 79.27H283.33V208.83H434.03V79.27Z" fill="#E0E0E0"/>
<path d="M437.38 79.27H286.68V208.83H437.38V79.27Z" fill="#F0F0F0"/>
<path d="M431.37 202.75V85.3501L292.69 85.3501V202.75H431.37Z" fill="#FAFAFA"/>
<path d="M387.05 202.75V85.3501H377.99V202.75H387.05Z" fill="#E0E0E0"/>
<path d="M339.39 202.75V85.3501H330.33V202.75H339.39Z" fill="#E0E0E0"/>
<path d="M390.24 206.6V80.8201H381.18V206.6H390.24Z" fill="#F0F0F0"/>
<path d="M342.57 206.61V80.8301H333.51V206.61H342.57Z" fill="#F0F0F0"/>
<path d="M431.37 202.74V85.3401H428.84V202.74H431.37Z" fill="#E0E0E0"/>
<path d="M177.34 181.59C177.34 181.59 159 150 184.45 124.81C184.45 124.81 191.09 129.14 190.99 134.96C190.89 140.78 183.87 142.25 185.38 147.11C186.89 151.97 193.5 156.72 189.16 160.74C184.82 164.76 189.86 168.32 189.57 173.24C189.28 178.16 177.34 181.59 177.34 181.59Z" fill="#E0E0E0"/>
<path d="M180.22 186.76C180.22 186.76 187.66 150.98 155.58 135.12C155.58 135.12 150.64 141.32 152.58 146.81C154.52 152.3 161.63 151.48 161.73 156.57C161.83 161.66 157.06 168.26 162.44 170.7C167.82 173.14 164.17 178.12 166 182.7C167.83 187.28 180.22 186.76 180.22 186.76Z" fill="#E6E6E6"/>
<path d="M163.89 177.67C163.89 177.67 164.21 208.56 176.56 208.56C188.91 208.56 189.22 177.67 189.22 177.67H163.89Z" fill="#F0F0F0"/>
<path d="M89.6899 196.94C89.6899 196.94 90.3799 208.56 116.75 208.56C143.12 208.56 143.82 196.94 143.82 196.94H89.6899Z" fill="#E6E6E6"/>
<path d="M367.7 267H353.78C352.046 267 350.64 268.406 350.64 270.14V293.16C350.64 294.894 352.046 296.3 353.78 296.3H367.7C369.434 296.3 370.84 294.894 370.84 293.16V270.14C370.84 268.406 369.434 267 367.7 267Z" fill="#F0F0F0"/>
<path d="M404.62 276.58H395.25C394.085 276.58 393.14 277.525 393.14 278.69V294.19C393.14 295.355 394.085 296.3 395.25 296.3H404.62C405.785 296.3 406.73 295.355 406.73 294.19V278.69C406.73 277.525 405.785 276.58 404.62 276.58Z" fill="#E6E6E6"/>
<path d="M406.02 274.67H393.85C393.458 274.67 393.14 274.988 393.14 275.38V276.18C393.14 276.572 393.458 276.89 393.85 276.89H406.02C406.412 276.89 406.73 276.572 406.73 276.18V275.38C406.73 274.988 406.412 274.67 406.02 274.67Z" fill="#F0F0F0"/>
<path d="M318.42 280C318.42 280 318.92 296.3 338.01 296.3C357.1 296.3 357.61 280 357.61 280H318.42Z" fill="#E6E6E6"/>
<path d="M270.94 258.47H299.83V252.77H270.94V258.47Z" fill="#E0E0E0"/>
<path d="M443.46 252.78H299.83V258.48H443.46V252.78Z" fill="#F0F0F0"/>
<path d="M270.94 302H299.83V296.3H270.94V302Z" fill="#E0E0E0"/>
<path d="M443.46 296.3H299.83V302H443.46V296.3Z" fill="#F0F0F0"/>
<path d="M281.35 258.47H276.02V382.39H281.35V258.47Z" fill="#E0E0E0"/>
<path d="M305.16 258.47H299.83V382.39H305.16V258.47Z" fill="#F0F0F0"/>
<path d="M424.98 258.47H419.65V382.39H424.98V258.47Z" fill="#E0E0E0"/>
<path d="M443.46 258.47H438.13V382.39H443.46V258.47Z" fill="#F0F0F0"/>
<path d="M89.6901 215.81H62.3701V374.9H89.6901V215.81Z" fill="#E6E6E6"/>
<path d="M202.34 374.89H67.6201V382.4H202.34V374.89Z" fill="#E6E6E6"/>
<path d="M89.6901 374.89H207.58L207.58 215.8L89.6901 215.8L89.6901 374.89Z" fill="#F0F0F0"/>
<path d="M100.43 314.78H196.84V275.92H100.43V314.78Z" fill="#E6E6E6"/>
<path d="M100.43 360.72H196.84V321.86H100.43V360.72Z" fill="#E6E6E6"/>
<path d="M159.46 280.18H137.81C137.105 280.177 136.43 279.896 135.932 279.398C135.434 278.9 135.153 278.225 135.15 277.52C135.15 276.814 135.43 276.136 135.928 275.636C136.427 275.135 137.104 274.853 137.81 274.85H159.46C160.166 274.853 160.843 275.135 161.341 275.636C161.84 276.136 162.12 276.814 162.12 277.52C162.117 278.225 161.836 278.9 161.338 279.398C160.84 279.896 160.165 280.177 159.46 280.18Z" fill="#F0F0F0"/>
<path d="M100.43 268.83H196.84V229.97H100.43V268.83Z" fill="#E6E6E6"/>
<path d="M159.46 234.24H137.81C137.104 234.237 136.427 233.955 135.928 233.454C135.43 232.954 135.15 232.276 135.15 231.57C135.153 230.865 135.434 230.19 135.932 229.692C136.43 229.194 137.105 228.913 137.81 228.91H159.46C160.165 228.913 160.84 229.194 161.338 229.692C161.836 230.19 162.117 230.865 162.12 231.57C162.12 232.276 161.84 232.954 161.341 233.454C160.843 233.955 160.166 234.237 159.46 234.24Z" fill="#F0F0F0"/>
<path d="M159.46 326.12H137.81C137.105 326.117 136.43 325.836 135.932 325.338C135.434 324.84 135.153 324.165 135.15 323.46C135.15 322.754 135.43 322.076 135.928 321.576C136.427 321.075 137.104 320.793 137.81 320.79H159.46C160.166 320.793 160.843 321.075 161.341 321.576C161.84 322.076 162.12 322.754 162.12 323.46C162.117 324.165 161.836 324.84 161.338 325.338C160.84 325.836 160.165 326.117 159.46 326.12Z" fill="#F0F0F0"/>
<path d="M211.22 208.56H89.6899V215.81H211.22V208.56Z" fill="#E6E6E6"/>
<path d="M58.5499 215.8H89.6899V208.55H58.5499V215.8Z" fill="#E0E0E0"/>
<path d="M120.14 85.3501H75.9399V133.89H120.14V85.3501Z" fill="#E6E6E6"/>
<path d="M124.93 85.3501H79.27V133.89H124.93V85.3501Z" fill="#F0F0F0"/>
<path d="M121.1 130.06V89.1699H83.0901V130.06H121.1Z" fill="#FAFAFA"/>
<path d="M111.89 120.15V99.0801H92.3101V120.15H111.89Z" fill="#F0F0F0"/>
<path d="M166.74 71.02H133.22V107.03H166.74V71.02Z" fill="#E6E6E6"/>
<path d="M170.3 71.02H136.43V107.03H170.3V71.02Z" fill="#F0F0F0"/>
<path d="M167.46 104.19V73.8601H139.27V104.19H167.46Z" fill="#FAFAFA"/>
<path d="M153.36 81.3501L145.65 94.7101H161.07L153.36 81.3501Z" fill="#F0F0F0"/>
<path d="M250 427.56C357.082 427.56 443.89 422.492 443.89 416.24C443.89 409.988 357.082 404.92 250 404.92C142.917 404.92 56.1099 409.988 56.1099 416.24C56.1099 422.492 142.917 427.56 250 427.56Z" fill="#F5F5F5"/>
<path d="M419.8 145.82H321.7C316.525 145.82 312.33 150.015 312.33 155.19V181.87C312.33 187.045 316.525 191.24 321.7 191.24H419.8C424.975 191.24 429.17 187.045 429.17 181.87V155.19C429.17 150.015 424.975 145.82 419.8 145.82Z" fill="#0B8FAC"/>
<path d="M400.34 153.48H323.71C322.804 153.48 322.07 154.214 322.07 155.12V156.92C322.07 157.826 322.804 158.56 323.71 158.56H400.34C401.246 158.56 401.98 157.826 401.98 156.92V155.12C401.98 154.214 401.246 153.48 400.34 153.48Z" fill="#0B8FAC"/>
<path d="M376.07 165.72H323.71C322.804 165.72 322.07 166.454 322.07 167.36V169.16C322.07 170.066 322.804 170.8 323.71 170.8H376.07C376.976 170.8 377.71 170.066 377.71 169.16V167.36C377.71 166.454 376.976 165.72 376.07 165.72Z" fill="#0B8FAC"/>
<path d="M362.03 177.96H323.71C322.804 177.96 322.07 178.694 322.07 179.6V181.4C322.07 182.306 322.804 183.04 323.71 183.04H362.03C362.936 183.04 363.67 182.306 363.67 181.4V179.6C363.67 178.694 362.936 177.96 362.03 177.96Z" fill="#0B8FAC"/>
<path d="M409.52 177.96H371.2C370.294 177.96 369.56 178.694 369.56 179.6V181.4C369.56 182.306 370.294 183.04 371.2 183.04H409.52C410.426 183.04 411.16 182.306 411.16 181.4V179.6C411.16 178.694 410.426 177.96 409.52 177.96Z" fill="#0B8FAC"/>
<g opacity="0.5">
<path d="M400.34 153.48H323.71C322.804 153.48 322.07 154.214 322.07 155.12V156.92C322.07 157.826 322.804 158.56 323.71 158.56H400.34C401.246 158.56 401.98 157.826 401.98 156.92V155.12C401.98 154.214 401.246 153.48 400.34 153.48Z" fill="white"/>
<path d="M376.07 165.72H323.71C322.804 165.72 322.07 166.454 322.07 167.36V169.16C322.07 170.066 322.804 170.8 323.71 170.8H376.07C376.976 170.8 377.71 170.066 377.71 169.16V167.36C377.71 166.454 376.976 165.72 376.07 165.72Z" fill="white"/>
<path d="M362.03 177.96H323.71C322.804 177.96 322.07 178.694 322.07 179.6V181.4C322.07 182.306 322.804 183.04 323.71 183.04H362.03C362.936 183.04 363.67 182.306 363.67 181.4V179.6C363.67 178.694 362.936 177.96 362.03 177.96Z" fill="white"/>
<path d="M409.52 177.96H371.2C370.294 177.96 369.56 178.694 369.56 179.6V181.4C369.56 182.306 370.294 183.04 371.2 183.04H409.52C410.425 183.04 411.16 182.306 411.16 181.4V179.6C411.16 178.694 410.425 177.96 409.52 177.96Z" fill="white"/>
</g>
<path d="M341.22 135.23H229.87C222.281 135.23 216.13 141.382 216.13 148.97V188.09C216.13 195.678 222.281 201.83 229.87 201.83H341.22C348.808 201.83 354.96 195.678 354.96 188.09V148.97C354.96 141.382 348.808 135.23 341.22 135.23Z" fill="#0B8FAC"/>
<path d="M345.16 146.46H232.82C231.489 146.46 230.41 147.539 230.41 148.87V151.5C230.41 152.831 231.489 153.91 232.82 153.91H345.16C346.491 153.91 347.57 152.831 347.57 151.5V148.87C347.57 147.539 346.491 146.46 345.16 146.46Z" fill="#0B8FAC"/>
<path d="M309.57 164.41H232.82C231.489 164.41 230.41 165.489 230.41 166.82V169.45C230.41 170.781 231.489 171.86 232.82 171.86H309.57C310.901 171.86 311.98 170.781 311.98 169.45V166.82C311.98 165.489 310.901 164.41 309.57 164.41Z" fill="#0B8FAC"/>
<path d="M288.99 182.36H232.82C231.489 182.36 230.41 183.439 230.41 184.77V187.4C230.41 188.731 231.489 189.81 232.82 189.81H288.99C290.321 189.81 291.4 188.731 291.4 187.4V184.77C291.4 183.439 290.321 182.36 288.99 182.36Z" fill="#0B8FAC"/>
<path d="M349.25 182.36H302.45C301.119 182.36 300.04 183.439 300.04 184.77V187.4C300.04 188.731 301.119 189.81 302.45 189.81H349.25C350.581 189.81 351.66 188.731 351.66 187.4V184.77C351.66 183.439 350.581 182.36 349.25 182.36Z" fill="#0B8FAC"/>
<g opacity="0.5">
<path d="M345.16 146.46H232.82C231.489 146.46 230.41 147.539 230.41 148.87V151.5C230.41 152.831 231.489 153.91 232.82 153.91H345.16C346.491 153.91 347.57 152.831 347.57 151.5V148.87C347.57 147.539 346.491 146.46 345.16 146.46Z" fill="white"/>
<path d="M309.57 164.41H232.82C231.489 164.41 230.41 165.489 230.41 166.82V169.45C230.41 170.781 231.489 171.86 232.82 171.86H309.57C310.901 171.86 311.98 170.781 311.98 169.45V166.82C311.98 165.489 310.901 164.41 309.57 164.41Z" fill="white"/>
<path d="M288.99 182.36H232.82C231.489 182.36 230.41 183.439 230.41 184.77V187.4C230.41 188.731 231.489 189.81 232.82 189.81H288.99C290.321 189.81 291.4 188.731 291.4 187.4V184.77C291.4 183.439 290.321 182.36 288.99 182.36Z" fill="white"/>
<path d="M349.25 182.36H302.45C301.119 182.36 300.04 183.439 300.04 184.77V187.4C300.04 188.731 301.119 189.81 302.45 189.81H349.25C350.581 189.81 351.66 188.731 351.66 187.4V184.77C351.66 183.439 350.581 182.36 349.25 182.36Z" fill="white"/>
</g>
<path d="M271.99 213.9H218.36C214.814 213.9 211.94 216.774 211.94 220.32V300.66C211.94 304.206 214.814 307.08 218.36 307.08H271.99C275.536 307.08 278.41 304.206 278.41 300.66V220.32C278.41 216.774 275.536 213.9 271.99 213.9Z" fill="#0B8FAC"/>
<path opacity="0.4" d="M271.99 213.9H218.36C214.814 213.9 211.94 216.774 211.94 220.32V300.66C211.94 304.206 214.814 307.08 218.36 307.08H271.99C275.536 307.08 278.41 304.206 278.41 300.66V220.32C278.41 216.774 275.536 213.9 271.99 213.9Z" fill="black"/>
<path d="M269.53 223.62H220.81C220.158 223.62 219.63 224.148 219.63 224.8V226.57C219.63 227.222 220.158 227.75 220.81 227.75H269.53C270.182 227.75 270.71 227.222 270.71 226.57V224.8C270.71 224.148 270.182 223.62 269.53 223.62Z" fill="#FAFAFA"/>
<path d="M254.02 233.56H220.81C220.158 233.56 219.63 234.088 219.63 234.74V236.51C219.63 237.162 220.158 237.69 220.81 237.69H254.02C254.672 237.69 255.2 237.162 255.2 236.51V234.74C255.2 234.088 254.672 233.56 254.02 233.56Z" fill="#FAFAFA"/>
<path d="M269.53 243.51H220.81C220.158 243.51 219.63 244.038 219.63 244.69V246.46C219.63 247.112 220.158 247.64 220.81 247.64H269.53C270.182 247.64 270.71 247.112 270.71 246.46V244.69C270.71 244.038 270.182 243.51 269.53 243.51Z" fill="#FAFAFA"/>
<path d="M238.92 253.45H220.81C220.158 253.45 219.63 253.978 219.63 254.63V256.4C219.63 257.052 220.158 257.58 220.81 257.58H238.92C239.572 257.58 240.1 257.052 240.1 256.4V254.63C240.1 253.978 239.572 253.45 238.92 253.45Z" fill="#FAFAFA"/>
<path d="M264.26 253.45H246.15C245.498 253.45 244.97 253.978 244.97 254.63V256.4C244.97 257.052 245.498 257.58 246.15 257.58H264.26C264.911 257.58 265.44 257.052 265.44 256.4V254.63C265.44 253.978 264.911 253.45 264.26 253.45Z" fill="#FAFAFA"/>
<path d="M269.53 263.4H220.81C220.158 263.4 219.63 263.928 219.63 264.58V266.35C219.63 267.002 220.158 267.53 220.81 267.53H269.53C270.182 267.53 270.71 267.002 270.71 266.35V264.58C270.71 263.928 270.182 263.4 269.53 263.4Z" fill="#FAFAFA"/>
<path d="M269.53 273.34H220.81C220.158 273.34 219.63 273.868 219.63 274.52V276.29C219.63 276.942 220.158 277.47 220.81 277.47H269.53C270.182 277.47 270.71 276.942 270.71 276.29V274.52C270.71 273.868 270.182 273.34 269.53 273.34Z" fill="#FAFAFA"/>
<path d="M260.89 283.29H220.81C220.158 283.29 219.63 283.818 219.63 284.47V286.24C219.63 286.892 220.158 287.42 220.81 287.42H260.89C261.542 287.42 262.07 286.892 262.07 286.24V284.47C262.07 283.818 261.542 283.29 260.89 283.29Z" fill="#FAFAFA"/>
<path d="M239.51 293.23H220.81C220.158 293.23 219.63 293.758 219.63 294.41V296.18C219.63 296.832 220.158 297.36 220.81 297.36H239.51C240.162 297.36 240.69 296.832 240.69 296.18V294.41C240.69 293.758 240.162 293.23 239.51 293.23Z" fill="#FAFAFA"/>
<path d="M286.5 213.33H212.11L245 239.5L295.43 258.5V222.24C295.425 219.875 294.481 217.609 292.807 215.939C291.133 214.268 288.865 213.33 286.5 213.33Z" fill="#0B8FAC"/>
<path opacity="0.4" d="M286.5 213.33H212.11L245 239.5L295.43 258.5V222.24C295.425 219.875 294.481 217.609 292.807 215.939C291.133 214.268 288.865 213.33 286.5 213.33Z" fill="black"/>
<path d="M283.25 226.81H228.82C228.002 226.81 227.34 227.473 227.34 228.29V231.05C227.34 231.867 228.002 232.53 228.82 232.53H283.25C284.067 232.53 284.73 231.867 284.73 231.05V228.29C284.73 227.473 284.067 226.81 283.25 226.81Z" fill="#FAFAFA"/>
<path d="M415.15 284.17V231.85C415.15 227.84 411.899 224.59 407.89 224.59H317.04C313.03 224.59 309.78 227.84 309.78 231.85V284.17C309.78 288.18 313.03 291.43 317.04 291.43H407.89C411.899 291.43 415.15 288.18 415.15 284.17Z" fill="#0B8FAC"/>
<path d="M431.74 267.59V215.27C431.74 211.26 428.489 208.01 424.48 208.01H333.63C329.62 208.01 326.37 211.26 326.37 215.27V267.59C326.37 271.6 329.62 274.85 333.63 274.85H424.48C428.489 274.85 431.74 271.6 431.74 267.59Z" fill="#0B8FAC"/>
<path opacity="0.5" d="M431.74 267.59V215.27C431.74 211.26 428.489 208.01 424.48 208.01H333.63C329.62 208.01 326.37 211.26 326.37 215.27V267.59C326.37 271.6 329.62 274.85 333.63 274.85H424.48C428.489 274.85 431.74 271.6 431.74 267.59Z" fill="white"/>
<path d="M422.52 249.66V217.45C422.52 215.666 421.074 214.22 419.29 214.22H389.6C387.816 214.22 386.37 215.666 386.37 217.45V249.66C386.37 251.444 387.816 252.89 389.6 252.89H419.29C421.074 252.89 422.52 251.444 422.52 249.66Z" fill="#0B8FAC"/>
<path opacity="0.7" d="M422.52 249.66V217.45C422.52 215.666 421.074 214.22 419.29 214.22H389.6C387.816 214.22 386.37 215.666 386.37 217.45V249.66C386.37 251.444 387.816 252.89 389.6 252.89H419.29C421.074 252.89 422.52 251.444 422.52 249.66Z" fill="white"/>
<path d="M380.71 265.24V240.56C380.71 239.19 379.6 238.08 378.23 238.08H355.48C354.11 238.08 353 239.19 353 240.56V265.24C353 266.61 354.11 267.72 355.48 267.72H378.23C379.6 267.72 380.71 266.61 380.71 265.24Z" fill="#0B8FAC"/>
<path opacity="0.3" d="M380.71 265.24V240.56C380.71 239.19 379.6 238.08 378.23 238.08H355.48C354.11 238.08 353 239.19 353 240.56V265.24C353 266.61 354.11 267.72 355.48 267.72H378.23C379.6 267.72 380.71 266.61 380.71 265.24Z" fill="white"/>
<path d="M366.85 108.76V95.4301C366.85 91.3542 363.546 88.05 359.47 88.05L115.34 88.05C111.264 88.05 107.96 91.3542 107.96 95.4301V108.76C107.96 112.836 111.264 116.14 115.34 116.14L359.47 116.14C363.546 116.14 366.85 112.836 366.85 108.76Z" fill="#0B8FAC"/>
<path opacity="0.5" d="M366.85 108.76V95.4301C366.85 91.3542 363.546 88.05 359.47 88.05L115.34 88.05C111.264 88.05 107.96 91.3542 107.96 95.4301V108.76C107.96 112.836 111.264 116.14 115.34 116.14L359.47 116.14C363.546 116.14 366.85 112.836 366.85 108.76Z" fill="white"/>
<path d="M320.66 120.84V111.17H250.41V120.84H320.66Z" fill="#0B8FAC"/>
<path opacity="0.5" d="M320.66 120.84V111.17H250.41V120.84H320.66Z" fill="white"/>
<path d="M392.04 67.2601V53.9301C392.04 49.8542 388.736 46.55 384.66 46.55L140.53 46.55C136.454 46.55 133.15 49.8542 133.15 53.9301V67.2601C133.15 71.3359 136.454 74.6401 140.53 74.6401L384.66 74.6401C388.736 74.6401 392.04 71.3359 392.04 67.2601Z" fill="#0B8FAC"/>
<path d="M130.36 194.26C129.48 196.26 128.51 198.42 127.66 200.53C126.81 202.64 125.93 204.81 125.16 206.97C123.58 211.181 122.313 215.502 121.37 219.9L121.08 221.5L120.98 222.1C120.98 222.27 120.98 222.49 120.92 222.69C120.882 223.663 120.902 224.639 120.98 225.61C121.17 227.72 121.51 229.98 121.98 232.24C122.82 236.77 123.89 241.44 124.98 246.04L119.85 248.04C117.458 243.681 115.422 239.136 113.76 234.45C112.884 232.011 112.176 229.515 111.64 226.98C111.339 225.577 111.152 224.153 111.08 222.72C111.08 222.32 111.08 221.94 111.08 221.51C111.08 221.08 111.08 220.6 111.15 220.32L111.35 218.32C111.648 215.744 112.106 213.189 112.72 210.67C113.28 208.17 114 205.74 114.72 203.34C115.44 200.94 116.34 198.58 117.29 196.26C117.76 195.1 118.29 193.95 118.75 192.8C119.21 191.65 119.75 190.55 120.39 189.32L130.36 194.26Z" fill="#E4897B"/>
<path d="M124.71 244.69L128.61 248.5L120.1 252.5C120.1 252.5 118.04 248.89 119.47 245.63L124.71 244.69Z" fill="#E4897B"/>
<path d="M131.76 254.17L124.57 257.11L120.11 252.46L128.61 248.5L131.76 254.17Z" fill="#E4897B"/>
<path opacity="0.4" d="M277.41 250.07C263.261 248.481 249.9 242.733 239.017 233.553C228.135 224.372 220.218 212.171 216.269 198.491C212.319 184.812 212.514 170.269 216.829 156.701C221.144 143.132 229.384 131.148 240.509 122.262C251.634 113.376 265.144 107.988 279.33 106.78C293.517 105.571 307.744 108.595 320.211 115.471C332.679 122.346 342.829 132.764 349.377 145.406C355.925 158.049 358.578 172.35 357 186.5C355.951 195.901 353.06 205.004 348.492 213.288C343.924 221.571 337.769 228.874 330.377 234.777C322.986 240.681 314.504 245.07 305.415 247.694C296.327 250.318 286.81 251.125 277.41 250.07Z" fill="#FAFAFA"/>
<path opacity="0.4" d="M329.79 121.79L220.29 209.28C219.83 208.28 219.38 207.28 218.96 206.28C216.215 199.75 214.459 192.848 213.75 185.8L308.33 110.23C316.095 112.82 323.355 116.731 329.79 121.79Z" fill="#FAFAFA"/>
<path opacity="0.4" d="M355.06 160.12L252.11 242.37C242.33 237.271 233.854 229.99 227.34 221.09L339.75 131.27C346.996 139.587 352.234 149.457 355.06 160.12Z" fill="#FAFAFA"/>
<path d="M204.39 151L203.44 150.68C205.085 145.825 207.153 141.124 209.62 136.63L210.49 137.11C208.056 141.553 206.015 146.201 204.39 151ZM216.53 127.66L215.72 127.07C223.938 115.958 234.694 106.971 247.09 100.86L247.54 101.76C235.284 107.808 224.652 116.699 216.53 127.69V127.66ZM326.12 103.13C322.852 101.377 319.471 99.8437 316 98.5399L316.36 97.5999C319.865 98.9343 323.279 100.498 326.58 102.28L326.12 103.13Z" fill="#0B8FAC"/>
<path opacity="0.3" d="M204.39 151L203.44 150.68C205.085 145.825 207.153 141.124 209.62 136.63L210.49 137.11C208.056 141.553 206.015 146.201 204.39 151ZM216.53 127.66L215.72 127.07C223.938 115.958 234.694 106.971 247.09 100.86L247.54 101.76C235.284 107.808 224.652 116.699 216.53 127.69V127.66ZM326.12 103.13C322.852 101.377 319.471 99.8437 316 98.5399L316.36 97.5999C319.865 98.9343 323.279 100.498 326.58 102.28L326.12 103.13Z" fill="black"/>
<path d="M359.87 141.74C350.61 122.535 334.315 107.63 314.363 100.115C294.411 92.5997 272.332 93.0504 252.704 101.374C233.075 109.697 217.402 125.255 208.934 144.821C200.466 164.388 199.852 186.463 207.22 206.47C200.54 208.81 193.94 211.32 187.38 213.91C177.92 217.663 168.546 221.583 159.26 225.67C149.98 229.78 140.74 233.97 131.59 238.35C127 240.5 122.47 242.77 117.9 244.97C115.522 245.991 113.368 247.469 111.56 249.32C110.581 250.345 109.719 251.475 108.99 252.69C108.1 254.127 107.426 255.687 106.99 257.32C106.237 260.263 106.563 263.377 107.907 266.101C109.252 268.825 111.526 270.977 114.32 272.17C115.871 272.821 117.508 273.245 119.18 273.43C120.592 273.59 122.018 273.59 123.43 273.43C125.996 273.118 128.476 272.306 130.73 271.04C135.26 268.75 139.82 266.54 144.32 264.19C153.32 259.6 162.32 254.81 171.21 249.95C180.1 245.09 189 240 197.68 234.78C203.68 231.15 209.74 227.44 215.68 223.56C227.086 241.566 244.983 254.495 265.661 259.665C286.34 264.836 308.215 261.853 326.754 251.335C345.294 240.816 359.075 223.569 365.244 203.165C371.413 182.762 369.496 160.768 359.89 141.74H359.87ZM314.41 237.27C302.788 243.006 289.727 245.168 276.877 243.481C264.028 241.795 251.967 236.336 242.219 227.795C232.472 219.254 225.476 208.014 222.116 195.498C218.756 182.981 219.183 169.749 223.343 157.474C227.503 145.2 235.209 134.435 245.486 126.54C255.764 118.646 268.152 113.976 281.084 113.121C294.016 112.266 306.91 115.265 318.138 121.739C329.365 128.213 338.421 137.87 344.16 149.49C347.971 157.207 350.225 165.599 350.792 174.187C351.36 182.775 350.23 191.391 347.468 199.542C344.705 207.694 340.364 215.221 334.692 221.694C329.019 228.168 322.128 233.46 314.41 237.27Z" fill="#0B8FAC"/>
<path opacity="0.3" d="M359.87 141.74C350.61 122.535 334.315 107.63 314.363 100.115C294.411 92.5997 272.332 93.0504 252.704 101.374C233.075 109.697 217.402 125.255 208.934 144.821C200.466 164.388 199.852 186.463 207.22 206.47C200.54 208.81 193.94 211.32 187.38 213.91C177.92 217.663 168.546 221.583 159.26 225.67C149.98 229.78 140.74 233.97 131.59 238.35C127 240.5 122.47 242.77 117.9 244.97C115.522 245.991 113.368 247.469 111.56 249.32C110.581 250.345 109.719 251.475 108.99 252.69C108.1 254.127 107.426 255.687 106.99 257.32C106.237 260.263 106.563 263.377 107.907 266.101C109.252 268.825 111.526 270.977 114.32 272.17C115.871 272.821 117.508 273.245 119.18 273.43C120.592 273.59 122.018 273.59 123.43 273.43C125.996 273.118 128.476 272.306 130.73 271.04C135.26 268.75 139.82 266.54 144.32 264.19C153.32 259.6 162.32 254.81 171.21 249.95C180.1 245.09 189 240 197.68 234.78C203.68 231.15 209.74 227.44 215.68 223.56C227.086 241.566 244.983 254.495 265.661 259.665C286.34 264.836 308.215 261.853 326.754 251.335C345.294 240.816 359.075 223.569 365.244 203.165C371.413 182.762 369.496 160.768 359.89 141.74H359.87ZM314.41 237.27C302.788 243.006 289.727 245.168 276.877 243.481C264.028 241.795 251.967 236.336 242.219 227.795C232.472 219.254 225.476 208.014 222.116 195.498C218.756 182.981 219.183 169.749 223.343 157.474C227.503 145.2 235.209 134.435 245.486 126.54C255.764 118.646 268.152 113.976 281.084 113.121C294.016 112.266 306.91 115.265 318.138 121.739C329.365 128.213 338.421 137.87 344.16 149.49C347.971 157.207 350.225 165.599 350.792 174.187C351.36 182.775 350.23 191.391 347.468 199.542C344.705 207.694 340.364 215.221 334.692 221.694C329.019 228.168 322.128 233.46 314.41 237.27Z" fill="black"/>
<path d="M158 158.55C158 159.14 158.31 159.62 158.7 159.62C159.09 159.62 159.4 159.14 159.4 158.55C159.4 157.96 159.09 157.48 158.7 157.48C158.31 157.48 158 158 158 158.55Z" fill="#263238"/>
<path d="M158.28 159.62C158.988 161.431 159.94 163.137 161.11 164.69C160.705 164.979 160.242 165.177 159.753 165.268C159.265 165.36 158.762 165.343 158.28 165.22V159.62Z" fill="#DE5753"/>
<path d="M155.93 155.26C155.874 155.26 155.819 155.247 155.769 155.223C155.719 155.199 155.675 155.164 155.64 155.12C155.588 155.044 155.567 154.95 155.582 154.859C155.597 154.768 155.646 154.686 155.72 154.63C156.16 154.296 156.675 154.073 157.22 153.981C157.765 153.889 158.324 153.93 158.85 154.1C158.897 154.113 158.941 154.135 158.979 154.166C159.017 154.197 159.048 154.236 159.07 154.279C159.092 154.323 159.105 154.371 159.107 154.42C159.11 154.469 159.102 154.518 159.085 154.563C159.067 154.609 159.04 154.65 159.005 154.685C158.971 154.72 158.929 154.747 158.884 154.764C158.838 154.782 158.789 154.79 158.74 154.787C158.691 154.785 158.644 154.772 158.6 154.75C158.182 154.622 157.74 154.596 157.31 154.674C156.88 154.752 156.476 154.933 156.13 155.2C156.071 155.239 156.001 155.26 155.93 155.26Z" fill="#263238"/>
<path d="M137.8 163C138.8 168.37 139.9 178.22 136.14 181.81C136.14 181.81 137.61 187.26 147.6 187.26C158.6 187.26 152.84 181.81 152.84 181.81C146.84 180.37 147.01 175.93 148.05 171.75L137.8 163Z" fill="#E4897B"/>
<path d="M131.65 184.64C132.84 182.79 130.84 178.3 130.84 178.3C130.84 178.3 148.52 173.85 155.75 180.68C157.25 182.09 155.59 184.17 155.59 184.17L131.65 184.64Z" fill="#0B8FAC"/>
<path opacity="0.1" d="M131.65 184.64C132.84 182.79 130.84 178.3 130.84 178.3C130.84 178.3 148.52 173.85 155.75 180.68C157.25 182.09 155.59 184.17 155.59 184.17L131.65 184.64Z" fill="black"/>
<path d="M102.4 388.67C101.47 388.67 99.9798 387.12 99.5398 386.54C99.5208 386.512 99.5107 386.479 99.5107 386.445C99.5107 386.411 99.5208 386.378 99.5398 386.35C99.5559 386.322 99.5793 386.299 99.6074 386.283C99.6356 386.267 99.6675 386.259 99.6998 386.26C99.8098 386.26 102.26 386.48 102.93 387.35C103.003 387.442 103.055 387.548 103.082 387.662C103.11 387.776 103.112 387.895 103.09 388.01C103.081 388.159 103.026 388.301 102.933 388.418C102.84 388.534 102.713 388.619 102.57 388.66L102.4 388.67ZM100.08 386.67C100.81 387.51 101.98 388.46 102.48 388.34C102.48 388.34 102.68 388.29 102.74 387.97C102.753 387.903 102.751 387.834 102.733 387.768C102.716 387.702 102.684 387.641 102.64 387.59C101.899 387.029 101.008 386.701 100.08 386.65V386.67Z" fill="#0B8FAC"/>
<path d="M100.19 386.65C100.01 386.668 99.8292 386.668 99.6497 386.65C99.6181 386.647 99.5879 386.636 99.563 386.616C99.538 386.597 99.5195 386.57 99.5097 386.54C99.4956 386.512 99.4883 386.481 99.4883 386.45C99.4883 386.419 99.4956 386.388 99.5097 386.36C99.5797 386.3 101.05 384.77 102.16 384.77C102.293 384.767 102.424 384.792 102.547 384.844C102.669 384.895 102.779 384.973 102.87 385.07C102.969 385.153 103.037 385.268 103.063 385.395C103.088 385.523 103.07 385.655 103.01 385.77C102.72 386.33 101.19 386.65 100.19 386.65ZM100.06 386.3C101.06 386.3 102.51 385.99 102.75 385.55C102.75 385.55 102.82 385.42 102.66 385.26C102.601 385.197 102.53 385.147 102.451 385.114C102.371 385.081 102.286 385.066 102.2 385.07C101.38 385.258 100.635 385.686 100.06 386.3Z" fill="#0B8FAC"/>
<path d="M168.39 411.37C167.632 411.365 166.876 411.294 166.13 411.16C166.093 411.153 166.059 411.133 166.036 411.104C166.012 411.074 165.999 411.038 166 411C165.994 410.965 165.999 410.93 166.013 410.898C166.027 410.866 166.05 410.839 166.08 410.82C166.19 410.76 168.75 409.29 169.98 409.63C170.094 409.656 170.202 409.704 170.296 409.773C170.391 409.842 170.47 409.929 170.53 410.03C170.608 410.141 170.65 410.274 170.65 410.41C170.65 410.546 170.608 410.679 170.53 410.79C170.24 411.24 169.33 411.37 168.39 411.37ZM166.7 410.9C168.06 411.1 169.92 411.09 170.26 410.61C170.31 410.55 170.35 410.44 170.26 410.23C170.183 410.105 170.061 410.016 169.92 409.98C169.14 409.78 167.59 410.44 166.7 410.9Z" fill="#0B8FAC"/>
<path d="M166.17 411.17C166.137 411.179 166.103 411.179 166.07 411.17C166.042 411.152 166.021 411.126 166.008 411.096C165.996 411.066 165.993 411.032 166 411C166.068 409.959 166.467 408.967 167.14 408.17C167.276 408.053 167.436 407.966 167.608 407.916C167.781 407.866 167.962 407.853 168.14 407.88C168.62 407.88 168.76 408.17 168.79 408.36C168.92 409.19 167.17 410.78 166.28 411.18L166.17 411.17ZM167.96 408.17C167.74 408.168 167.527 408.246 167.36 408.39C166.795 409.021 166.444 409.816 166.36 410.66C167.26 410.11 168.46 408.87 168.36 408.37C168.36 408.37 168.36 408.2 168.02 408.17H167.96Z" fill="#0B8FAC"/>
<path d="M158.09 410.99H165.44L166.17 393.98H158.82L158.09 410.99Z" fill="#E4897B"/>
<path d="M92.6396 381.79L98.7796 385.81L112.34 374.36L106.19 370.33L92.6396 381.79Z" fill="#E4897B"/>
<path d="M99.7898 385.43L93.4098 380.2C93.2971 380.107 93.1557 380.057 93.0098 380.057C92.8639 380.057 92.7225 380.107 92.6098 380.2L87.3498 384.33C87.2227 384.431 87.1201 384.56 87.0496 384.706C86.979 384.852 86.9424 385.012 86.9424 385.175C86.9424 385.337 86.979 385.498 87.0496 385.644C87.1201 385.79 87.2227 385.919 87.3498 386.02C89.6098 387.81 90.7998 388.57 93.6098 390.87C95.3398 392.28 99.6098 396.6 102.02 398.55C104.43 400.5 106.64 398.4 105.84 397.39C102.25 392.84 100.84 388.95 100.43 386.54C100.359 386.104 100.131 385.709 99.7898 385.43Z" fill="#263238"/>
<path d="M165.39 410.14H157.39C157.244 410.14 157.103 410.19 156.988 410.281C156.874 410.371 156.794 410.498 156.76 410.64L155.31 417.17C155.274 417.328 155.274 417.493 155.31 417.651C155.347 417.809 155.419 417.957 155.521 418.083C155.623 418.209 155.753 418.311 155.9 418.379C156.047 418.448 156.208 418.483 156.37 418.48C159.26 418.43 163.44 418.26 167.08 418.26C171.33 418.26 175.01 418.49 179.99 418.49C182.99 418.49 183.85 415.44 182.58 415.17C176.84 413.91 172.14 413.78 167.18 410.71C166.648 410.357 166.028 410.16 165.39 410.14Z" fill="#263238"/>
<path d="M121.66 184C115.29 187 111.66 207.1 111.66 207.1L127.23 213.31C129.509 207.745 131.351 202.011 132.74 196.16C134.88 186.9 128.18 180.9 121.66 184Z" fill="#263238"/>
<path d="M129.92 195.33C126.07 199.23 124.31 206.87 123.54 211.84L127.27 213.33C129.484 207.923 131.289 202.357 132.67 196.68C132.34 194.56 131.52 193.71 129.92 195.33Z" fill="#203048"/>
<path d="M164.14 183.86C164.14 183.86 171.96 192.7 164.58 247.36H125.29C125.02 241.36 128.81 211.91 122.99 183.49C127.332 182.648 131.725 182.093 136.14 181.83C141.702 181.5 147.278 181.5 152.84 181.83C156.653 182.214 160.431 182.892 164.14 183.86Z" fill="#263238"/>
<path d="M167.73 205.08L161.11 193.67C159.832 198.994 159.31 204.471 159.56 209.94C159.74 213.86 163.33 228.38 166.56 230.5C167.417 222.055 167.807 213.568 167.73 205.08Z" fill="#203048"/>
<path d="M168.65 191.67C169.65 196.53 170.65 201.51 171.72 206.39C172.79 211.27 173.9 216.17 175.19 220.9C175.52 222.07 175.83 223.27 176.19 224.39L176.46 225.25L176.59 225.68V225.63C176.52 225.54 176.44 225.53 176.5 225.63C176.911 226.079 177.436 226.407 178.02 226.58C178.965 226.932 179.939 227.203 180.93 227.39C185.658 228.139 190.445 228.451 195.23 228.32L196.18 233.76C194.84 234.19 193.59 234.5 192.27 234.81C190.95 235.12 189.65 235.38 188.32 235.58C185.568 236.038 182.778 236.226 179.99 236.14C178.44 236.098 176.899 235.897 175.39 235.54C173.472 235.12 171.669 234.284 170.11 233.09C169.092 232.268 168.251 231.247 167.64 230.09C167.48 229.79 167.34 229.45 167.21 229.16L167.03 228.69L166.66 227.69C166.15 226.42 165.73 225.17 165.27 223.92C163.58 218.92 162.17 213.87 160.93 208.83C159.69 203.79 158.62 198.76 157.73 193.59L168.65 191.67Z" fill="#E4897B"/>
<path d="M154.33 189.22C152.26 195.93 160.65 215.94 160.65 215.94L177.36 211.74C177.36 211.74 176.72 201.34 172.91 193.09C167.17 180.65 156.81 181.17 154.33 189.22Z" fill="#263238"/>
<path d="M195.09 228.32L203.41 228.11L199.41 236.77C199.41 236.77 196.02 237.22 193.24 232.65L190.31 229.15L193.68 228.48C194.143 228.382 194.616 228.329 195.09 228.32Z" fill="#E4897B"/>
<path d="M208.66 229.72L203.9 236.9L199.41 236.77L203.41 228.11L208.66 229.72Z" fill="#E4897B"/>
<path d="M166.17 393.98L165.79 402.75H158.44L158.82 393.98H166.17Z" fill="#CE6F64"/>
<path d="M106.19 370.33L112.34 374.36L105.34 380.26L99.1997 376.24L106.19 370.33Z" fill="#CE6F64"/>
<path d="M138.26 157.28C138.7 164.55 138.59 168.84 142.26 172.57C147.78 178.2 156.77 174.87 158.51 167.57C160.08 161.03 159.1 150.23 151.98 147.33C150.409 146.696 148.702 146.471 147.021 146.677C145.339 146.883 143.737 147.513 142.366 148.508C140.995 149.502 139.898 150.829 139.18 152.364C138.462 153.898 138.145 155.59 138.26 157.28Z" fill="#E4897B"/>
<path d="M129.7 156C131.51 162.63 135.77 170.27 141.28 170.76C148.12 171.36 151.21 164.29 152.11 156.99C156.21 154.18 154.06 151.09 158.17 150.7C163.45 150.2 161.76 140.54 154.81 138.99C154.81 138.99 157.14 143.34 152.25 141.14C147.6 138.93 142.433 138.034 137.31 138.55C137.31 138.55 143.55 141.67 137.45 143.06C131.35 144.45 129.53 148.21 132.34 150.48C132.34 150.49 128.51 151.64 129.7 156Z" fill="#263238"/>
<path d="M147.94 158.49C148.074 160.297 148.802 162.009 150.01 163.36C151.61 165.13 153.28 164.03 153.56 161.88C153.82 159.95 153.29 156.7 151.33 155.72C149.37 154.74 147.81 156.31 147.94 158.49Z" fill="#E4897B"/>
<path d="M150.64 247.36C150.64 247.36 157.8 299.21 152.16 319.99C143.22 352.89 109.04 380.66 109.04 380.66L97.4497 373.06C97.4497 373.06 126.56 349.61 130.12 322.06C133.32 297.33 125.29 267.42 125.29 247.35L150.64 247.36Z" fill="#0B8FAC"/>
<path opacity="0.1" d="M150.64 247.36C150.64 247.36 157.8 299.21 152.16 319.99C143.22 352.89 109.04 380.66 109.04 380.66L97.4497 373.06C97.4497 373.06 126.56 349.61 130.12 322.06C133.32 297.33 125.29 267.42 125.29 247.35L150.64 247.36Z" fill="black"/>
<path d="M153.6 277C151.693 274.816 149.595 272.808 147.33 271C148.55 287.83 149.55 312.76 148.44 330.47C149.932 327.075 151.175 323.576 152.16 320C154.91 309.85 154.62 292.32 153.6 277Z" fill="#0B8FAC"/>
<path opacity="0.3" d="M153.6 277C151.693 274.816 149.595 272.808 147.33 271C148.55 287.83 149.55 312.76 148.44 330.47C149.932 327.075 151.175 323.576 152.16 320C154.91 309.85 154.62 292.32 153.6 277Z" fill="black"/>
<path d="M113.71 378.07C113.76 378.07 109.22 381.07 109.22 381.07L96.5596 372.77L100.56 369.46L113.71 378.07Z" fill="#0B8FAC"/>
<path opacity="0.3" d="M113.71 378.07C113.76 378.07 109.22 381.07 109.22 381.07L96.5596 372.77L100.56 369.46L113.71 378.07Z" fill="black"/>
<path d="M164.58 247.36C164.58 247.36 175.64 294.26 176.42 316.67C177.3 341.79 168.53 401.05 168.53 401.05H156.08C156.08 401.05 154.55 341.33 154 318.45C153.39 293.5 138.75 247.36 138.75 247.36H164.58Z" fill="#0B8FAC"/>
<path opacity="0.1" d="M164.58 247.36C164.58 247.36 175.64 294.26 176.42 316.67C177.3 341.79 168.53 401.05 168.53 401.05H156.08C156.08 401.05 154.55 341.33 154 318.45C153.39 293.5 138.75 247.36 138.75 247.36H164.58Z" fill="black"/>
<path d="M170.92 396.1C170.98 396.1 170.22 401.26 170.22 401.26H155.08L154.67 396.65L170.92 396.1Z" fill="#0B8FAC"/>
<path opacity="0.3" d="M170.92 396.1C170.98 396.1 170.22 401.26 170.22 401.26H155.08L154.67 396.65L170.92 396.1Z" fill="black"/>
<path d="M356 202.29C356.85 203.09 357.52 203.77 358.22 204.53C358.92 205.29 359.58 206.03 360.22 206.8C361.52 208.33 362.74 209.94 363.92 211.56C366.277 214.81 368.373 218.24 370.19 221.82L370.56 222.55C370.74 222.903 370.891 223.271 371.01 223.65C371.251 224.382 371.399 225.141 371.45 225.91C371.515 227.266 371.328 228.622 370.9 229.91C370.169 232.049 369.084 234.051 367.69 235.83C365.177 239.057 362.213 241.906 358.89 244.29L356.4 241.43C357.57 240.06 358.79 238.59 359.88 237.12C360.989 235.696 361.992 234.192 362.88 232.62C363.709 231.249 364.323 229.758 364.7 228.2C364.829 227.643 364.853 227.066 364.77 226.5C364.734 226.31 364.673 226.125 364.59 225.95C364.552 225.873 364.509 225.8 364.46 225.73L364.14 225.19C362.211 222.045 360.118 219.004 357.87 216.08C356.76 214.61 355.57 213.2 354.37 211.81C353.78 211.11 353.17 210.43 352.56 209.75C351.95 209.07 351.29 208.39 350.76 207.86L356 202.29Z" fill="#E4897B"/>
<path d="M357.36 240.59L349.89 239.37L353.8 245.91C353.8 245.91 358.61 245.74 359.98 242.91L357.36 240.59Z" fill="#E4897B"/>
<path d="M344.37 242.39L347.93 247.7L353.8 245.91L349.89 239.37L344.37 242.39Z" fill="#E4897B"/>
<path d="M357 411.28C356.492 411.324 355.985 411.185 355.57 410.89C355.445 410.772 355.352 410.623 355.301 410.458C355.25 410.293 355.243 410.118 355.28 409.95C355.287 409.843 355.323 409.739 355.385 409.651C355.447 409.563 355.531 409.493 355.63 409.45C356.5 409.06 358.78 410.52 359.04 410.69C359.07 410.708 359.092 410.736 359.105 410.768C359.118 410.801 359.119 410.836 359.11 410.87C359.106 410.904 359.091 410.936 359.068 410.962C359.045 410.987 359.014 411.004 358.98 411.01C358.332 411.174 357.668 411.265 357 411.28ZM356 409.73C355.927 409.719 355.853 409.719 355.78 409.73C355.736 409.75 355.699 409.783 355.672 409.824C355.645 409.864 355.631 409.911 355.63 409.96C355.603 410.072 355.606 410.188 355.638 410.298C355.669 410.409 355.728 410.509 355.81 410.59C356.19 410.93 357.17 410.98 358.48 410.72C357.729 410.224 356.885 409.887 356 409.73Z" fill="#0B8FAC"/>
<path d="M359 411H358.91C358.2 410.59 356.83 409 357 408.13C357.032 407.993 357.108 407.87 357.216 407.78C357.325 407.69 357.459 407.637 357.6 407.63C357.735 407.61 357.873 407.622 358.002 407.664C358.132 407.705 358.251 407.776 358.35 407.87C359.17 408.59 359.18 410.75 359.18 410.87C359.178 410.9 359.169 410.93 359.153 410.956C359.137 410.982 359.116 411.004 359.09 411.02L359 411ZM357.72 408H357.64C357.42 408 357.37 408.12 357.35 408.21C357.25 408.72 358.1 409.94 358.81 410.51C358.827 409.671 358.586 408.847 358.12 408.15C358.06 408.094 357.989 408.052 357.911 408.026C357.834 408 357.751 407.991 357.67 408H357.72Z" fill="#0B8FAC"/>
<path d="M322.92 411.28C322.282 411.341 321.642 411.178 321.11 410.82C320.99 410.714 320.898 410.58 320.84 410.43C320.783 410.281 320.762 410.119 320.78 409.96C320.787 409.863 320.818 409.769 320.87 409.687C320.922 409.604 320.995 409.537 321.08 409.49C322.01 408.97 324.99 410.49 325.33 410.68C325.361 410.7 325.386 410.729 325.402 410.762C325.418 410.796 325.424 410.833 325.42 410.87C325.414 410.905 325.398 410.937 325.373 410.963C325.348 410.988 325.315 411.004 325.28 411.01C324.504 411.175 323.714 411.265 322.92 411.28ZM321.59 409.73C321.476 409.722 321.362 409.747 321.26 409.8C321.224 409.817 321.194 409.844 321.173 409.878C321.151 409.911 321.14 409.95 321.14 409.99C321.125 410.094 321.135 410.2 321.17 410.3C321.205 410.399 321.263 410.488 321.34 410.56C321.8 410.97 323.03 411.04 324.69 410.76C323.722 410.244 322.674 409.896 321.59 409.73Z" fill="#0B8FAC"/>
<path d="M325.25 411H325.17C324.28 410.6 322.51 409 322.65 408.13C322.65 407.93 322.83 407.68 323.32 407.63C323.499 407.611 323.68 407.628 323.852 407.682C324.024 407.735 324.183 407.823 324.32 407.94C325.26 408.72 325.44 410.74 325.44 410.83C325.444 410.861 325.439 410.892 325.427 410.92C325.415 410.948 325.395 410.972 325.37 410.99C325.332 411.006 325.29 411.01 325.25 411ZM323.46 408H323.35C323.03 408 323.01 408.16 323 408.2C322.92 408.71 324.12 409.98 325 410.53C324.913 409.675 324.564 408.868 324 408.22C323.848 408.091 323.659 408.014 323.46 408Z" fill="#0B8FAC"/>
<path d="M337.07 179.3C336.78 183.82 336 193 339.47 195.54C339.47 195.54 338.84 200.17 330.65 201.25C321.65 202.42 325.76 197.34 325.76 197.34C330.53 195.52 329.92 191.89 328.62 188.57L337.07 179.3Z" fill="#E4897B"/>
<path d="M318.44 171.31C318.391 171.31 318.342 171.299 318.297 171.279C318.252 171.258 318.212 171.228 318.18 171.19C317.894 170.851 317.532 170.584 317.124 170.41C316.716 170.236 316.273 170.161 315.83 170.19C315.783 170.199 315.735 170.197 315.689 170.187C315.643 170.176 315.599 170.156 315.561 170.128C315.522 170.1 315.49 170.064 315.466 170.024C315.442 169.983 315.426 169.937 315.42 169.89C315.409 169.796 315.435 169.701 315.493 169.626C315.551 169.551 315.636 169.502 315.73 169.49C316.295 169.442 316.862 169.532 317.385 169.751C317.907 169.971 318.369 170.313 318.73 170.75C318.773 170.802 318.801 170.865 318.81 170.933C318.819 171 318.809 171.068 318.781 171.13C318.752 171.192 318.707 171.244 318.651 171.281C318.594 171.318 318.528 171.339 318.46 171.34L318.44 171.31Z" fill="#263238"/>
<path d="M316.88 175.74C316.525 177.174 315.977 178.554 315.25 179.84C315.584 180.02 315.953 180.124 316.332 180.144C316.71 180.165 317.089 180.102 317.44 179.96L316.88 175.74Z" fill="#DE5753"/>
<path d="M317.28 174.64C317.36 175.24 317.11 175.76 316.72 175.82C316.33 175.88 315.94 175.42 315.87 174.82C315.8 174.22 316.04 173.7 316.43 173.65C316.82 173.6 317.21 174 317.28 174.64Z" fill="#263238"/>
<path d="M316.61 173.66L315.12 173.43C315.12 173.43 316 174.46 316.61 173.66Z" fill="#263238"/>
<path d="M333.49 410.84H325.99L325.49 393.49H332.99L333.49 410.84Z" fill="#E4897B"/>
<path d="M367.54 410.84H360.04L357.63 393.49H365.13L367.54 410.84Z" fill="#E4897B"/>
<path d="M359.58 410H368C368.144 409.999 368.283 410.05 368.391 410.144C368.5 410.237 368.571 410.368 368.59 410.51L369.59 417.18C369.608 417.348 369.591 417.518 369.539 417.679C369.487 417.84 369.402 417.988 369.288 418.114C369.175 418.239 369.036 418.34 368.882 418.408C368.727 418.476 368.559 418.511 368.39 418.51C365.46 418.46 364.04 418.29 360.34 418.29C358.06 418.29 354.73 418.52 351.59 418.52C348.45 418.52 348.28 415.41 349.59 415.13C355.46 413.87 356.39 412.13 358.36 410.46C358.704 410.175 359.134 410.013 359.58 410Z" fill="#263238"/>
<path d="M325.74 410H334.15C334.295 409.998 334.435 410.049 334.546 410.143C334.656 410.236 334.729 410.367 334.75 410.51L335.75 417.18C335.769 417.348 335.751 417.518 335.699 417.679C335.647 417.84 335.562 417.988 335.448 418.114C335.335 418.239 335.196 418.34 335.042 418.408C334.887 418.476 334.719 418.511 334.55 418.51C331.62 418.46 330.2 418.29 326.5 418.29C324.22 418.29 319.5 418.52 316.36 418.52C313.22 418.52 313.05 415.41 314.36 415.13C320.23 413.87 322.54 412.13 324.52 410.46C324.864 410.175 325.294 410.013 325.74 410Z" fill="#263238"/>
<path d="M325.49 393.49L325.75 402.44H333.25L332.99 393.49H325.49Z" fill="#CE6F64"/>
<path d="M365.13 393.49H357.63L358.88 402.44H366.37L365.13 393.49Z" fill="#CE6F64"/>
<path d="M337.17 169.94C337.68 177.36 338.05 180.49 334.83 184.76C329.98 191.17 320.76 190.18 318.04 183.06C315.59 176.65 315.17 165.6 321.99 161.72C323.49 160.86 325.185 160.398 326.914 160.377C328.644 160.356 330.349 160.777 331.87 161.601C333.391 162.424 334.676 163.622 335.603 165.082C336.531 166.541 337.07 168.214 337.17 169.94Z" fill="#E4897B"/>
<path d="M341.49 176.83C345.65 179.15 348.74 173.43 348.74 173.43C348.74 173.43 341.28 174.24 341.95 169.8C342.83 163.91 338.61 156.75 328.03 157.67C327.44 157.72 326.88 157.79 326.33 157.88C325.223 157.355 323.97 157.219 322.776 157.495C321.581 157.771 320.515 158.442 319.75 159.4C316.75 159.65 312.7 163.23 315.45 167.96C315.643 167.416 315.942 166.917 316.33 166.49C316.56 169.26 318.98 173.66 322 173.95C322.65 177.74 320.13 182.13 321 186.09C322.29 191.8 331.92 193.09 331.92 193.09C331.588 192.377 331.464 191.584 331.564 190.804C331.663 190.024 331.98 189.287 332.48 188.68C339.02 191.68 343.33 188.75 343.33 188.75C338.87 187.09 340.22 184.13 340.22 184.13C341.76 184.814 343.505 184.874 345.088 184.298C346.672 183.721 347.97 182.554 348.71 181.04C347.229 181.11 345.759 180.75 344.477 180.003C343.196 179.256 342.159 178.154 341.49 176.83Z" fill="#263238"/>
<path d="M324.61 175.09C324.627 175.802 324.504 176.511 324.247 177.175C323.989 177.839 323.603 178.446 323.11 178.96C321.79 180.33 320.17 179.37 319.73 177.62C319.34 176.04 319.56 173.43 321.28 172.71C321.658 172.561 322.068 172.509 322.472 172.559C322.875 172.609 323.26 172.759 323.591 172.996C323.922 173.232 324.189 173.548 324.367 173.913C324.544 174.279 324.628 174.684 324.61 175.09Z" fill="#E4897B"/>
<path d="M330.84 244.22C330.84 244.22 332.74 293.58 337.26 322.56C340.9 345.98 357.07 400.7 357.07 400.7H367.29C367.29 400.7 358.86 347.85 357.01 324.7C352.33 266.11 364.48 253.53 353.01 241.33L330.84 244.22Z" fill="#263238"/>
<path d="M339.38 259.83C339.38 259.83 334.76 259.03 332.06 267.83C333.06 284.5 334.77 306.62 337.26 322.56C337.81 326.11 338.65 330.39 339.68 335.08C337.73 306.92 339.38 259.83 339.38 259.83Z" fill="#161F33"/>
<path d="M322.87 245.26C322.87 245.26 314.45 299.87 314.94 322.72C315.45 346.49 324.16 400.72 324.16 400.72H334.29C334.29 400.72 332.69 347.9 333.58 324.56C334.58 299.11 344.97 242.39 344.97 242.39L322.87 245.26Z" fill="#263238"/>
<path d="M368.77 401.18H355.18L354.12 396.62L368.67 396.72L368.77 401.18Z" fill="#0B8FAC"/>
<path opacity="0.2" d="M368.77 401.18H355.18L354.12 396.62L368.67 396.72L368.77 401.18Z" fill="black"/>
<path d="M352.5 195.55C356.41 195.93 362.35 207.04 362.35 207.04L352.48 214.61C352.48 214.61 344.31 207.44 345.28 203.41C346.29 199.22 348.75 195.2 352.5 195.55Z" fill="#0B8FAC"/>
<path opacity="0.1" d="M352.5 195.55C356.41 195.93 362.35 207.04 362.35 207.04L352.48 214.61C352.48 214.61 344.31 207.44 345.28 203.41C346.29 199.22 348.75 195.2 352.5 195.55Z" fill="black"/>
<path d="M349.55 200.33C348.553 200.061 347.521 199.947 346.49 199.99C345.965 201.083 345.559 202.23 345.28 203.41C344.28 207.41 352.48 214.61 352.48 214.61L353.21 214.05L349.55 200.33Z" fill="#0B8FAC"/>
<path opacity="0.3" d="M349.55 200.33C348.553 200.061 347.521 199.947 346.49 199.99C345.965 201.083 345.559 202.23 345.28 203.41C344.28 207.41 352.48 214.61 352.48 214.61L353.21 214.05L349.55 200.33Z" fill="black"/>
<path d="M319.52 211C316.67 218.21 313.67 225.54 311.28 232.77C311.12 233.23 310.99 233.67 310.85 234.12L310.51 235.23C310.417 235.557 310.417 235.903 310.51 236.23C311.074 237.48 311.97 238.552 313.1 239.33C316.09 241.475 319.347 243.22 322.79 244.52L321.89 248.2C317.655 247.642 313.56 246.306 309.81 244.26C307.502 243.027 305.623 241.123 304.42 238.8C303.729 237.315 303.489 235.66 303.73 234.04C303.753 233.842 303.786 233.645 303.83 233.45L303.93 233.03L304.1 232.27C304.22 231.76 304.34 231.27 304.47 230.77C305.47 226.77 306.75 222.97 308.1 219.2C309.45 215.43 310.86 211.71 312.45 208L319.52 211Z" fill="#E4897B"/>
<path d="M313.45 200.88C313.45 200.88 310.07 202.59 322.87 245.26L353.05 241.32C350.93 229.1 349.93 221.53 352.5 195.55C348.172 195.24 343.828 195.24 339.5 195.55C334.893 195.818 330.311 196.419 325.79 197.35C320 198.64 313.45 200.88 313.45 200.88Z" fill="#0B8FAC"/>
<path opacity="0.1" d="M313.45 200.88C313.45 200.88 310.07 202.59 322.87 245.26L353.05 241.32C350.93 229.1 349.93 221.53 352.5 195.55C348.172 195.24 343.828 195.24 339.5 195.55C334.893 195.818 330.311 196.419 325.79 197.35C320 198.64 313.45 200.88 313.45 200.88Z" fill="black"/>
<path d="M353.27 239.49L355 242C355.13 242.2 354.91 242.44 354.57 242.49L322.92 246.63C322.65 246.63 322.4 246.56 322.36 246.39L321.74 243.72C321.69 243.54 321.91 243.35 322.21 243.31L352.77 239.31C352.862 239.295 352.956 239.304 353.043 239.335C353.131 239.367 353.209 239.42 353.27 239.49Z" fill="#0B8FAC"/>
<path opacity="0.2" d="M353.27 239.49L355 242C355.13 242.2 354.91 242.44 354.57 242.49L322.92 246.63C322.65 246.63 322.4 246.56 322.36 246.39L321.74 243.72C321.69 243.54 321.91 243.35 322.21 243.31L352.77 239.31C352.862 239.295 352.956 239.304 353.043 239.335C353.131 239.367 353.209 239.42 353.27 239.49Z" fill="black"/>
<path d="M349.61 243.44L350.43 243.33C350.59 243.33 350.7 243.21 350.68 243.11L349.84 239.65C349.808 239.591 349.757 239.545 349.695 239.519C349.633 239.494 349.564 239.49 349.5 239.51L348.68 239.61C348.51 239.61 348.4 239.73 348.43 239.84L349.27 243.29C349.29 243.4 349.45 243.46 349.61 243.44Z" fill="#263238"/>
<path d="M329.77 246L330.59 245.89C330.75 245.89 330.87 245.77 330.84 245.67L330 242.21C329.967 242.152 329.916 242.105 329.855 242.078C329.794 242.051 329.725 242.045 329.66 242.06L328.84 242.17C328.68 242.17 328.56 242.29 328.59 242.39L329.43 245.85C329.45 246 329.61 246.06 329.77 246Z" fill="#263238"/>
<path d="M314.86 215.36C315.69 219.22 316.86 224.11 318.57 230.3L318.94 214.61L314.86 215.36Z" fill="#0B8FAC"/>
<path opacity="0.3" d="M314.86 215.36C315.69 219.22 316.86 224.11 318.57 230.3L318.94 214.61L314.86 215.36Z" fill="black"/>
<path d="M313.45 200.88C309.7 202.39 306.45 215.22 306.45 215.22L319.35 221.5C319.35 221.5 325.58 205.81 322.79 202.75C320 199.69 317.77 199.15 313.45 200.88Z" fill="#0B8FAC"/>
<path opacity="0.1" d="M313.45 200.88C309.7 202.39 306.45 215.22 306.45 215.22L319.35 221.5C319.35 221.5 325.58 205.81 322.79 202.75C320 199.69 317.77 199.15 313.45 200.88Z" fill="black"/>
<path d="M336.02 401.18H322.43L321.37 396.62L336.5 396.72L336.02 401.18Z" fill="#0B8FAC"/>
<path opacity="0.2" d="M336.02 401.18H322.43L321.37 396.62L336.5 396.72L336.02 401.18Z" fill="black"/>
<path d="M323 243.28L321.91 242.83C321.642 242.721 321.35 242.685 321.064 242.725C320.777 242.765 320.507 242.881 320.279 243.06C320.052 243.238 319.875 243.474 319.769 243.743C319.662 244.012 319.628 244.304 319.67 244.59L320.46 249.8C320.498 250.061 320.593 250.31 320.739 250.529C320.885 250.749 321.078 250.933 321.304 251.069C321.53 251.205 321.783 251.289 322.045 251.315C322.307 251.341 322.572 251.309 322.82 251.22C323.217 251.076 323.588 250.87 323.92 250.61C324.282 250.31 324.568 249.929 324.755 249.499C324.943 249.068 325.027 248.599 325 248.13L324.89 245.97C324.871 245.386 324.682 244.821 324.346 244.343C324.011 243.865 323.543 243.496 323 243.28Z" fill="#E4897B"/>
</svg>
