<svg width="500" height="500" viewBox="0 0 500 500" fill="none" xmlns="http://www.w3.org/2000/svg">
<path d="M323.311 178.057C314.531 176.117 306.001 173.437 298.211 169.407C296.571 168.557 295.001 167.637 293.471 166.637C279.501 157.467 269.961 142.297 258.771 130.217C210.841 78.4669 126.791 94.8269 82.7909 143.107C64.0009 163.717 51.4209 189.967 47.3109 217.557C39.0009 273.437 63.5509 332.977 121.721 347.957C156.781 356.987 190.571 347.007 225.381 343.097C234.791 342.037 244.221 342.077 253.601 342.897C257.811 343.257 262.011 343.787 266.191 344.447C273.201 345.547 280.161 347.007 287.051 348.717C292.901 350.157 298.691 351.777 304.411 353.477C305.451 353.787 306.491 354.107 307.531 354.427C323.191 359.317 339.641 365.947 356.241 370.847C356.771 371.007 357.311 371.167 357.851 371.317C370.201 374.877 382.621 377.417 394.851 377.487C451.701 377.817 479.231 312.617 465.431 263.987C451.721 215.667 404.591 195.107 359.241 184.887C356.691 184.317 354.151 183.767 351.621 183.257C349.131 182.757 346.661 182.287 344.201 181.837C342.641 181.547 341.091 181.277 339.541 181.017C337.841 180.717 336.151 180.437 334.471 180.167C333.801 180.057 333.131 179.947 332.461 179.837C329.391 179.317 326.331 178.727 323.311 178.057Z" fill="#B5C2F6"/>
<path d="M127.291 389.05C118.052 389.05 109.258 387.949 101.06 385.76C89.633 382.708 79.017 377.452 69.509 370.137C57.967 361.26 48.216 349.177 41.308 335.198C34.359 321.133 30.772 306.109 30.936 291.75C31.061 280.866 33.323 270.74 37.659 261.653C42.342 251.838 49.363 243.455 58.527 236.734C67.291 230.305 77.909 224.866 91.943 219.617C92.466 219.416 92.996 219.222 93.518 219.034C102.455 215.756 111.743 212.901 120.725 210.141C128.296 207.814 135.448 205.617 142.418 203.183C143.443 202.821 144.468 202.457 145.487 202.086C151.777 199.792 157.262 197.658 162.258 195.563C169.239 192.65 175.547 189.706 181.543 186.562C185.439 184.524 189.149 182.419 192.568 180.306C201.127 175.042 208.494 169.492 215.088 163.339C221.36 157.491 227.457 151.294 233.354 145.301C251.428 126.932 270.116 107.938 295.462 97.623C321.623 86.974 349.188 88.012 375.175 100.625C398.886 112.134 419.455 132.52 433.093 158.027C446.155 182.474 451.803 211.239 448.997 239.026C447.164 257.215 441.246 275.667 431.885 292.386C422.492 309.16 409.868 323.76 395.378 334.608C383.775 343.295 371.238 349.448 358.119 352.896C344.086 356.584 329.657 357.084 315.233 354.384C310.226 353.446 305.07 352.154 300.084 350.903C288.834 348.08 277.2 345.157 265.693 345.828C263.843 345.937 262.062 346.134 260.249 346.427C252.428 347.7 244.159 350.319 234.971 354.435C232.259 355.647 229.431 357 226.568 358.457L224.758 359.391C222.986 360.311 221.531 361.055 220.179 361.731C218.626 362.525 217.241 363.218 215.947 363.851C213.509 365.052 211.282 366.126 209.141 367.134C207.03 368.127 204.71 369.185 202.049 370.368C176.843 381.532 154.843 387.566 134.79 388.816C132.26 388.972 129.759 389.05 127.291 389.05ZM331.888 90.586C319.672 90.586 307.468 93.005 295.553 97.855C270.255 108.151 251.585 127.126 233.529 145.477C227.631 151.472 221.532 157.67 215.256 163.522C208.649 169.686 201.27 175.247 192.696 180.519C189.272 182.634 185.557 184.742 181.656 186.784C175.654 189.931 169.34 192.878 162.352 195.794C157.353 197.892 151.864 200.027 145.571 202.322C144.55 202.694 143.524 203.057 142.498 203.42C135.523 205.856 128.37 208.054 120.796 210.381C111.817 213.141 102.533 215.994 93.601 219.27C93.08 219.457 92.552 219.651 92.03 219.852C78.017 225.094 67.418 230.522 58.673 236.936C49.544 243.632 42.549 251.984 37.883 261.761C33.562 270.816 31.308 280.907 31.184 291.753C31.02 306.073 34.598 321.058 41.53 335.087C48.421 349.033 58.148 361.085 69.659 369.94C79.142 377.234 89.728 382.476 101.122 385.519C111.484 388.286 122.804 389.312 134.771 388.565C154.794 387.318 176.767 381.29 201.944 370.138C204.603 368.955 206.922 367.898 209.031 366.906C211.17 365.898 213.395 364.825 215.833 363.625C217.126 362.993 218.509 362.3 220.062 361.507C221.413 360.831 222.867 360.088 224.639 359.167L226.45 358.233C229.317 356.774 232.148 355.42 234.864 354.206C244.072 350.081 252.362 347.456 260.204 346.181C262.026 345.886 263.815 345.689 265.674 345.579C277.224 344.909 288.871 347.835 300.14 350.661C305.123 351.911 310.276 353.204 315.276 354.14C329.66 356.833 344.053 356.335 358.051 352.656C371.139 349.217 383.646 343.078 395.224 334.41C409.686 323.583 422.287 309.011 431.662 292.267C441.007 275.577 446.914 257.16 448.744 239.004C451.544 211.267 445.906 182.552 432.867 158.149C419.255 132.688 398.724 112.34 375.06 100.854C360.978 94.013 346.425 90.586 331.888 90.586Z" fill="#637ED3"/>
<path d="M148.491 375.794C147.939 375.794 147.491 375.347 147.491 374.794V361.19C147.491 360.637 147.939 360.19 148.491 360.19C149.043 360.19 149.491 360.637 149.491 361.19V374.795C149.491 375.347 149.044 375.794 148.491 375.794Z" fill="#FBB136"/>
<path d="M155.294 368.992H141.69C141.138 368.992 140.69 368.545 140.69 367.992C140.69 367.439 141.138 366.992 141.69 366.992H155.294C155.846 366.992 156.294 367.439 156.294 367.992C156.294 368.545 155.846 368.992 155.294 368.992Z" fill="#FBB136"/>
<path d="M316.774 145.262C316.221 145.262 315.774 144.814 315.774 144.262V130.658C315.774 130.106 316.221 129.658 316.774 129.658C317.327 129.658 317.774 130.106 317.774 130.658V144.262C317.774 144.814 317.327 145.262 316.774 145.262Z" fill="#FBB136"/>
<path d="M323.577 138.46H309.973C309.42 138.46 308.973 138.012 308.973 137.46C308.973 136.908 309.42 136.46 309.973 136.46H323.577C324.13 136.46 324.577 136.908 324.577 137.46C324.577 138.012 324.129 138.46 323.577 138.46Z" fill="#FBB136"/>
<path d="M118.306 102.398C118.05 102.398 117.794 102.3 117.599 102.105C117.208 101.714 117.208 101.082 117.599 100.691L127.219 91.071C127.61 90.68 128.242 90.68 128.633 91.071C129.024 91.462 129.024 92.094 128.633 92.485L119.013 102.105C118.817 102.301 118.562 102.398 118.306 102.398Z" fill="#FBB136"/>
<path d="M127.925 102.398C127.669 102.398 127.413 102.3 127.218 102.105L117.598 92.485C117.207 92.094 117.207 91.461 117.598 91.071C117.989 90.68 118.621 90.68 119.012 91.071L128.632 100.691C129.023 101.082 129.023 101.714 128.632 102.105C128.437 102.301 128.181 102.398 127.925 102.398Z" fill="#FBB136"/>
<path d="M60.8569 329.571C60.3049 329.571 59.8569 329.124 59.8569 328.571V314.967C59.8569 314.414 60.3049 313.967 60.8569 313.967C61.4089 313.967 61.8569 314.414 61.8569 314.967V328.571C61.8569 329.123 61.4089 329.571 60.8569 329.571Z" fill="#407FFE"/>
<path d="M67.6592 322.768H54.0552C53.5032 322.768 53.0552 322.321 53.0552 321.768C53.0552 321.215 53.5032 320.768 54.0552 320.768H67.6592C68.2112 320.768 68.6592 321.215 68.6592 321.768C68.6592 322.321 68.2122 322.768 67.6592 322.768Z" fill="#407FFE"/>
<path d="M289.966 371.752C289.71 371.752 289.454 371.654 289.259 371.459L279.64 361.839C279.249 361.448 279.249 360.816 279.64 360.425C280.031 360.034 280.663 360.034 281.054 360.425L290.673 370.045C291.064 370.436 291.064 371.068 290.673 371.459C290.478 371.655 290.222 371.752 289.966 371.752Z" fill="#407FFE"/>
<path d="M280.347 371.752C280.091 371.752 279.835 371.654 279.64 371.459C279.249 371.068 279.249 370.436 279.64 370.045L289.259 360.425C289.65 360.034 290.282 360.034 290.673 360.425C291.064 360.816 291.064 361.448 290.673 361.839L281.054 371.459C280.859 371.655 280.603 371.752 280.347 371.752Z" fill="#407FFE"/>
<path d="M441.369 198.503C440.816 198.503 440.369 198.055 440.369 197.503V183.899C440.369 183.347 440.816 182.899 441.369 182.899C441.922 182.899 442.369 183.347 442.369 183.899V197.503C442.369 198.055 441.921 198.503 441.369 198.503Z" fill="#407FFE"/>
<path d="M448.171 191.701H434.567C434.014 191.701 433.567 191.253 433.567 190.701C433.567 190.149 434.014 189.701 434.567 189.701H448.171C448.724 189.701 449.171 190.149 449.171 190.701C449.171 191.253 448.724 191.701 448.171 191.701Z" fill="#407FFE"/>
<path d="M46.415 295.523C46.415 292.946 44.326 290.858 41.75 290.858C39.173 290.858 37.085 292.947 37.085 295.523C37.085 298.099 39.174 300.188 41.75 300.188C44.326 300.189 46.415 298.1 46.415 295.523Z" fill="#B5C2F6"/>
<path d="M258.885 105.936C258.885 103.359 256.796 101.271 254.22 101.271C251.643 101.271 249.555 103.36 249.555 105.936C249.555 108.512 251.644 110.601 254.22 110.601C256.796 110.601 258.885 108.512 258.885 105.936Z" fill="#B5C2F6"/>
<path d="M462.671 214.066C462.671 211.489 460.582 209.401 458.006 209.401C455.43 209.401 453.341 211.49 453.341 214.066C453.341 216.642 455.43 218.731 458.006 218.731C460.582 218.731 462.671 216.642 462.671 214.066Z" fill="#B5C2F6"/>
<path d="M113.621 394.426C118.865 394.426 123.116 390.175 123.116 384.931C123.116 379.687 118.865 375.436 113.621 375.436C108.377 375.436 104.126 379.687 104.126 384.931C104.126 390.175 108.377 394.426 113.621 394.426Z" fill="#B5C2F6"/>
<path d="M341.866 121.783C347.042 120.94 350.555 116.061 349.712 110.886C348.869 105.71 343.99 102.197 338.814 103.04C333.639 103.883 330.126 108.761 330.969 113.937C331.811 119.113 336.69 122.626 341.866 121.783Z" fill="#B5C2F6"/>
<path d="M282.981 300.643H86.5892C78.4122 300.643 71.7842 294.014 71.7842 285.838V139.338C71.7842 131.161 78.4132 124.533 86.5892 124.533H282.981C291.158 124.533 297.786 131.162 297.786 139.338V285.838C297.786 294.014 291.158 300.643 282.981 300.643Z" fill="#607BFF"/>
<path d="M86.2572 293.313C82.1352 293.313 78.7822 289.959 78.7822 285.837V166.402C78.7822 162.28 82.1352 158.927 86.2572 158.927H282.649C286.771 158.927 290.125 162.281 290.125 166.402V285.837C290.125 289.959 286.771 293.313 282.649 293.313H86.2572Z" fill="#EBF3FF"/>
<path d="M107.494 166.971H85.4111V188.473H107.494V166.971Z" fill="#E1ECFF"/>
<path d="M136.938 166.971H114.855V188.473H136.938V166.971Z" fill="#E1ECFF"/>
<path d="M166.382 166.971H144.299V188.473H166.382V166.971Z" fill="#FBB136"/>
<path d="M195.826 166.971H173.743V188.473H195.826V166.971Z" fill="#E1ECFF"/>
<path d="M225.271 166.971H203.188V188.473H225.271V166.971Z" fill="#E1ECFF"/>
<path d="M254.715 166.971H232.632V188.473H254.715V166.971Z" fill="#E1ECFF"/>
<path d="M284.159 166.971H262.076V188.473H284.159V166.971Z" fill="#6177FF"/>
<path d="M107.494 198.883H85.4111V220.385H107.494V198.883Z" fill="#F0746A"/>
<path d="M136.938 198.883H114.855V220.385H136.938V198.883Z" fill="#E1ECFF"/>
<path d="M166.382 198.883H144.299V220.385H166.382V198.883Z" fill="#E1ECFF"/>
<path d="M195.826 198.883H173.743V220.385H195.826V198.883Z" fill="#E1ECFF"/>
<path d="M225.271 198.883H203.188V220.385H225.271V198.883Z" fill="#E1ECFF"/>
<path d="M254.715 198.883H232.632V220.385H254.715V198.883Z" fill="#E1ECFF"/>
<path d="M284.159 198.883H262.076V220.385H284.159V198.883Z" fill="#F0746A"/>
<path d="M107.494 230.796H85.4111V252.298H107.494V230.796Z" fill="#E1ECFF"/>
<path d="M136.938 230.796H114.855V252.298H136.938V230.796Z" fill="#F0746A"/>
<path d="M166.382 230.796H144.299V252.298H166.382V230.796Z" fill="#E1ECFF"/>
<path d="M195.826 230.796H173.743V252.298H195.826V230.796Z" fill="#6177FF"/>
<path d="M225.271 230.796H203.188V252.298H225.271V230.796Z" fill="#E1ECFF"/>
<path d="M254.715 230.796H232.632V252.298H254.715V230.796Z" fill="#6177FF"/>
<path d="M284.159 230.796H262.076V252.298H284.159V230.796Z" fill="#E1ECFF"/>
<path d="M107.494 262.708H85.4111V284.21H107.494V262.708Z" fill="#F0746A"/>
<path d="M136.938 262.708H114.855V284.21H136.938V262.708Z" fill="#6177FF"/>
<path d="M166.382 262.708H144.299V284.21H166.382V262.708Z" fill="#E1ECFF"/>
<path d="M195.826 262.708H173.743V284.21H195.826V262.708Z" fill="#E1ECFF"/>
<path d="M225.271 262.708H203.188V284.21H225.271V262.708Z" fill="#E1ECFF"/>
<path d="M254.715 262.708H232.632V284.21H254.715V262.708Z" fill="#F0746A"/>
<path d="M284.159 262.708H262.076V284.21H284.159V262.708Z" fill="#6177FF"/>
<path d="M93.442 149.02H90.025L88.012 142.292C88.144 143.179 88.369 144.451 88.369 146.159V149.02H85.958V139.802H89.31L91.403 146.557C91.23 145.484 91.032 144.425 91.032 142.756V139.802H93.442V149.02Z" fill="white"/>
<path d="M104.444 144.398C104.444 147.392 102.908 149.286 100.139 149.286C97.371 149.286 95.834 147.458 95.834 144.398C95.834 141.405 97.371 139.538 100.139 139.538C102.908 139.538 104.444 141.338 104.444 144.398ZM98.67 144.398C98.67 146.531 99.107 147.352 100.14 147.352C101.2 147.352 101.611 146.531 101.611 144.398C101.611 142.266 101.173 141.471 100.14 141.471C99.106 141.471 98.67 142.266 98.67 144.398Z" fill="white"/>
<path d="M111.87 149.02H108.347L105.87 139.802H108.744L110.148 147.126L111.406 139.802H114.201L111.87 149.02Z" fill="white"/>
<path d="M121.773 141.696H118.726V143.418H121.402V145.259H118.726V147.113H121.985V149.02H115.998V139.802H122.051L121.773 141.696Z" fill="white"/>
<path d="M134.153 149.02H131.465L131.399 145.749C131.373 144.557 131.373 143.365 131.492 141.988L130.406 148.093H127.823L126.658 141.988C126.804 143.511 126.856 144.491 126.83 145.736L126.764 149.021H124.076L124.738 139.803H128.102L129.162 145.776L130.116 139.803H133.493L134.153 149.02Z" fill="white"/>
<path d="M143.949 146.292C143.949 148.478 142.135 149.021 139.711 149.021H136.479V139.803H139.353C141.936 139.803 143.565 140.386 143.565 142.187C143.565 143.379 142.717 143.922 141.896 144.134C142.902 144.345 143.949 144.848 143.949 146.292ZM139.207 141.67V143.365H139.671C140.505 143.365 140.797 143.113 140.797 142.464C140.797 141.921 140.479 141.67 139.605 141.67H139.207ZM141.141 146.107C141.141 145.392 140.691 145.087 139.843 145.087H139.207V147.1H139.737C140.571 147.1 141.141 146.928 141.141 146.107Z" fill="white"/>
<path d="M152.051 141.696H149.004V143.418H151.68V145.259H149.004V147.113H152.263V149.02H146.276V139.802H152.329L152.051 141.696Z" fill="white"/>
<path d="M157.954 145.736H157.451V149.021H154.722V139.803H158.099C160.735 139.803 162.06 140.703 162.06 142.73C162.06 143.895 161.556 144.584 160.43 145.233L162.682 149.021H159.662L157.954 145.736ZM157.451 143.908H158.166C158.908 143.908 159.278 143.537 159.278 142.729C159.278 142 158.841 141.669 158.034 141.669H157.451V143.908Z" fill="white"/>
<path d="M255.984 142.444C255.984 144.126 254.937 145.279 252.17 148.086H256.195L256.063 149.026H250.898V148.139C254.049 144.828 254.818 143.967 254.818 142.496C254.818 141.529 254.209 140.96 253.321 140.96C252.553 140.96 252.037 141.278 251.454 141.94L250.725 141.358C251.441 140.483 252.275 140.046 253.375 140.046C254.977 140.047 255.984 141.08 255.984 142.444Z" fill="white"/>
<path d="M265.026 144.616C265.026 147.556 264.059 149.186 262.112 149.186C260.166 149.186 259.199 147.557 259.199 144.603C259.199 141.649 260.166 140.047 262.112 140.047C264.059 140.047 265.026 141.663 265.026 144.616ZM260.352 144.603C260.352 147.239 260.96 148.298 262.113 148.298C263.253 148.298 263.875 147.238 263.875 144.616C263.875 141.981 263.253 140.934 262.113 140.934C260.96 140.934 260.352 141.981 260.352 144.603Z" fill="white"/>
<path d="M272.81 142.444C272.81 144.126 271.764 145.279 268.996 148.086H273.023L272.89 149.026H267.724V148.139C270.876 144.828 271.645 143.967 271.645 142.496C271.645 141.529 271.036 140.96 270.148 140.96C269.38 140.96 268.864 141.278 268.281 141.94L267.553 141.358C268.269 140.483 269.103 140.046 270.202 140.046C271.805 140.047 272.81 141.08 272.81 142.444Z" fill="white"/>
<path d="M281.853 144.616C281.853 147.556 280.886 149.186 278.939 149.186C276.993 149.186 276.026 147.557 276.026 144.603C276.026 141.649 276.993 140.047 278.939 140.047C280.887 140.047 281.853 141.663 281.853 144.616ZM277.179 144.603C277.179 147.239 277.787 148.298 278.94 148.298C280.08 148.298 280.702 147.238 280.702 144.616C280.702 141.981 280.08 140.934 278.94 140.934C277.787 140.934 277.179 141.981 277.179 144.603Z" fill="white"/>
<path d="M193.918 340.463C214.878 335.425 227.786 314.349 222.748 293.389C217.71 272.429 196.634 259.521 175.674 264.559C154.714 269.597 141.806 290.673 146.844 311.633C151.882 332.593 172.958 345.501 193.918 340.463Z" fill="#FBB136"/>
<path d="M190.065 334.804C207.893 331.881 219.975 315.06 217.052 297.233C214.129 279.406 197.308 267.325 179.48 270.248C161.653 273.171 149.571 289.992 152.494 307.819C155.417 325.645 172.238 337.727 190.065 334.804Z" fill="#FFDB76"/>
<path d="M184.786 304.026C184.326 304.026 183.881 303.814 183.592 303.435L169.726 285.226C169.224 284.567 169.352 283.625 170.011 283.124C170.67 282.622 171.612 282.751 172.113 283.408L183.285 298.08V273.574C183.285 272.746 183.956 272.074 184.785 272.074C185.614 272.074 186.285 272.746 186.285 273.574V302.526C186.285 303.17 185.874 303.742 185.265 303.947C185.107 304 184.945 304.026 184.786 304.026Z" fill="white"/>
<path d="M194.247 260.535H175.612V265.971H194.247V260.535Z" fill="#FBB136"/>
<path d="M195.739 260.535H174.119C172.618 260.535 171.401 259.318 171.401 257.817C171.401 256.316 172.618 255.099 174.119 255.099H195.739C197.24 255.099 198.457 256.316 198.457 257.817C198.457 259.318 197.24 260.535 195.739 260.535Z" fill="#FFDB76"/>
<path d="M143.475 311.351C142.218 311.351 141.198 310.332 141.198 309.074V295.977C141.198 294.72 142.217 293.7 143.475 293.7C144.732 293.7 145.752 294.719 145.752 295.977V309.074C145.752 310.331 144.732 311.351 143.475 311.351Z" fill="#FFDB76"/>
<path d="M156.518 255.799H42.4039C37.4299 255.799 33.3989 251.767 33.3989 246.794V210.224C33.3989 205.25 37.4309 201.219 42.4039 201.219H156.517C161.49 201.219 165.522 205.251 165.522 210.224V246.794C165.523 251.768 161.491 255.799 156.518 255.799Z" fill="#407FFE"/>
<path d="M150.926 224.756H47.996C47.123 224.756 46.415 224.048 46.415 223.175C46.415 222.302 47.123 221.594 47.996 221.594H150.926C151.799 221.594 152.507 222.302 152.507 223.175C152.507 224.048 151.799 224.756 150.926 224.756Z" fill="white"/>
<path d="M150.926 233.656H47.996C47.123 233.656 46.415 232.948 46.415 232.075C46.415 231.202 47.123 230.494 47.996 230.494H150.926C151.799 230.494 152.507 231.202 152.507 232.075C152.507 232.948 151.799 233.656 150.926 233.656Z" fill="white"/>
<path d="M133.532 201.219L155.293 174.314L152.806 201.219H133.532Z" fill="#407FFE"/>
<path d="M285.689 322.741C300.713 319.239 310.054 304.221 306.552 289.196C303.05 274.172 288.032 264.831 273.007 268.333C257.983 271.835 248.642 286.853 252.144 301.878C255.646 316.902 270.664 326.243 285.689 322.741Z" fill="#328F60"/>
<path d="M269.46 307.056C269.35 307.056 269.239 307.042 269.131 307.014C268.756 306.917 268.445 306.659 268.279 306.309L261.901 292.854C261.591 292.201 261.87 291.421 262.522 291.112C263.177 290.802 263.956 291.081 264.264 291.733L269.973 303.776L294.87 286.011C295.459 285.593 296.275 285.729 296.694 286.316C297.114 286.904 296.977 287.721 296.389 288.14L270.22 306.813C269.996 306.973 269.729 307.056 269.46 307.056Z" fill="white"/>
<path d="M444.539 291.887C443.549 294.427 442.479 296.937 441.369 299.387H441.359C436.159 281.477 425.149 274.507 418.859 271.917C416.059 270.757 414.199 270.477 414.199 270.477C414.939 268.727 415.769 267.107 416.639 265.607C416.639 265.607 435.239 266.117 444.539 291.887Z" fill="white"/>
<path d="M406.059 265.607L421.529 258.797C419.829 260.737 418.149 262.987 416.639 265.607C415.769 267.107 414.939 268.727 414.199 270.477C413.229 272.747 412.379 275.217 411.709 277.927L406.059 265.607Z" fill="#CE3F38"/>
<path d="M419.209 294.267L411.709 277.927C412.379 275.217 413.229 272.747 414.199 270.477C414.199 270.477 416.059 270.757 418.859 271.917C418.859 271.917 417.859 281.167 419.209 294.267Z" fill="#DD6936"/>
<path d="M416.419 377.247L414.649 370.847C415.179 371.007 415.719 371.167 416.259 371.317C416.319 373.307 416.379 375.287 416.419 377.247Z" fill="#CE3F38"/>
<path d="M416.259 371.317C415.719 371.167 415.179 371.007 414.649 370.847L412.049 361.407C413.319 361.217 414.589 360.937 415.849 360.567C416.009 364.087 416.139 367.707 416.259 371.317Z" fill="#CE3F38"/>
<path d="M414.199 337.897C414.919 343.757 415.459 351.867 415.849 360.567C414.589 360.937 413.319 361.217 412.049 361.407L405.659 338.267V338.257C407.919 339.117 410.749 339.277 414.199 337.897Z" fill="#CE3F38"/>
<path d="M409.799 194.707H409.789L408.349 192.667L402.209 184.017L398.539 186.987L393.499 191.067L385.749 197.337C387.219 196.447 388.999 196.197 390.659 196.647L395.389 197.917C395.929 198.057 396.419 198.297 396.869 198.597V192.007C396.869 191.347 397.139 190.747 397.569 190.317C397.839 190.047 398.169 189.847 398.539 189.727C398.759 189.657 398.999 189.617 399.249 189.617C400.489 189.617 401.529 190.567 401.639 191.797L402.779 204.847L403.109 208.527L404.309 207.447L413.139 199.417L409.799 194.707Z" fill="#212155"/>
<path d="M393.099 184.987C393.519 186.737 393.709 188.757 393.499 191.067L385.749 197.337L384.659 197.997C383.479 198.707 382.949 200.147 383.389 201.457L383.369 202.037C381.529 201.937 379.709 202.527 378.269 203.687C378.289 202.917 378.349 202.157 378.459 201.407C380.599 186.377 393.099 184.987 393.099 184.987Z" fill="#DD6936"/>
<path d="M374.899 206.427L378.219 203.717C378.239 203.707 378.249 203.687 378.269 203.687C378.289 202.917 378.349 202.157 378.459 201.407C380.599 186.377 393.099 184.987 393.099 184.987C392.599 182.877 391.749 181.167 390.869 179.837C390.699 179.587 390.529 179.347 390.359 179.117C389.149 177.507 387.489 176.307 385.669 175.437C377.689 171.597 378.509 164.337 378.509 164.337C379.559 159.827 377.909 157.627 376.619 156.637C376.019 156.177 375.279 155.937 374.529 155.837C372.999 155.617 371.739 155.177 370.699 154.627C369.459 153.977 368.489 153.037 367.829 151.947H367.819C362.049 156.247 357.969 157.257 355.099 156.717L355.049 156.977C355.049 156.977 353.739 160.747 351.969 166.357C351.929 166.447 351.909 166.537 351.879 166.637C349.209 175.057 345.529 187.447 343.589 197.497C343.079 200.107 342.689 202.567 342.469 204.747C342.029 208.977 343.819 213.067 347.049 215.577C347.969 216.297 348.999 216.887 350.139 217.307C350.509 217.447 350.899 217.577 351.299 217.687C353.629 218.387 356.539 218.767 360.159 218.557C360.609 218.537 361.059 218.487 361.509 218.407C362.529 218.257 363.539 217.987 364.519 217.637C367.749 216.477 373.949 214.197 375.839 213.097L375.899 213.137C376.619 212.227 377.549 211.657 378.569 211.317V211.307C378.529 211.037 378.499 210.647 378.469 210.177L377.689 210.597C377.309 210.797 376.899 210.897 376.489 210.897C375.749 210.897 375.019 210.567 374.529 209.957C373.659 208.877 373.819 207.297 374.899 206.427ZM356.159 175.927C355.249 175.927 354.509 175.187 354.509 174.277C354.509 173.377 355.249 172.637 356.159 172.637C357.069 172.637 357.809 173.377 357.809 174.277C357.809 175.187 357.069 175.927 356.159 175.927ZM375.839 181.177C376.749 181.177 377.489 181.917 377.489 182.827C377.489 183.727 376.749 184.467 375.839 184.467C374.939 184.467 374.199 183.727 374.199 182.827C374.199 181.917 374.939 181.177 375.839 181.177Z" fill="#FA9664"/>
<path d="M383.999 209.247L386.569 211.737C386.569 211.737 382.079 210.137 378.569 211.317V211.307C378.529 211.037 378.499 210.647 378.469 210.177L380.939 208.837C381.939 208.287 383.179 208.457 383.999 209.247Z" fill="#DD6936"/>
<path d="M377.519 222.697L380.529 217.297C380.529 217.297 379.469 221.047 377.129 226.157C375.659 229.377 375.369 233.007 376.239 236.437L361.509 218.407C362.529 218.257 363.539 217.987 364.519 217.637C367.749 216.477 373.949 214.197 375.839 213.097L375.899 213.137C375.599 213.507 375.339 213.937 375.129 214.437L372.689 220.367C372.169 221.617 372.659 223.047 373.829 223.717C374.249 223.957 374.719 224.077 375.169 224.077C376.109 224.077 377.029 223.577 377.519 222.697Z" fill="#DD6936"/>
<path d="M377.149 240.047L378.579 245.657H378.569C369.209 254.157 357.019 249.567 357.019 249.567C348.839 246.617 345.639 240.487 344.739 234.227C346.589 234.647 348.439 234.807 350.349 234.867C351.029 237.077 352.149 239.217 353.889 241.107C357.279 244.797 362.289 246.687 367.259 246.117C370.549 245.737 374.359 244.257 377.149 240.047Z" fill="white"/>
<path d="M441.359 299.387C436.159 281.477 425.149 274.507 418.859 271.917C418.859 271.917 417.859 281.167 419.209 294.267L411.709 277.927L406.059 265.607L397.659 247.297C396.849 245.547 396.279 243.697 396.009 241.787C395.409 237.467 395.489 230.117 400.769 223.197L402.069 221.337C403.309 219.577 403.879 217.437 403.699 215.297L403.109 208.527L402.779 204.847L401.639 191.797C401.529 190.567 400.489 189.617 399.249 189.617C398.999 189.617 398.759 189.657 398.539 189.727C398.169 189.847 397.839 190.047 397.569 190.317C397.139 190.747 396.869 191.347 396.869 192.007V198.597C396.419 198.297 395.929 198.057 395.389 197.917L390.659 196.647C388.999 196.197 387.219 196.447 385.749 197.337L384.659 197.997C383.479 198.707 382.949 200.147 383.389 201.457L383.369 202.037C381.529 201.937 379.709 202.527 378.269 203.687C378.249 203.687 378.239 203.707 378.219 203.717L374.899 206.427C373.819 207.297 373.659 208.877 374.529 209.957C375.019 210.567 375.749 210.897 376.489 210.897C376.899 210.897 377.309 210.797 377.689 210.597L378.469 210.177L380.939 208.837C381.939 208.287 383.179 208.457 383.999 209.247L386.569 211.737C386.569 211.737 382.079 210.137 378.569 211.317C377.549 211.657 376.619 212.227 375.899 213.137C375.599 213.507 375.339 213.937 375.129 214.437L372.689 220.367C372.169 221.617 372.659 223.047 373.829 223.717C374.249 223.957 374.719 224.077 375.169 224.077C376.109 224.077 377.029 223.577 377.519 222.697L380.529 217.297C380.529 217.297 379.469 221.047 377.129 226.157C375.659 229.377 375.369 233.007 376.239 236.437L377.149 240.047L378.579 245.657L379.999 251.267C380.239 252.237 380.449 253.207 380.629 254.187C382.379 263.857 392.569 319.267 398.649 331.587C398.649 331.587 400.869 336.467 405.659 338.257C407.919 339.117 410.749 339.277 414.199 337.897C417.029 336.777 420.259 334.617 423.929 330.947C423.929 330.947 433.599 316.607 441.369 299.387H441.359Z" fill="#FA9664"/>
<path d="M350.349 234.867C347.829 226.697 351.299 217.687 351.299 217.687C353.629 218.387 356.539 218.767 360.159 218.557C360.609 218.537 361.059 218.487 361.509 218.407L376.239 236.437L377.149 240.047C374.359 244.257 370.549 245.737 367.259 246.117C362.289 246.687 357.279 244.797 353.889 241.107C352.149 239.217 351.029 237.077 350.349 234.867Z" fill="#FA9664"/>
<path d="M375.839 181.177C376.749 181.177 377.489 181.917 377.489 182.827C377.489 183.727 376.749 184.467 375.839 184.467C374.939 184.467 374.199 183.727 374.199 182.827C374.199 181.917 374.939 181.177 375.839 181.177Z" fill="black"/>
<path d="M356.159 172.637C357.069 172.637 357.809 173.377 357.809 174.277C357.809 175.187 357.069 175.927 356.159 175.927C355.249 175.927 354.509 175.187 354.509 174.277C354.509 173.377 355.249 172.637 356.159 172.637Z" fill="black"/>
<path d="M350.139 217.307C350.509 217.447 350.899 217.577 351.299 217.687C351.299 217.687 347.829 226.697 350.349 234.867C348.439 234.807 346.589 234.647 344.739 234.227C343.419 225.037 347.049 215.577 347.049 215.577C347.969 216.297 348.999 216.887 350.139 217.307Z" fill="white"/>
<path d="M320.389 224.717L318.359 237.317C316.539 236.197 314.799 234.987 313.159 233.637L320.389 224.717Z" fill="#CE3F38"/>
<path d="M313.159 233.637L320.389 224.717L318.359 237.317C329.149 243.957 342.539 247.227 352.489 255.197C369.139 268.527 369.709 285.207 368.309 305.147C367.279 319.857 368.979 336.487 379.349 347.927C387.929 357.407 399.899 363.277 412.049 361.407L405.659 338.267V338.257C400.869 336.467 398.649 331.587 398.649 331.587C392.569 319.267 382.379 263.857 380.629 254.187C380.449 253.207 380.239 252.237 379.999 251.267L378.579 245.657H378.569C369.209 254.157 357.019 249.567 357.019 249.567C348.839 246.617 345.639 240.487 344.739 234.227C343.039 233.837 341.329 233.227 339.579 232.237C335.669 230.037 332.849 226.757 331.359 222.547C328.799 215.307 332.219 205.187 328.779 198.857C322.069 199.777 314.659 201.037 308.289 202.197C307.599 202.327 306.909 202.437 306.219 202.537C305.049 204.287 303.949 206.097 303.399 208.377C301.669 215.587 302.689 221.327 307.059 227.277C308.849 229.717 310.909 231.807 313.159 233.637ZM437.289 265.407C432.669 262.167 427.599 259.997 422.759 257.477C418.379 255.197 414.179 252.627 410.669 248.707C405.109 242.517 408.999 232.117 411.279 225.237C411.699 223.967 413.369 219.437 414.289 215.057C411.109 212.407 407.769 209.837 404.309 207.447L403.109 208.527L403.699 215.297C403.879 217.437 403.309 219.577 402.069 221.337L400.769 223.197C395.489 230.117 395.409 237.467 396.009 241.787C396.279 243.697 396.849 245.547 397.659 247.297L406.059 265.607L421.529 258.797C419.829 260.737 418.149 262.987 416.639 265.607C416.639 265.607 435.239 266.117 444.539 291.887C445.639 289.077 446.659 286.237 447.529 283.417C446.159 276.167 443.029 269.427 437.289 265.407ZM433.749 249.337C433.989 249.507 434.239 249.667 434.489 249.817C438.699 252.337 442.939 252.287 447.069 251.007C446.769 250.507 446.449 250.027 446.119 249.547C442.649 244.557 435.649 235.547 426.329 226.147C425.939 230.497 425.469 234.627 425.999 237.147C427.029 242.047 429.519 246.507 433.749 249.337ZM401.739 397.517C398.379 399.447 395.039 400.537 391.619 400.777C388.309 401.007 384.939 400.447 381.439 399.077C367.369 393.557 366.049 380.687 366.499 367.457C366.609 364.177 366.729 359.097 365.939 354.427C365.209 350.177 363.739 346.277 360.819 344.397C355.449 340.937 349.889 344.017 345.459 348.717C341.559 352.857 338.529 358.247 337.279 361.527C333.149 372.357 332.489 386.257 335.779 397.667C337.229 398.177 338.749 398.667 340.339 399.137C349.699 401.917 361.409 403.927 375.839 404.087C380.839 404.147 386.169 403.977 391.839 403.537C396.059 403.217 400.479 402.737 405.089 402.097C408.889 401.567 412.129 399.467 414.199 396.507V396.497C415.629 394.457 416.499 392.017 416.629 389.407C415.709 389.567 414.809 389.807 413.939 390.137C409.509 391.807 405.799 395.187 401.739 397.517ZM339.479 278.127C334.519 274.117 328.079 272.647 322.449 269.717C320.619 268.767 318.619 267.937 316.619 267.037V292.967L312.009 342.897L309.429 370.897C309.019 375.327 310.129 379.657 312.449 383.267C313.769 385.327 315.479 387.157 317.539 388.627C316.859 383.857 316.789 378.777 317.029 373.357C317.479 363.377 320.019 353.357 324.599 344.447C324.799 344.047 325.009 343.657 325.219 343.267C333.319 328.297 351.009 316.887 351.069 298.417C351.089 289.957 345.809 283.257 339.479 278.127Z" fill="#EF7369"/>
<path d="M414.199 396.507C412.129 399.467 408.889 401.567 405.089 402.097C400.479 402.737 396.059 403.217 391.839 403.537C386.169 403.977 380.839 404.147 375.839 404.087C361.409 403.927 349.699 401.917 340.339 399.137C338.749 398.667 337.229 398.177 335.779 397.667C332.629 396.557 329.789 395.377 327.239 394.167C323.639 392.457 320.609 390.697 318.119 389.037C317.919 388.907 317.729 388.767 317.539 388.627C315.479 387.157 313.769 385.327 312.449 383.267L311.839 411.257L311.389 431.737H416.639L414.199 396.507Z" fill="#7A9BFC"/>
<path d="M318.359 237.317L317.389 243.317C317.229 244.277 317.099 245.247 316.989 246.217C314.649 245.907 310.089 244.607 305.439 243.167L313.159 233.637C314.799 234.987 316.539 236.197 318.359 237.317Z" fill="#CE3F38"/>
<path d="M307.059 227.277C302.689 221.327 301.669 215.587 303.399 208.377C303.949 206.097 305.049 204.287 306.219 202.537C303.649 202.937 301.069 203.197 298.489 203.307V203.317C298.489 203.317 300.359 222.087 298.829 241.047V241.057C300.889 241.727 303.179 242.467 305.439 243.167L313.159 233.637C310.909 231.807 308.849 229.717 307.059 227.277ZM331.359 222.547C332.849 226.757 335.669 230.037 339.579 232.237C341.329 233.227 343.039 233.837 344.739 234.227C343.419 225.037 347.049 215.577 347.049 215.577C343.819 213.067 342.029 208.977 342.469 204.747C342.689 202.567 343.079 200.107 343.589 197.497C339.969 197.497 334.639 198.047 328.779 198.857C332.219 205.187 328.799 215.307 331.359 222.547ZM414.649 370.847L412.049 361.407C399.899 363.277 387.929 357.407 379.349 347.927C368.979 336.487 367.279 319.857 368.309 305.147C369.709 285.207 369.139 268.527 352.489 255.197C342.539 247.227 329.149 243.957 318.359 237.317L317.389 243.317C317.229 244.277 317.099 245.247 316.989 246.217C316.749 248.417 316.619 250.627 316.619 252.837V267.037C318.619 267.937 320.619 268.767 322.449 269.717C328.079 272.647 334.519 274.117 339.479 278.127C345.809 283.257 351.089 289.957 351.069 298.417C351.009 316.887 333.319 328.297 325.219 343.267C325.009 343.657 324.799 344.047 324.599 344.447C320.019 353.357 317.479 363.377 317.029 373.357C316.789 378.777 316.859 383.857 317.539 388.627C317.729 388.767 317.919 388.907 318.119 389.037C320.609 390.697 323.639 392.457 327.239 394.167C329.789 395.377 332.629 396.557 335.779 397.667C332.489 386.257 333.149 372.357 337.279 361.527C338.529 358.247 341.559 352.857 345.459 348.717C349.889 344.017 355.449 340.937 360.819 344.397C363.739 346.277 365.209 350.177 365.939 354.427C366.729 359.097 366.609 364.177 366.499 367.457C366.049 380.687 367.369 393.557 381.439 399.077C384.939 400.447 388.309 401.007 391.619 400.777C395.039 400.537 398.379 399.447 401.739 397.517C405.799 395.187 409.509 391.807 413.939 390.137C414.809 389.807 415.709 389.567 416.629 389.407C416.639 389.137 416.639 388.857 416.639 388.577C416.589 384.997 416.519 381.167 416.419 377.247L414.649 370.847ZM447.069 251.007C442.939 252.287 438.699 252.337 434.489 249.817C434.239 249.667 433.989 249.507 433.749 249.337C429.519 246.507 427.029 242.047 425.999 237.147C425.469 234.627 425.939 230.497 426.329 226.147C422.659 222.437 418.619 218.667 414.289 215.057C413.369 219.437 411.699 223.967 411.279 225.237C408.999 232.117 405.109 242.517 410.669 248.707C414.179 252.627 418.379 255.197 422.759 257.477C427.599 259.997 432.669 262.167 437.289 265.407C443.029 269.427 446.159 276.167 447.529 283.417C449.529 277.017 450.839 270.697 450.929 264.967C451.009 260.037 449.609 255.217 447.069 251.007Z" fill="#FF8983"/>
<path d="M298.489 203.317C298.489 203.317 300.359 222.087 298.829 241.047C296.529 240.297 294.509 239.607 293.119 239.137C294.289 224.567 291.959 203.357 291.959 203.357V203.347C294.139 203.437 296.319 203.427 298.489 203.307V203.317Z" fill="white"/>
<path d="M291.959 203.357V203.347C286.589 203.147 281.239 202.377 276.009 201.037L209.579 184.017L194.319 167.177C193.339 166.097 191.869 165.577 190.429 165.817L188.419 166.137L188.269 166.367L186.859 165.487C185.609 164.697 183.999 164.747 182.789 165.617L179.149 168.237L179.159 168.407C178.159 168.437 177.209 168.817 176.469 169.507L172.989 172.717L166.969 173.197C165.799 173.337 164.959 174.397 165.099 175.577C165.229 176.657 166.149 177.467 167.229 177.467C167.289 177.467 167.339 177.457 167.399 177.457L173.209 176.977C174.519 176.867 175.829 176.997 177.089 177.367L181.979 178.787C183.669 179.277 184.649 181.037 184.169 182.737C183.779 184.147 182.489 185.087 181.079 185.087C180.829 185.087 180.579 185.057 180.329 184.997L170.319 182.587C168.899 182.247 167.469 183.097 167.089 184.507C167.029 184.747 166.999 184.977 166.999 185.217C166.999 186.367 167.739 187.437 168.899 187.787L180.349 191.297C181.759 191.727 183.099 192.337 184.349 193.117L187.509 195.077C189.899 196.567 192.709 197.237 195.509 196.997L198.109 196.777C199.329 196.667 200.559 196.887 201.669 197.397L291.119 238.447C291.119 238.447 291.869 238.707 293.119 239.137C294.289 224.567 291.959 203.357 291.959 203.357Z" fill="#FA9664"/>
<path d="M342.469 204.747C342.299 208.304 343.65 211.835 346.127 214.239C348.579 216.723 352.102 217.647 355.55 217.99C357.278 218.152 359.059 218.187 360.777 218.011C362.515 217.909 364.133 217.324 365.832 216.752C367.516 216.187 369.196 215.608 370.867 215.007C372.546 214.425 374.222 213.838 375.839 213.096C372.754 214.9 369.394 216.147 366.096 217.475C364.472 218.141 362.706 218.787 360.878 218.953C359.062 219.165 357.266 219.136 355.456 218.985C353.651 218.807 351.861 218.434 350.144 217.805C348.404 217.184 346.83 216.115 345.581 214.775C344.329 213.431 343.398 211.811 342.847 210.084C342.327 208.346 342.185 206.507 342.469 204.747Z" fill="#C44C22"/>
<path d="M426.199 309.507C424.621 306.561 423.143 303.57 421.679 300.571C420.205 297.577 418.804 294.551 417.4 291.525C416.019 288.489 414.64 285.452 413.33 282.383L411.37 277.778C410.75 276.227 410.099 274.691 409.507 273.128C411.086 276.073 412.564 279.065 414.029 282.063C415.503 285.057 416.906 288.083 418.308 291.109C419.688 294.146 421.067 297.183 422.374 300.253C423.693 303.317 424.996 306.389 426.199 309.507Z" fill="#C44C22"/>
<path d="M399.829 205.107C399.338 204.04 398.942 202.948 398.579 201.848C398.268 200.772 397.706 199.884 396.88 199.228C396.486 198.899 396.011 198.632 395.532 198.453C395.045 198.278 394.442 198.118 393.91 197.924C392.811 197.553 391.722 197.148 390.659 196.647C391.83 196.746 392.975 196.941 394.11 197.17C394.693 197.283 395.213 197.399 395.834 197.556C396.448 197.752 397.001 198.054 397.508 198.45C398.499 199.239 399.169 200.461 399.331 201.651C399.552 202.789 399.738 203.936 399.829 205.107Z" fill="#C44C22"/>
<path d="M380.529 217.297C379.803 220.415 378.698 223.439 377.447 226.386C376.254 229.257 375.924 232.465 376.542 235.497C377.248 238.554 378.064 241.681 378.753 244.786C379.442 247.902 380.207 251.009 380.628 254.187C380.18 252.647 379.814 251.105 379.318 249.581L378.007 244.975C377.137 241.891 376.312 238.846 375.561 235.69C374.925 232.463 375.316 229.023 376.748 226.071C377.451 224.641 378.109 223.196 378.733 221.731C379.382 220.276 379.967 218.794 380.529 217.297Z" fill="#C44C22"/>
<path d="M386.569 211.737C384.675 211.329 382.744 211.136 380.881 211.294C379.036 211.464 377.212 212.122 376.182 213.587C375.917 213.937 375.707 214.313 375.533 214.74L374.967 216.075C374.573 216.958 374.197 217.849 373.786 218.726L373.176 220.043C372.952 220.497 372.768 220.864 372.729 221.313C372.608 222.197 373.041 223.144 373.829 223.716C372.92 223.34 372.272 222.355 372.24 221.296C372.214 220.766 372.414 220.223 372.571 219.792L373.065 218.427C373.39 217.515 373.75 216.617 374.092 215.712L374.63 214.365C374.813 213.894 375.066 213.412 375.382 212.988C376.01 212.148 376.889 211.474 377.852 211.086C378.819 210.711 379.835 210.526 380.837 210.518C382.842 210.486 384.788 210.961 386.569 211.737Z" fill="#C44C22"/>
<path d="M395.759 212.587C395.016 211.301 394.321 209.991 393.604 208.692C393.242 208.044 392.91 207.381 392.562 206.727C392.225 206.051 391.874 205.47 391.396 204.94C390.454 203.898 389.189 203.173 387.836 202.888C387.177 202.737 386.439 202.754 385.692 202.688L383.474 202.538L383.509 202.539C383.012 202.508 382.607 202.521 382.164 202.573C381.73 202.627 381.3 202.712 380.882 202.842C380.046 203.099 379.257 203.515 378.571 204.061L378.271 204.168C378.442 204.168 378.554 204.066 378.554 204.066C378.563 204.056 378.52 204.103 378.435 204.146L378.523 204.089L375.503 206.488C375.239 206.702 375.008 206.863 374.841 207.061C374.665 207.263 374.528 207.502 374.441 207.76C374.265 208.276 374.296 208.869 374.538 209.374C375.001 210.423 376.349 210.946 377.463 210.486L380.938 208.837C379.844 209.527 378.76 210.184 377.627 210.848C376.388 211.537 374.628 210.988 373.955 209.674C373.603 209.037 373.511 208.256 373.708 207.541C373.806 207.184 373.974 206.843 374.203 206.546C374.436 206.237 374.732 206.017 374.961 205.821L377.914 203.344L378.002 203.287C377.935 203.322 377.907 203.354 377.931 203.332C377.942 203.321 378.075 203.205 378.266 203.206L377.966 203.312C378.739 202.683 379.633 202.2 380.584 201.898C381.06 201.748 381.55 201.637 382.047 201.583C382.535 201.527 383.07 201.521 383.508 201.556L383.544 201.557L385.761 201.729C386.487 201.797 387.245 201.81 388.033 202.002C389.576 202.358 390.976 203.25 391.944 204.476C392.433 205.074 392.81 205.798 393.095 206.466C393.398 207.143 393.718 207.811 394.007 208.495C394.592 209.858 395.2 211.211 395.759 212.587Z" fill="#C44C22"/>
<path d="M436.769 248.047C435.327 248.672 433.946 249.408 432.616 250.223C431.274 251.016 429.983 251.89 428.75 252.836C427.508 253.769 426.313 254.762 425.173 255.813C424.021 256.852 422.959 257.988 421.91 259.12L421.752 259.29L421.539 259.289H421.529L421.899 259.121C420.178 261.062 418.63 263.146 417.219 265.329C416.516 266.425 415.87 267.556 415.249 268.703C414.605 269.84 414.08 271.038 413.496 272.217C413.889 270.964 414.327 269.722 414.845 268.508C415.362 267.294 415.968 266.12 416.601 264.961C417.867 262.637 419.425 260.472 421.16 258.472L421.305 258.305L421.53 258.304H421.54L421.169 258.473C423.274 256.085 425.652 253.955 428.277 252.172C429.593 251.289 430.96 250.485 432.369 249.769C433.791 249.085 435.245 248.449 436.769 248.047Z" fill="#A51E1E"/>
<path d="M321.379 218.617C320.93 222.662 320.376 226.691 319.81 230.717C319.245 234.743 318.591 238.755 317.982 242.776C317.669 244.777 317.354 246.761 317.217 248.779C317.041 250.793 317.058 252.803 317.004 254.842L316.865 260.94C316.782 262.973 316.733 265.005 316.62 267.038C316.507 265.005 316.458 262.973 316.375 260.94L316.236 254.842C316.075 250.778 316.351 246.649 316.998 242.615C317.689 238.61 318.328 234.596 319.056 230.595L320.163 224.597C320.569 222.604 320.942 220.605 321.379 218.617Z" fill="#A51E1E"/>
<path d="M340.339 399.137C340.613 401.849 340.778 404.563 340.925 407.277C341.085 409.991 341.163 412.708 341.242 415.424C341.297 418.141 341.35 420.858 341.325 423.577L341.285 427.655C341.235 429.015 341.219 430.375 341.139 431.736C340.993 430.381 340.911 429.023 340.795 427.667L340.556 423.595C340.399 420.88 340.32 418.164 340.243 415.448C340.189 412.731 340.137 410.014 340.16 407.295C340.172 404.578 340.201 401.859 340.339 399.137Z" fill="#3660C9"/>
<path d="M405.089 402.097C405.089 402.097 407.179 413.057 408.019 423.827C408.229 426.537 408.359 429.237 408.359 431.737" fill="#3660C9"/>
<path d="M375.839 404.097C376.149 405.828 376.683 407.503 377.383 409.095C378.07 410.692 378.925 412.212 379.946 413.604C381.977 416.398 384.655 418.678 387.701 420.273C390.739 421.905 394.121 422.821 397.549 423.361C398.406 423.507 399.276 423.57 400.142 423.679L402.757 423.83L405.384 423.88C406.26 423.851 407.138 423.834 408.019 423.826L408.029 423.827L408.019 423.828C404.541 424.353 400.984 424.509 397.453 424.126C393.928 423.755 390.411 422.838 387.234 421.157C384.072 419.476 381.269 417.047 379.318 414.041C377.362 411.056 376.074 407.62 375.839 404.097Z" fill="#3660C9"/>
<path d="M311.839 411.257C313.682 410.489 315.346 409.412 316.911 408.243C318.458 407.046 319.895 405.715 321.165 404.234C323.737 401.284 325.653 397.83 327.239 394.167C326.41 398.076 324.57 401.817 321.921 404.888C320.586 406.414 319.054 407.773 317.358 408.878C315.666 409.979 313.805 410.857 311.839 411.257Z" fill="#3660C9"/>
<path d="M191.909 168.647C190.757 168.17 189.655 167.611 188.575 167.018C188.03 166.729 187.502 166.413 186.966 166.11C186.685 165.954 186.456 165.791 186.217 165.695C185.973 165.59 185.716 165.516 185.454 165.474C184.932 165.371 184.386 165.422 183.876 165.581C183.618 165.655 183.372 165.771 183.14 165.91L182.373 166.397C181.332 167.056 180.27 167.686 179.15 168.236C180.027 167.348 180.962 166.542 181.918 165.763C182.162 165.564 182.379 165.377 182.654 165.18C182.934 164.98 183.238 164.809 183.563 164.686C184.215 164.447 184.932 164.372 185.623 164.488C186.298 164.592 186.996 164.968 187.468 165.309C187.975 165.658 188.492 165.991 188.988 166.358C189.99 167.077 190.976 167.818 191.909 168.647Z" fill="#C44C22"/>
<path d="M188.109 169.137C185.304 169.247 182.522 169.03 179.78 168.911C178.442 168.794 177.327 169.211 176.321 170.175C175.254 171.07 174.143 171.918 172.989 172.718C173.879 171.632 174.813 170.594 175.79 169.603C176.228 169.11 176.863 168.544 177.574 168.258C178.292 167.947 179.094 167.879 179.815 167.913C182.63 168.067 185.381 168.465 188.109 169.137Z" fill="#C44C22"/>
<path d="M185.529 171.717C182.467 172.356 179.381 172.692 176.289 172.955C173.195 173.188 170.094 173.345 166.969 173.197C170.031 172.556 173.117 172.22 176.209 171.959C179.304 171.728 182.404 171.572 185.529 171.717Z" fill="#C44C22"/>
<path d="M361.509 175.447C360.812 177.784 359.938 180.033 359.002 182.251C358.077 184.475 357.048 186.647 355.998 188.809L354.405 191.921C354.127 192.516 354.486 193.345 355.283 193.549C357.45 194.136 359.811 194.049 362.17 193.437C360.161 194.815 357.538 195.456 354.981 195.08C354.22 195.004 353.369 194.513 352.936 193.783C352.474 193.067 352.342 192.119 352.625 191.278L352.745 190.973L352.844 190.762L353.039 190.356L353.429 189.543L354.21 187.919C355.295 185.775 356.401 183.641 357.611 181.56C358.809 179.473 360.071 177.416 361.509 175.447Z" fill="#C44C22"/>
<path d="M350.779 198.867C352.511 199.932 354.395 200.679 356.324 201.102C358.254 201.5 360.246 201.606 362.168 201.216C362.653 201.153 363.117 200.982 363.593 200.871C363.828 200.804 364.07 200.758 364.3 200.673L364.981 200.392C365.432 200.197 365.91 200.059 366.342 199.818L367.644 199.102C368.097 198.89 368.488 198.579 368.898 198.295L370.135 197.44C370.925 196.821 371.666 196.135 372.477 195.507C371.832 196.289 371.151 197.054 370.456 197.811L369.291 198.821C368.9 199.158 368.512 199.501 368.063 199.761C366.376 200.973 364.396 201.766 362.347 202.199C360.28 202.598 358.124 202.436 356.131 201.855C354.133 201.28 352.281 200.244 350.779 198.867Z" fill="#C44C22"/>
<path d="M371.739 174.797C372.841 174.309 374.03 174.167 375.214 174.179C376.399 174.207 377.595 174.438 378.723 174.9C379.849 175.359 380.906 176.065 381.724 176.987C382.548 177.891 383.122 179.044 383.229 180.237C382.361 179.408 381.573 178.714 380.681 178.163C379.817 177.596 378.916 177.143 377.965 176.75C376.056 175.959 374.002 175.471 371.739 174.797Z" fill="#3E2B7C"/>
<path d="M351.959 166.357L351.969 166.352H351.97C352.771 166.002 353.59 165.924 354.398 165.934C355.205 165.959 356.007 166.103 356.774 166.375C357.54 166.649 358.274 167.046 358.918 167.575C359.547 168.123 360.102 168.795 360.359 169.627C359.515 169.396 358.83 169.163 358.139 168.94C357.448 168.722 356.779 168.504 356.107 168.26C355.434 168.019 354.756 167.767 354.07 167.469C353.383 167.162 352.691 166.838 351.969 166.362L351.959 166.357Z" fill="#3E2B7C"/>
<path d="M419.489 170.047C419.159 170.637 418.829 171.217 418.559 171.847C418.209 172.697 417.729 173.977 417.409 175.397C417.399 175.457 417.379 175.517 417.369 175.577C417.359 175.637 417.339 175.707 417.329 175.767C417.019 177.257 416.879 178.857 417.209 180.307C417.209 180.307 417.799 182.317 417.649 184.887C417.459 188.337 415.919 192.807 409.799 194.707H409.789L408.419 192.767L408.349 192.667L408.279 192.567L402.209 184.017L398.669 186.887L398.539 186.987L398.399 187.097L393.499 191.067C393.709 188.757 393.519 186.737 393.099 184.987C392.599 182.877 391.749 181.167 390.869 179.837C390.699 179.587 390.529 179.347 390.359 179.117C389.149 177.507 387.489 176.307 385.669 175.437C377.689 171.597 378.509 164.337 378.509 164.337C379.559 159.827 377.909 157.627 376.619 156.637C376.019 156.177 375.279 155.937 374.529 155.837C372.999 155.617 371.739 155.177 370.699 154.627C369.459 153.977 368.489 153.037 367.829 151.947C366.819 150.317 366.479 148.347 366.869 146.527C366.889 146.437 366.909 146.357 366.929 146.267C366.949 146.187 366.969 146.107 366.999 146.027C367.049 145.817 367.119 145.617 367.199 145.417C367.699 144.137 368.609 142.987 369.939 142.167C370.649 141.737 371.399 141.447 372.109 141.337C372.729 141.247 373.329 141.287 373.869 141.487C374.109 141.577 374.349 141.657 374.599 141.737C378.109 142.817 381.879 142.477 385.189 140.977L385.439 140.867C386.179 140.527 386.889 140.117 387.569 139.657C387.589 139.647 387.599 139.637 387.619 139.627C387.839 139.477 388.069 139.317 388.279 139.157C389.599 138.167 391.059 137.397 392.619 136.887C393.049 136.747 393.479 136.627 393.929 136.537L394.199 136.477C394.929 136.337 395.689 136.247 396.439 136.227C398.969 136.167 401.929 136.767 404.779 138.907C407.189 140.717 408.879 143.307 409.779 146.177C410.399 148.177 411.669 151.047 414.129 152.997C415.349 153.977 416.509 155.027 417.429 156.277C419.669 159.327 422.509 164.777 419.489 170.047Z" fill="#3E2B7C"/>
<path d="M392.619 136.887C391.059 137.397 389.599 138.167 388.279 139.157C388.099 139.297 387.909 139.427 387.719 139.557C387.689 139.577 387.649 139.607 387.619 139.627C387.599 139.637 387.589 139.647 387.569 139.657C387.549 139.667 387.539 139.677 387.519 139.687C386.819 140.167 386.079 140.577 385.319 140.927C381.979 142.467 378.159 142.827 374.599 141.737C374.349 141.657 374.109 141.577 373.869 141.487C373.369 141.307 372.819 141.257 372.249 141.317C372.199 141.327 372.159 141.327 372.109 141.337C372.059 141.347 372.019 141.357 371.969 141.367C371.299 141.487 370.599 141.767 369.939 142.167C368.649 142.957 367.759 144.067 367.259 145.297H367.249C367.229 145.337 367.219 145.377 367.199 145.417C367.179 145.457 367.169 145.507 367.159 145.547H367.149C367.059 145.787 366.989 146.017 366.929 146.267C366.449 148.157 366.769 150.237 367.829 151.947H367.819C362.049 156.247 357.969 157.257 355.099 156.717C349.559 155.697 348.549 148.897 348.549 148.897C348.539 148.817 348.529 148.737 348.529 148.667L348.489 148.277V148.267C347.979 142.617 350.239 139.537 352.669 137.867C354.719 136.457 357.249 135.907 359.729 136.117C361.009 136.227 362.209 136.287 363.329 136.297C363.419 136.307 363.499 136.307 363.579 136.307H363.829C370.439 136.347 374.349 134.957 375.929 134.257C376.019 134.217 376.119 134.177 376.209 134.137C376.259 134.117 376.299 134.097 376.349 134.077C376.399 134.057 376.459 134.037 376.509 134.017C377.749 133.497 379.039 133.107 380.359 132.907C388.319 131.717 392.619 136.887 392.619 136.887Z" fill="#3E2B7C"/>
<path d="M394.529 173.517C393.879 172.677 393.219 171.917 392.589 171.177C390.369 168.597 388.459 166.367 388.159 162.437C387.789 157.887 386.359 155.427 382.859 153.347C380.809 152.137 378.599 152.127 376.459 152.117C374.769 152.107 373.019 152.097 371.369 151.497C369.279 150.737 367.539 148.617 367.049 146.227C367.029 146.187 367.029 146.137 367.019 146.087L367.009 146.057C367.009 146.047 367.009 146.037 366.999 146.027C366.969 146.107 366.949 146.187 366.929 146.267C366.909 146.357 366.889 146.437 366.869 146.527C367.429 148.897 369.179 150.967 371.289 151.737C372.979 152.347 374.749 152.357 376.449 152.367C378.559 152.377 380.739 152.387 382.739 153.567C386.149 155.597 387.549 158.007 387.909 162.457C388.219 166.467 390.159 168.727 392.399 171.337C393.029 172.077 393.679 172.837 394.329 173.677C395.899 175.697 397.139 178.317 397.829 181.047C398.359 183.067 398.559 185.117 398.409 186.977C398.409 187.017 398.409 187.057 398.399 187.097L398.539 186.987L398.669 186.887C398.799 185.037 398.599 182.997 398.069 180.987C397.369 178.227 396.119 175.577 394.529 173.517ZM410.149 183.227C409.659 181.237 408.669 179.317 407.369 177.817C406.489 176.807 405.489 175.827 404.419 174.787C401.239 171.697 397.949 168.487 397.899 164.297C397.869 162.937 397.959 161.527 398.039 160.157C398.319 155.367 398.599 150.417 394.619 146.687C393.279 145.437 391.579 144.567 389.939 143.717L389.429 143.457C388.039 142.737 386.579 141.947 385.439 140.867L385.189 140.977C385.199 140.987 385.219 141.007 385.229 141.017C386.409 142.137 387.899 142.947 389.309 143.677L389.829 143.947C391.449 144.777 393.139 145.637 394.449 146.867C398.349 150.527 398.059 155.407 397.789 160.137C397.709 161.507 397.619 162.927 397.649 164.297C397.709 168.597 401.029 171.837 404.249 174.967C405.309 176.007 406.309 176.977 407.179 177.977C408.449 179.457 409.419 181.337 409.909 183.287C410.049 183.857 410.149 184.467 410.219 185.087C410.389 186.907 410.199 190.807 408.279 192.567L408.349 192.667L408.419 192.767L408.429 192.757C410.449 190.937 410.639 186.927 410.459 185.067C410.399 184.427 410.299 183.807 410.149 183.227ZM413.539 170.677C412.899 170.047 412.219 169.447 411.549 168.877C410.429 167.897 409.259 166.887 408.339 165.687C405.769 162.367 406.129 158.817 406.509 155.047C406.649 153.687 406.789 152.277 406.789 150.867C406.779 144.917 403.059 142.317 398.199 139.547C396.389 138.517 395.189 137.597 394.199 136.477L393.929 136.537C393.939 136.557 393.959 136.567 393.969 136.587C394.979 137.747 396.209 138.697 398.079 139.767C402.859 142.497 406.529 145.047 406.539 150.867C406.539 152.267 406.399 153.667 406.259 155.027C405.869 158.837 405.509 162.447 408.139 165.847C409.079 167.057 410.259 168.077 411.389 169.067C412.049 169.637 412.729 170.227 413.359 170.857C415.009 172.497 416.289 174.057 417.259 175.637C417.289 175.677 417.309 175.727 417.329 175.767C417.339 175.707 417.359 175.637 417.369 175.577C417.379 175.517 417.399 175.457 417.409 175.397C416.429 173.837 415.159 172.287 413.539 170.677Z" fill="#5E4DDB"/>
<path d="M367.189 145.297C365.099 145.447 363.219 146.857 361.229 148.347C360.079 149.207 358.899 150.097 357.609 150.797C354.489 152.477 350.749 150.727 348.599 148.387C348.559 148.347 348.539 148.317 348.489 148.277L348.529 148.667C350.129 150.357 352.529 151.717 354.929 151.717C355.879 151.717 356.829 151.507 357.729 151.017C359.039 150.307 360.229 149.417 361.379 148.547C363.319 147.087 365.149 145.707 367.149 145.547H367.159C367.169 145.507 367.179 145.457 367.199 145.417C367.219 145.377 367.229 145.337 367.249 145.297H367.189ZM372.199 141.257C370.849 139.717 368.819 138.767 366.839 137.847C365.829 137.367 364.789 136.877 363.829 136.307H363.579C363.499 136.307 363.419 136.307 363.329 136.297C363.389 136.347 363.449 136.377 363.509 136.417C364.529 137.037 365.649 137.557 366.739 138.067C368.759 139.017 370.649 139.907 371.969 141.367C372.019 141.357 372.059 141.347 372.109 141.337C372.159 141.327 372.199 141.327 372.249 141.317C372.239 141.297 372.219 141.277 372.199 141.257ZM387.709 139.547C386.459 138.147 384.669 137.267 382.929 136.487C382.279 136.187 381.419 135.897 380.509 135.587C379.209 135.157 377.739 134.667 376.509 134.017C376.459 134.037 376.399 134.057 376.349 134.077C376.299 134.097 376.259 134.117 376.209 134.137C376.229 134.157 376.259 134.167 376.289 134.187C377.559 134.867 379.089 135.377 380.429 135.827C381.329 136.127 382.189 136.417 382.829 136.707C384.529 137.487 386.289 138.337 387.519 139.687C387.539 139.677 387.549 139.667 387.569 139.657C387.589 139.647 387.599 139.637 387.619 139.627C387.649 139.607 387.689 139.577 387.719 139.557L387.709 139.547Z" fill="#5E4DDB"/>
<path d="M408.696 143.564C407.66 141.788 406.294 140.209 404.628 139.049C402.963 137.894 401.08 137.06 399.091 136.761C397.109 136.443 395.069 136.595 393.164 137.188C392.203 137.438 391.282 137.854 390.406 138.326C389.505 138.804 388.764 139.379 387.882 140.013L387.828 140.045L387.778 140.075L387.832 140.044C385.326 141.766 382.32 142.787 379.266 142.839C377.742 142.866 376.212 142.684 374.748 142.249C374.381 142.155 374.016 142.004 373.673 141.891C373.379 141.785 373.059 141.734 372.732 141.732C372.075 141.723 371.41 141.913 370.779 142.201C369.524 142.778 368.429 143.753 367.778 144.993C367.15 146.238 366.858 147.688 367.067 149.103C367.26 150.51 367.849 151.885 368.796 152.981C369.269 153.529 369.83 154.004 370.449 154.39C371.079 154.76 371.767 155.029 372.432 155.357C371.75 155.083 371.03 154.874 370.363 154.539C369.707 154.182 369.099 153.728 368.572 153.187C367.527 152.101 366.779 150.7 366.531 149.184C366.254 147.67 366.499 146.085 367.15 144.673C367.831 143.27 369 142.108 370.418 141.43C371.123 141.097 371.909 140.854 372.735 140.854C373.146 140.853 373.566 140.911 373.97 141.05C374.33 141.164 374.651 141.294 375 141.379C376.373 141.769 377.814 141.923 379.241 141.88C382.095 141.77 384.925 140.862 387.308 139.271L387.362 139.239L387.412 139.209L387.358 139.241C388.972 138.022 390.881 136.884 392.929 136.361C394.961 135.742 397.145 135.707 399.21 136.103C401.281 136.506 403.247 137.413 404.873 138.722C406.509 140.023 407.821 141.7 408.696 143.564Z" fill="#110647"/>
</svg>
