<svg width="500" height="500" viewBox="0 0 500 500" fill="none" xmlns="http://www.w3.org/2000/svg">
<path d="M165.19 75.75C165.19 75.75 89.4201 114.36 51.6301 173.85C13.8401 233.34 16.8301 309.85 62.7501 366.63C108.67 423.41 196.44 416 269.93 452C343.42 488 424.5 480.58 459.25 404.34C494 328.1 441.6 299.57 432.6 211.36C423.6 123.15 344.07 -6.00004 165.19 75.75Z" fill="#0B8FAC"/>
<path opacity="0.7" d="M165.19 75.75C165.19 75.75 89.4201 114.36 51.6301 173.85C13.8401 233.34 16.8301 309.85 62.7501 366.63C108.67 423.41 196.44 416 269.93 452C343.42 488 424.5 480.58 459.25 404.34C494 328.1 441.6 299.57 432.6 211.36C423.6 123.15 344.07 -6.00004 165.19 75.75Z" fill="white"/>
<path d="M467.2 273.5H463.05V272.79C463.047 270.852 462.276 268.994 460.906 267.624C459.535 266.254 457.678 265.483 455.74 265.48H452.93C450.99 265.48 449.13 266.25 447.757 267.62C446.385 268.991 445.612 270.85 445.61 272.79V273.5H441.47C440.917 273.499 440.368 273.607 439.857 273.818C439.346 274.029 438.881 274.339 438.49 274.73C438.099 275.121 437.789 275.586 437.578 276.097C437.366 276.609 437.258 277.157 437.26 277.71V296.89C437.26 298.007 437.703 299.077 438.493 299.867C439.282 300.656 440.353 301.1 441.47 301.1H467.2C468.316 301.097 469.385 300.653 470.174 299.864C470.963 299.075 471.407 298.006 471.41 296.89V277.71C471.41 276.593 470.966 275.523 470.177 274.733C469.387 273.944 468.316 273.5 467.2 273.5ZM447.61 272.79C447.612 271.381 448.174 270.03 449.171 269.035C450.169 268.039 451.521 267.48 452.93 267.48H455.74C457.148 267.48 458.499 268.039 459.495 269.035C460.49 270.031 461.05 271.382 461.05 272.79V273.5H447.61V272.79Z" fill="#263238"/>
<path d="M462 285.34H456.7V280.05H451.96V285.34H446.66V290.09H451.96V295.38H456.7V290.09H462V285.34Z" fill="white"/>
<path d="M459 159.2C458.176 159.2 457.36 159.037 456.598 158.722C455.837 158.406 455.145 157.943 454.563 157.36C453.981 156.777 453.519 156.084 453.204 155.322C452.89 154.561 452.729 153.744 452.73 152.92V136C452.729 135.176 452.89 134.359 453.204 133.597C453.519 132.836 453.981 132.143 454.563 131.56C455.145 130.977 455.837 130.514 456.598 130.198C457.36 129.882 458.176 129.72 459 129.72C459.824 129.72 460.64 129.882 461.402 130.198C462.163 130.514 462.855 130.977 463.437 131.56C464.019 132.143 464.481 132.836 464.796 133.597C465.11 134.359 465.271 135.176 465.27 136V152.89C465.275 153.717 465.117 154.536 464.804 155.302C464.492 156.067 464.03 156.763 463.448 157.349C462.865 157.936 462.172 158.401 461.409 158.719C460.645 159.036 459.827 159.2 459 159.2Z" fill="white" stroke="#263238" stroke-linecap="round" stroke-linejoin="round"/>
<path d="M459 159.2C458.176 159.2 457.36 159.037 456.598 158.722C455.837 158.406 455.145 157.943 454.563 157.36C453.981 156.777 453.519 156.084 453.204 155.322C452.89 154.561 452.729 153.744 452.73 152.92V144.47H465.27V152.92C465.271 153.744 465.11 154.561 464.796 155.322C464.481 156.084 464.019 156.777 463.437 157.36C462.855 157.943 462.163 158.406 461.402 158.722C460.64 159.037 459.824 159.2 459 159.2Z" fill="#263238" stroke="#263238" stroke-linecap="round" stroke-linejoin="round"/>
<path d="M427.46 134.28C426.944 133.636 426.561 132.897 426.332 132.104C426.103 131.312 426.033 130.482 426.126 129.662C426.219 128.843 426.473 128.049 426.874 127.328C427.274 126.607 427.813 125.972 428.46 125.46L441.63 114.88C442.934 113.843 444.596 113.366 446.252 113.554C447.907 113.741 449.421 114.578 450.46 115.88C451.496 117.183 451.973 118.843 451.785 120.497C451.598 122.151 450.761 123.663 449.46 124.7L436.28 135.27C435.636 135.785 434.897 136.168 434.105 136.397C433.313 136.626 432.484 136.696 431.665 136.604C430.845 136.512 430.052 136.26 429.331 135.861C428.609 135.462 427.973 134.925 427.46 134.28Z" fill="white" stroke="#263238" stroke-linecap="round" stroke-linejoin="round"/>
<path d="M427.46 134.28C426.944 133.636 426.561 132.897 426.332 132.104C426.103 131.312 426.033 130.482 426.126 129.662C426.219 128.842 426.473 128.049 426.874 127.328C427.274 126.607 427.813 125.972 428.46 125.46L435.05 120.17L442.9 129.96L436.31 135.24C435.667 135.761 434.927 136.15 434.134 136.384C433.34 136.618 432.508 136.692 431.685 136.603C430.862 136.514 430.065 136.263 429.34 135.864C428.615 135.465 427.976 134.927 427.46 134.28Z" fill="#263238" stroke="#263238" stroke-linecap="round" stroke-linejoin="round"/>
<path d="M364.75 88.24C363.968 88.2403 363.206 88.4851 362.57 88.94L348 77.63C348.714 76.3084 349.049 74.8151 348.968 73.3152C348.886 71.8152 348.392 70.3668 347.54 69.13L356.44 57.75C357.193 58.0404 358.019 58.0821 358.798 57.8689C359.577 57.6558 360.266 57.1989 360.767 56.5653C361.267 55.9317 361.551 55.1546 361.578 54.3478C361.604 53.541 361.372 52.7468 360.915 52.0816C360.457 51.4164 359.799 50.9151 359.036 50.651C358.273 50.387 357.446 50.3741 356.675 50.6142C355.905 50.8544 355.231 51.335 354.753 51.9856C354.275 52.6362 354.018 53.4227 354.02 54.23C354.015 55.008 354.257 55.7675 354.71 56.4L346.05 67.49C344.888 66.5121 343.478 65.8772 341.976 65.6564C340.474 65.4356 338.94 65.6376 337.546 66.2399C336.153 66.8422 334.954 67.8209 334.086 69.0662C333.218 70.3115 332.713 71.7741 332.63 73.29H322.51C322.399 72.3917 321.97 71.5629 321.3 70.9542C320.63 70.3455 319.764 69.9973 318.86 69.973C317.955 69.9486 317.072 70.2497 316.37 70.8215C315.668 71.3933 315.195 72.1978 315.037 73.0889C314.878 73.9799 315.044 74.8983 315.505 75.6772C315.966 76.456 316.692 77.0436 317.549 77.333C318.407 77.6225 319.339 77.5947 320.178 77.2547C321.017 76.9146 321.706 76.2849 322.12 75.48H332.82C333.133 76.934 333.836 78.2751 334.855 79.3591C335.873 80.4431 337.168 81.229 338.599 81.6321C340.031 82.0353 341.545 82.0405 342.98 81.6472C344.414 81.2539 345.714 80.477 346.74 79.4L361.23 90.67C360.944 91.4217 360.906 92.2451 361.121 93.02C361.337 93.7948 361.794 94.4804 362.427 94.9767C363.06 95.4729 363.835 95.7538 364.639 95.7782C365.443 95.8027 366.234 95.5694 366.895 95.1125C367.557 94.6556 368.056 93.999 368.318 93.2387C368.58 92.4784 368.592 91.6542 368.352 90.8865C368.113 90.1188 367.634 89.4478 366.986 88.9717C366.337 88.4956 365.554 88.2392 364.75 88.24Z" fill="#263238"/>
<path d="M68.78 159.32C67.5687 159.317 66.4079 158.835 65.5514 157.979C64.6949 157.122 64.2126 155.961 64.21 154.75V116.75H73.35V154.75C73.35 155.962 72.8685 157.124 72.0114 157.981C71.1544 158.839 69.992 159.32 68.78 159.32Z" fill="white" stroke="#263238" stroke-linecap="round" stroke-linejoin="round"/>
<path d="M68.78 159.32C67.5687 159.317 66.4079 158.835 65.5514 157.979C64.6949 157.122 64.2126 155.961 64.21 154.75V131.38H73.35V154.75C73.35 155.962 72.8685 157.124 72.0114 157.981C71.1544 158.839 69.992 159.32 68.78 159.32Z" fill="#263238" stroke="#263238" stroke-linecap="round" stroke-linejoin="round"/>
<path d="M74.6597 114.53H62.9097V117.86H74.6597V114.53Z" fill="white" stroke="#263238" stroke-linecap="round" stroke-linejoin="round"/>
<path d="M54.9299 159.32C53.7186 159.317 52.5578 158.835 51.7013 157.979C50.8448 157.122 50.3625 155.961 50.3599 154.75V116.75H59.4999V154.75C59.4999 155.962 59.0184 157.124 58.1613 157.981C57.3043 158.839 56.1419 159.32 54.9299 159.32Z" fill="white" stroke="#263238" stroke-linecap="round" stroke-linejoin="round"/>
<path d="M54.9299 159.32C53.7186 159.317 52.5578 158.835 51.7013 157.979C50.8448 157.122 50.3625 155.961 50.3599 154.75V131.38H59.4999V154.75C59.4999 155.962 59.0184 157.124 58.1613 157.981C57.3043 158.839 56.1419 159.32 54.9299 159.32Z" fill="#263238" stroke="#263238" stroke-linecap="round" stroke-linejoin="round"/>
<path d="M60.8101 114.53H49.0601V117.86H60.8101V114.53Z" fill="white" stroke="#263238" stroke-linecap="round" stroke-linejoin="round"/>
<path d="M186.78 77.0699L190.42 68.3299C190.481 68.1891 190.584 68.0701 190.714 67.9881C190.844 67.9061 190.996 67.8649 191.15 67.8699C191.304 67.8776 191.452 67.9326 191.573 68.0275C191.695 68.1223 191.785 68.2524 191.83 68.3999L196.24 82.9399L199.6 72.2299C199.646 72.0792 199.738 71.9469 199.864 71.8518C199.99 71.7567 200.142 71.7035 200.3 71.6999C200.455 71.7042 200.606 71.7537 200.734 71.8425C200.862 71.9314 200.961 72.0556 201.02 72.1999L202.89 77.5799H213C215.069 75.4176 216.271 72.5707 216.38 69.5799C216.399 66.7864 215.385 64.0842 213.534 61.9923C211.682 59.9005 209.123 58.5665 206.347 58.2466C203.572 57.9266 200.777 58.6433 198.497 60.2589C196.218 61.8746 194.617 64.2753 194 66.9999C193.364 64.2944 191.757 61.9167 189.483 60.319C187.209 58.7214 184.427 58.0154 181.666 58.3352C178.905 58.6549 176.358 59.9782 174.51 62.0534C172.661 64.1285 171.64 66.8108 171.64 69.5899C171.751 72.3597 172.79 75.0117 174.59 77.1199L186.78 77.0699Z" fill="#263238"/>
<path d="M202.36 79.08C202.204 79.0806 202.052 79.0327 201.925 78.9432C201.798 78.8536 201.702 78.7266 201.65 78.58L200.35 74.84L196.94 85.71C196.891 85.863 196.795 85.9968 196.666 86.092C196.537 86.1872 196.38 86.239 196.22 86.24C196.059 86.2394 195.902 86.1864 195.774 86.089C195.646 85.9915 195.553 85.8549 195.51 85.7L191 70.83L188 78.11C187.943 78.246 187.847 78.3622 187.724 78.444C187.601 78.5258 187.457 78.5696 187.31 78.57H175.8C178.27 81.33 181.35 83.77 183.65 86.04C187.13 89.48 190.54 93.04 194.09 96.36C198.64 91.87 203.22 87.36 207.73 82.87C208.98 81.62 210.34 80.38 211.6 79.08H202.36Z" fill="#263238"/>
<path d="M33.6684 302.593L38.5718 304.294L43.8774 288.998L38.9741 287.298L33.6684 302.593Z" fill="white" stroke="#263238" stroke-miterlimit="10"/>
<path d="M31.344 305.022L38.9116 307.647L39.9112 304.765L32.3435 302.14L31.344 305.022Z" fill="white" stroke="#263238" stroke-miterlimit="10"/>
<path d="M33.567 291.234L45.6885 295.438L55.3003 267.728L43.1788 263.523L33.567 291.234Z" fill="white" stroke="#263238" stroke-miterlimit="10"/>
<path d="M39.4612 279.38L48.4082 282.483L53.7139 267.187L44.7668 264.084L39.4612 279.38Z" fill="#263238" stroke="#263238" stroke-miterlimit="10"/>
<path d="M37.8783 290.468L42.7817 292.169L48.0874 276.873L43.184 275.172L37.8783 290.468Z" fill="#263238" stroke="#263238" stroke-miterlimit="10"/>
<path d="M32.7116 290.943L46.562 295.747L47.7647 292.28L33.9143 287.476L32.7116 290.943Z" fill="white" stroke="#263238" stroke-miterlimit="10"/>
<path d="M46.1344 262.946L53.3525 265.45L54.955 260.83L47.7369 258.326L46.1344 262.946Z" fill="white" stroke="#263238" stroke-miterlimit="10"/>
<path d="M42.0202 264.097L55.8706 268.901L57.0733 265.434L43.2229 260.629L42.0202 264.097Z" fill="white" stroke="#263238" stroke-miterlimit="10"/>
<path d="M51.4199 258.95L57.2199 242.21" stroke="#263238" stroke-miterlimit="10"/>
<path d="M373.9 467C402.801 467 426.23 461.717 426.23 455.2C426.23 448.683 402.801 443.4 373.9 443.4C344.999 443.4 321.57 448.683 321.57 455.2C321.57 461.717 344.999 467 373.9 467Z" fill="#263238" stroke="#263238" stroke-linecap="round" stroke-linejoin="round"/>
<path d="M333.55 188.48C333.55 188.48 326.47 192.81 326.55 194.71C326.63 196.61 323.91 231.26 323.6 235.59C323.29 239.92 319.17 248.86 318.85 252.92C318.53 256.98 319.55 261.05 320.74 262.92C321.93 264.79 326.3 270.77 326.3 270.77L338.05 252.62C338.338 248.657 338.398 244.68 338.23 240.71C338.05 232.06 333.55 188.48 333.55 188.48Z" fill="white" stroke="#263238" stroke-linecap="round" stroke-linejoin="round"/>
<path d="M378.76 102.62C378.76 102.62 366.26 101.82 359.14 110.49C352.02 119.16 353.55 132.42 353.5 136.49C353.45 140.56 341.36 152.49 342.7 157.35C344.04 162.21 347.6 162.76 346.46 166.82C345.32 170.88 337.88 173.32 338.96 178.47C340.04 183.62 343.96 190.92 343.96 190.92L415.96 191.41C415.96 191.41 418.53 183.83 415.79 178.14C413.05 172.45 409.16 170.57 409.79 167.86C410.42 165.15 413.9 158.65 412.56 153.78C411.22 148.91 406.56 147.56 406.07 138.89C405.58 130.22 404.3 115.89 397.42 108.89C390.54 101.89 378.76 102.62 378.76 102.62Z" fill="#263238" stroke="#263238" stroke-linecap="round" stroke-linejoin="round"/>
<path d="M356.62 436.73C354.409 440.991 351.725 444.989 348.62 448.65C344.02 453.8 339.56 456.51 339.71 459.22C339.86 461.93 349.9 462.46 355.21 460.56C360.52 458.66 364.38 454.87 365.45 454.56C366.52 454.25 369.51 454.56 369.58 450.76C369.65 446.96 369.07 436.14 369.07 436.14L356.62 436.73Z" fill="white" stroke="#263238" stroke-linecap="round" stroke-linejoin="round"/>
<path d="M355.19 460.56C360.51 458.66 364.36 454.87 365.43 454.56C366.5 454.25 369.49 454.56 369.56 450.76C369.56 448.76 369.45 444.76 369.31 441.49C368.523 442.966 367.359 444.206 365.935 445.084C364.512 445.963 362.882 446.448 361.21 446.49C361.21 446.49 361.11 444.59 358.21 441.35C356.34 439.23 354.45 440.9 353.35 442.35L352.46 443.69L352.39 443.82C351.236 445.523 349.973 447.149 348.61 448.69C344.01 453.84 339.55 456.55 339.7 459.26C339.85 461.97 349.88 462.46 355.19 460.56Z" fill="white" stroke="#263238" stroke-linecap="round" stroke-linejoin="round"/>
<path d="M393.67 436.71C396.357 440.986 399.473 444.976 402.97 448.62C408.12 453.76 412.87 456.46 412.97 459.17C413.07 461.88 403.13 462.42 397.61 460.53C392.09 458.64 387.83 454.85 386.74 454.58C385.65 454.31 382.67 454.58 382.2 450.8C381.73 447.02 381.14 436.18 381.14 436.18L393.67 436.71Z" fill="white" stroke="#263238" stroke-linecap="round" stroke-linejoin="round"/>
<path d="M397.65 460.53C392.14 458.64 387.87 454.85 386.78 454.58C385.69 454.31 382.71 454.58 382.24 450.8C381.99 448.8 381.71 444.8 381.5 441.52C382.425 442.986 383.695 444.203 385.2 445.065C386.704 445.926 388.397 446.405 390.13 446.46C390.13 446.46 390.03 444.56 392.56 441.31C394.21 439.2 396.28 440.86 397.56 442.31C397.89 442.75 398.23 443.19 398.56 443.65L398.65 443.78C399.994 445.48 401.429 447.106 402.95 448.65C408.1 453.79 412.85 456.49 412.95 459.2C413.05 461.91 403.17 462.42 397.65 460.53Z" fill="white" stroke="#263238" stroke-linecap="round" stroke-linejoin="round"/>
<path d="M334.87 293.8C334.87 293.8 336.54 350.11 338.76 361.21C340.98 372.31 350.89 435.93 350.89 435.93C353.919 437.212 357.181 437.852 360.47 437.81H371.3L372.3 390.43L372.67 321.66L378.1 438.07C378.1 438.07 393.02 438.6 394.63 438.33C396.24 438.06 397.58 437.79 397.58 437.79L407.17 364.14L412.66 315.14L412.96 295.65C412.96 295.65 367.12 294.06 353.8 292.98C340.48 291.9 335 291.63 335 291.63L334.87 293.8Z" fill="#0B8FAC" stroke="#263238" stroke-linecap="round" stroke-linejoin="round"/>
<path d="M396.77 393.22C396.65 394.16 396.53 395.03 396.39 395.83" stroke="#263238" stroke-linecap="round" stroke-linejoin="round"/>
<path d="M398 325.43C398 325.43 398.93 365.55 397.3 387.33" stroke="#263238" stroke-linecap="round" stroke-linejoin="round"/>
<path d="M348.85 322.21C348.85 322.21 350 348.75 351.14 354.7" stroke="#263238" stroke-linecap="round" stroke-linejoin="round"/>
<path d="M391.58 305.3V325.56C394.176 326.259 396.83 326.718 399.51 326.93C403.62 327.2 411.29 326.93 411.29 326.93L411.84 319.26L391.58 305.3Z" fill="#263238" stroke="#263238" stroke-linecap="round" stroke-linejoin="round"/>
<path d="M335.72 320.9C335.72 320.9 346.13 324.19 350.51 324.46C354.89 324.73 358.99 325.28 358.99 325.28L358.45 319.81L335.17 317.62L335.72 320.9Z" fill="#263238" stroke="#263238" stroke-linecap="round" stroke-linejoin="round"/>
<path d="M367.32 167.07L359.15 176.28L336.49 192.81L341.32 293C341.32 293 359.38 297.86 374.88 299.21C390.38 300.56 410.31 297.01 410.31 297.01L407.38 192.01C407.38 192.01 398.56 179.01 394.04 175.5C389.52 171.99 387.45 168.74 381.46 168.2C375.47 167.66 367.32 167.07 367.32 167.07Z" fill="#0B8FAC" stroke="#263238" stroke-linecap="round" stroke-linejoin="round"/>
<path d="M357.84 172L333.55 188.53L337.36 249.44L336.07 255.56L325.86 267.32L330.21 287.98L328.27 317.13C328.27 317.13 337.92 320.38 344.46 321.18C349.329 321.702 354.223 321.972 359.12 321.99L359.96 282.19C359.96 282.19 363.19 216.12 363.57 213.19C363.95 210.26 367.32 167.19 367.32 167.19L357.84 172Z" fill="white" stroke="#263238" stroke-linecap="round" stroke-linejoin="round"/>
<path d="M358.23 174.49L346.47 203.98L359.16 209.25L347.18 211.43L357.79 253" stroke="#263238" stroke-linecap="round" stroke-linejoin="round"/>
<path d="M365.28 159.22C365.28 159.22 369.5 187.37 372.82 193.87C376.14 200.37 377.08 202.53 377.08 202.53C377.08 202.53 384.3 180.59 385.75 177.34C387.2 174.09 388.75 162.45 388.75 162.45C388.75 162.45 374.36 167.06 365.28 159.22Z" fill="white" stroke="#263238" stroke-linecap="round" stroke-linejoin="round"/>
<path d="M365.28 159.22C365.28 159.22 365.66 161.78 366.28 165.53C368.39 167.14 373.98 171.12 378.11 171.33C381.26 171.49 385.26 169.45 387.92 167.82C388.4 164.87 388.73 162.45 388.73 162.45C388.73 162.45 374.36 167.06 365.28 159.22Z" fill="#263238" stroke="#263238" stroke-linecap="round" stroke-linejoin="round"/>
<path d="M359.55 139.76C359.55 139.76 356.67 135.66 354.73 139.76C352.79 143.86 357.73 149.93 359.11 150.76C363.03 153.09 361.99 148.76 361.99 148.76L359.55 139.76Z" fill="white" stroke="#263238" stroke-linecap="round" stroke-linejoin="round"/>
<path d="M395.32 141.53C395.32 141.53 397.75 137.29 400.13 141.29C402.51 145.29 398.22 151.58 396.94 152.47C393.28 155 393.86 150.66 393.86 150.66L395.32 141.53Z" fill="white" stroke="#263238" stroke-linecap="round" stroke-linejoin="round"/>
<path d="M358.87 136.14C358.87 136.14 369.31 133.7 374.57 130.59C377.792 128.644 380.602 126.086 382.84 123.06C382.84 123.06 387.36 131.6 391.34 135.06C395.32 138.52 396.15 138.72 396.15 138.72C396.15 138.72 394.24 153.67 392.08 158.87C389.92 164.07 382.87 169.13 376.29 167.67C372.55 166.85 366.07 164.15 364.19 159.6C362.31 155.05 358.87 136.14 358.87 136.14Z" fill="white" stroke="#263238" stroke-linecap="round" stroke-linejoin="round"/>
<path d="M385.51 147.63C382.27 147.71 371.42 147.73 365.82 144.35C363.575 143.043 361.474 141.505 359.55 139.76C359.75 140.76 359.99 142.01 360.25 143.31L361.47 144.2L364.53 155.76L363.1 156.07C363.401 157.252 363.765 158.417 364.19 159.56C366.07 164.11 372.55 166.81 376.29 167.63C382.86 169.08 389.89 164.05 392.07 158.86C391.555 157.852 391.403 156.697 391.64 155.59C392.27 152.32 393.05 146.59 393.05 146.59L395.28 144.59C395.4 143.86 395.5 143.16 395.6 142.52C392.9 144.39 387.84 147.57 385.51 147.63Z" fill="#0B8FAC" stroke="#263238" stroke-linecap="round" stroke-linejoin="round"/>
<path d="M373.6 142.8C373.6 142.8 370.11 138.56 365.53 138.95" stroke="#263238" stroke-linecap="round" stroke-linejoin="round"/>
<path d="M382.59 143.64C383.703 142.469 385.087 141.589 386.619 141.077C388.151 140.564 389.786 140.435 391.38 140.7" stroke="#263238" stroke-linecap="round" stroke-linejoin="round"/>
<path d="M363.52 136.83C363.52 136.83 368.52 134.83 372.95 135.77" stroke="#263238" stroke-linecap="round" stroke-linejoin="round"/>
<path d="M383 136.86C384.317 136.187 385.81 135.935 387.275 136.139C388.74 136.343 390.107 136.993 391.19 138" stroke="#263238" stroke-linecap="round" stroke-linejoin="round"/>
<path d="M370.24 141.41C370.263 141.564 370.255 141.72 370.217 141.871C370.179 142.022 370.111 142.163 370.018 142.288C369.925 142.412 369.809 142.517 369.675 142.596C369.542 142.676 369.394 142.728 369.24 142.75C368.927 142.715 368.639 142.562 368.435 142.322C368.231 142.083 368.125 141.774 368.14 141.46C368.116 141.306 368.123 141.149 368.16 140.998C368.198 140.847 368.265 140.705 368.358 140.58C368.451 140.455 368.569 140.35 368.703 140.271C368.837 140.192 368.986 140.141 369.14 140.12C369.452 140.157 369.738 140.311 369.942 140.55C370.146 140.789 370.252 141.096 370.24 141.41Z" fill="#263238"/>
<path d="M388.35 142.71C388.377 142.864 388.372 143.022 388.336 143.175C388.299 143.327 388.232 143.47 388.139 143.596C388.045 143.721 387.927 143.826 387.791 143.904C387.656 143.982 387.506 144.032 387.35 144.05C387.038 144.017 386.75 143.866 386.546 143.628C386.341 143.391 386.236 143.083 386.25 142.77C386.223 142.616 386.228 142.458 386.264 142.306C386.301 142.153 386.368 142.01 386.461 141.885C386.555 141.759 386.673 141.654 386.809 141.576C386.944 141.498 387.095 141.448 387.25 141.43C387.562 141.463 387.85 141.614 388.054 141.852C388.259 142.09 388.365 142.397 388.35 142.71Z" fill="#263238"/>
<path d="M415.28 182.74C415.28 182.74 421.11 185.44 423.28 189.74C425.45 194.04 442.8 240.63 442.72 244.15C442.64 247.67 436.9 251.73 431.52 252.28C426.14 252.83 418.3 243.08 417.13 241.46C415.96 239.84 415.75 220.88 415.75 220.88L415.28 182.74Z" fill="white" stroke="#263238" stroke-linecap="round" stroke-linejoin="round"/>
<path d="M387.8 170.3L390.64 263.44L391.64 322.19C397.085 323.529 402.663 324.25 408.27 324.34C412.946 324.438 417.596 323.609 421.95 321.9C421.95 321.9 420.25 285.35 419.95 279.39C419.65 273.43 417.67 262.06 417.67 262.06L415.31 182.74C415.31 182.74 393.34 172.46 387.8 170.3Z" fill="white" stroke="#263238" stroke-linecap="round" stroke-linejoin="round"/>
<path d="M394.04 175.44L404.11 208.29L394.93 210.78L403.86 215.11L392.72 250.5" fill="white"/>
<path d="M394.04 175.44L404.11 208.29L394.93 210.78L403.86 215.11L392.72 250.5" stroke="#263238" stroke-linecap="round" stroke-linejoin="round"/>
<path d="M401.06 205.49L388.57 265.33C388.57 265.33 397.11 268.03 403.35 268.33C409.59 268.63 422.59 268.59 422.59 268.59L435.59 212.81C435.59 212.81 410 210.36 401.06 205.49Z" fill="#263238" stroke="#263238" stroke-linecap="round" stroke-linejoin="round"/>
<path d="M405.41 261.26L405.82 242.56L415.73 244.65C415.73 244.65 409.18 259.08 405.41 261.26Z" fill="white" stroke="#263238" stroke-linecap="round" stroke-linejoin="round"/>
<path d="M413 235.8C413 235.8 410.36 232.02 409.51 231.2C408.66 230.38 404.46 227.96 403.65 227.96C402.84 227.96 398.49 227.69 397.65 227.69C396.81 227.69 395.86 229.59 396.72 230.4C397.58 231.21 400.57 231.48 400.57 231.48L402.62 234.48L393.37 233.67C393.37 233.67 391.83 235.3 392.18 236.67C392.442 237.598 392.776 238.504 393.18 239.38C393.145 241.368 393.249 243.356 393.49 245.33C393.85 246.96 395.49 247.5 397.74 248.85C399.99 250.2 407.52 249.39 407.52 249.39H411L413 235.8Z" fill="white" stroke="#263238" stroke-linecap="round" stroke-linejoin="round"/>
<path d="M435.55 237.68L411.55 234.45C411.55 234.45 409.68 249.89 407.79 255.03C405.9 260.17 405.41 261.26 405.41 261.26C405.41 261.26 430.56 260.7 436.49 260.16C442.42 259.62 445.75 256.09 445.49 251.22C445.23 246.35 442.26 241.47 442.26 241.47" fill="white"/>
<path d="M435.55 237.68L411.55 234.45C411.55 234.45 409.68 249.89 407.79 255.03C405.9 260.17 405.41 261.26 405.41 261.26C405.41 261.26 430.56 260.7 436.49 260.16C442.42 259.62 445.75 256.09 445.49 251.22C445.23 246.35 442.26 241.47 442.26 241.47" stroke="#263238" stroke-linecap="round" stroke-linejoin="round"/>
<path d="M335.47 254.54C335.47 254.54 341.07 258.05 342.47 259.14C343.87 260.23 343.99 267.26 344.88 268.61C345.77 269.96 344.72 270.78 343.1 270.78C341.48 270.78 339.03 265.64 339.03 265.64L338.93 263.74L327.49 267.54L324.49 262.4C324.49 262.4 327.89 254.54 335.47 254.54Z" fill="white" stroke="#263238" stroke-linecap="round" stroke-linejoin="round"/>
<path d="M252.13 467C281.031 467 304.46 461.717 304.46 455.2C304.46 448.683 281.031 443.4 252.13 443.4C223.229 443.4 199.8 448.683 199.8 455.2C199.8 461.717 223.229 467 252.13 467Z" fill="#263238" stroke="#263238" stroke-linecap="round" stroke-linejoin="round"/>
<path d="M293 174.79C293 174.79 299.86 209.22 301.08 215.59C302.3 221.96 304.54 237.1 307.08 243.74C309.62 250.38 308.79 258.88 307.52 261.27C306.246 263.347 304.783 265.302 303.15 267.11L294.63 256C294.63 256 289.56 201.56 289.37 193.85C289.18 186.14 293 174.79 293 174.79Z" fill="white" stroke="#263238" stroke-linecap="round" stroke-linejoin="round"/>
<path d="M297.52 254.64C297.52 254.64 302.92 258.01 303.87 259.44C304.82 260.87 305.5 262.69 304.76 264.24C304.02 265.79 299.99 270.47 298.97 271.38C297.95 272.29 297.09 268.66 296.97 265.54C296.85 262.42 297.52 254.64 297.52 254.64Z" fill="white" stroke="#263238" stroke-linecap="round" stroke-linejoin="round"/>
<path d="M268.48 443.44C268.48 443.44 285.41 451.67 286.48 453.27C287.55 454.87 283.69 457 273.6 457C263.51 457 263.21 455.67 259.2 454.61C255.19 453.55 247.2 454.34 246.12 451.95C245.04 449.56 246.92 441.33 246.92 441.33L268.48 443.44Z" fill="white" stroke="#263238" stroke-linecap="round" stroke-linejoin="round"/>
<path d="M246 447.69C246 447.69 260 456.19 258.77 459.11C257.54 462.03 247.42 462.03 242.09 461.23C236.76 460.43 225.43 453.23 224.83 450.61C224.23 447.99 225.73 443.97 233.94 443.18C242.15 442.39 246 447.69 246 447.69Z" fill="white" stroke="#263238" stroke-linecap="round" stroke-linejoin="round"/>
<path d="M288.5 308.8C288.5 308.8 280.5 370.41 279.11 379.44C277.72 388.47 273.31 402.81 270.93 413.7C269.581 420.105 268.579 426.577 267.93 433.09C267.687 434.942 267.73 436.821 268.06 438.66C268.4 441.32 268.45 443.44 268.45 443.44C264.889 444.333 261.265 444.955 257.61 445.3C253.1 445.57 246.99 445.57 246.99 445.57L244.99 428.31C244.99 428.31 246.48 402.81 247.36 395.38C248.24 387.95 249.18 329.52 249.14 327.92C249.1 326.32 248.75 312.25 248.75 312.25L276 309.33C276 309.33 279.72 298.71 285.31 299.24C290.9 299.77 288.5 308.8 288.5 308.8Z" fill="white" stroke="#263238" stroke-linecap="round" stroke-linejoin="round"/>
<path d="M285.35 299.24C279.76 298.71 276.04 309.33 276.04 309.33L248.76 312.25C248.76 312.25 248.85 315.99 248.94 319.83C251.85 320.09 254.54 320.24 256.84 320.24C265.58 320.226 274.313 319.735 283 318.77L284.17 306.53L286 319L287.26 318.59C288.04 312.65 288.54 308.78 288.54 308.78C288.54 308.78 290.94 299.77 285.35 299.24Z" fill="#263238" stroke="#263238" stroke-linecap="round" stroke-linejoin="round"/>
<path d="M220.3 310.66C220.3 310.66 220.3 311.04 220.36 311.73C220.73 318.99 222.93 361.06 223.6 368.82C224.35 377.32 220.6 386.61 220.79 394.31C220.98 402.01 222.79 443.71 222.79 443.71L224.79 450.61C224.79 450.61 229.49 447.43 234 447.43C238.51 447.43 246 447.69 246 447.69C246 447.69 246.39 442.11 246.35 440.26C246.31 438.41 246.14 431.76 246.14 431.76C246.14 431.76 253.77 396.97 254.23 394.05C254.69 391.13 260.61 340.67 260.57 339.05C260.53 337.43 261.82 314.88 261.82 314.88L220.3 310.66Z" fill="white" stroke="#263238" stroke-linecap="round" stroke-linejoin="round"/>
<path d="M261.54 320.19C261.71 317.11 261.83 314.91 261.83 314.91L220.3 310.66C220.3 310.66 220.3 311.04 220.36 311.73C220.36 312.61 220.47 314 220.57 315.73C230.28 317.47 247.13 320.21 256.84 320.21C258.44 320.24 260 320.22 261.54 320.19Z" fill="#263238" stroke="#263238" stroke-linecap="round" stroke-linejoin="round"/>
<path d="M250.9 147.6C250.9 147.6 246.51 148.34 244.84 150.3C243.166 152.207 241.661 154.254 240.34 156.42C240.11 157.16 214.29 172.83 214.29 172.83L216.15 247.55C216.15 247.55 216.92 259.06 215.55 262.98C213.236 270.688 212.113 278.703 212.22 286.75C212.46 296.3 213.08 311.75 213.08 311.75C213.08 311.75 242.63 317.63 256.84 317.63C265.58 317.609 274.313 317.112 283 316.14L284.17 303.89L285.95 316.39L292.02 314.39L297.02 277.39C297.02 277.39 300.5 269.55 300.46 267.83C300.42 266.11 301.34 263.91 300.33 262.44C299.32 260.97 297.52 258.03 297.52 258.03C297.52 258.03 293 177 293 174.79C293 172.58 279.63 159.61 278.64 159.12C277.65 158.63 271.55 149.56 263.64 147.12C255.73 144.68 250.9 147.6 250.9 147.6Z" fill="white" stroke="#263238" stroke-linecap="round" stroke-linejoin="round"/>
<path d="M242.85 158.87L239.89 185.78L252.05 191.43L249.01 200.56L279.42 254" stroke="#263238" stroke-linecap="round" stroke-linejoin="round"/>
<path d="M276.82 161.89L285.94 183.18L282.03 188.39L288.55 197.51L285.94 256.17" stroke="#263238" stroke-linecap="round" stroke-linejoin="round"/>
<path d="M249.77 151.28C249.992 156.53 250.944 161.723 252.6 166.71C255.23 174.06 272.66 224.77 272.66 224.77L283.93 264.45C283.93 264.45 282.44 224.03 282.4 222.32C282.36 220.61 273.86 164.5 273.86 164.5C273.86 164.5 272.41 155.44 270.12 152.01C267.83 148.58 252.48 142.21 249.77 151.28Z" fill="#0B8FAC" stroke="#263238" stroke-linecap="round" stroke-linejoin="round"/>
<path d="M248.69 147.36C248.69 147.36 241.6 148.09 242.85 158.87C244.1 169.65 245.75 177 245.75 177" stroke="#263238" stroke-width="2" stroke-linecap="round" stroke-linejoin="round"/>
<path d="M244.88 191.21C244.88 191.21 247.88 203.7 249.93 207.13C251.98 210.56 258.18 213.99 262.59 213.99" stroke="#263238" stroke-linecap="round" stroke-linejoin="round"/>
<path d="M254.36 188.27C254.36 188.27 257.66 202.72 258.21 205.42C258.76 208.12 256.94 213.25 253.88 218.42" stroke="#263238" stroke-linecap="round" stroke-linejoin="round"/>
<path d="M253 220.13C252.685 219.957 252.452 219.666 252.35 219.321C252.249 218.977 252.289 218.606 252.46 218.29L252.81 217.65C252.896 217.497 253.012 217.363 253.15 217.255C253.289 217.148 253.448 217.069 253.617 217.023C253.787 216.977 253.963 216.966 254.137 216.989C254.311 217.013 254.479 217.071 254.63 217.16C254.945 217.333 255.178 217.623 255.281 217.968C255.384 218.312 255.348 218.682 255.18 219L254.83 219.63C254.744 219.784 254.628 219.92 254.489 220.028C254.349 220.137 254.19 220.217 254.02 220.264C253.849 220.31 253.671 220.322 253.496 220.299C253.321 220.276 253.153 220.219 253 220.13Z" fill="#263238"/>
<path d="M264.23 214.26C264.23 214.436 264.195 214.611 264.126 214.773C264.057 214.936 263.956 215.082 263.829 215.205C263.702 215.327 263.551 215.422 263.387 215.485C263.222 215.548 263.046 215.577 262.87 215.57H262.14C261.78 215.562 261.438 215.413 261.187 215.155C260.936 214.897 260.797 214.55 260.8 214.19C260.798 214.014 260.833 213.84 260.9 213.678C260.968 213.515 261.068 213.369 261.195 213.246C261.321 213.124 261.47 213.028 261.635 212.965C261.799 212.902 261.974 212.873 262.15 212.88H262.88C263.24 212.89 263.582 213.04 263.834 213.298C264.085 213.555 264.227 213.9 264.23 214.26Z" fill="#263238"/>
<path d="M244.9 192.19L243.22 181.54C243.032 180.442 243.27 179.314 243.885 178.385C244.5 177.456 245.446 176.796 246.53 176.54C247.698 176.274 248.924 176.472 249.949 177.091C250.975 177.71 251.721 178.703 252.03 179.86L254.9 190.46" stroke="#263238" stroke-width="2" stroke-linecap="round" stroke-linejoin="round"/>
<path d="M284.429 199.388C286.836 199.147 288.562 196.702 288.284 193.926C288.006 191.151 285.829 189.097 283.422 189.338C281.015 189.579 279.289 192.024 279.567 194.8C279.845 197.575 282.022 199.629 284.429 199.388Z" fill="white" stroke="#263238" stroke-linecap="round" stroke-linejoin="round"/>
<path d="M272.13 151.85C272.13 151.85 281.76 165.4 284.83 193.02" stroke="#263238" stroke-width="2" stroke-linecap="round" stroke-linejoin="round"/>
<path d="M285.086 196.218C286.4 196.096 287.35 194.753 287.207 193.218C287.065 191.684 285.883 190.539 284.569 190.662C283.255 190.784 282.305 192.127 282.448 193.661C282.59 195.195 283.771 196.34 285.086 196.218Z" fill="white" stroke="#263238" stroke-linecap="round" stroke-linejoin="round"/>
<path d="M299.16 256.75C298.569 258.58 298.085 260.444 297.71 262.33C297.71 263.13 297.52 265.52 295.65 264.98C293.78 264.44 294.34 254.89 294.58 253.83C294.82 252.77 299.37 256.2 299.37 256.2" fill="white"/>
<path d="M299.16 256.75C298.569 258.58 298.085 260.444 297.71 262.33C297.71 263.13 297.52 265.52 295.65 264.98C293.78 264.44 294.34 254.89 294.58 253.83C294.82 252.77 299.37 256.2 299.37 256.2" stroke="#263238" stroke-linecap="round" stroke-linejoin="round"/>
<path d="M238.46 248.29C240.123 249.206 241.982 249.71 243.88 249.76C246.82 249.76 252.19 248.76 254.16 249.27C256.13 249.78 261.16 256.12 261.16 256.12C261.16 256.12 262.66 257.59 261.95 258.33C261.24 259.07 259.79 260.33 258.79 259.55C257.79 258.77 252.79 254.65 252.79 254.65L240.18 259.8L235 257.1L238.46 248.29Z" fill="white" stroke="#263238" stroke-linecap="round" stroke-linejoin="round"/>
<path d="M219.15 171.12C219.15 171.12 210.84 172.12 209.43 174.3C208.02 176.48 185.25 226.48 185.3 228.69C185.35 230.9 230.83 266.69 230.83 266.69L240.65 248L216.08 225.22L226.74 200.48" fill="white"/>
<path d="M219.15 171.12C219.15 171.12 210.84 172.12 209.43 174.3C208.02 176.48 185.25 226.48 185.3 228.69C185.35 230.9 230.83 266.69 230.83 266.69L240.65 248L216.08 225.22L226.74 200.48" stroke="#263238" stroke-linecap="round" stroke-linejoin="round"/>
<path d="M234.48 275.72L258.5 276.21L258.38 261.27" stroke="#263238" stroke-linecap="round" stroke-linejoin="round"/>
<path d="M240.21 259.8L233.86 262.17" stroke="#263238" stroke-linecap="round" stroke-linejoin="round"/>
<path d="M247.45 136.82C247.45 136.82 250.18 158.14 251.98 161.32C253.78 164.5 266.58 177.24 266.58 177.24C266.58 177.24 270.58 162.55 271.03 159.12C271.48 155.69 271.83 141.97 271.83 141.97L247.4 135.11L247.45 136.82Z" fill="white" stroke="#263238" stroke-linecap="round" stroke-linejoin="round"/>
<path d="M247.45 136.82C247.45 136.82 247.77 139.32 248.26 142.73C250.175 144.513 252.362 145.978 254.74 147.07C257.89 148.46 266.29 149.24 271.6 148.62C271.74 145.03 271.83 141.97 271.83 141.97L247.4 135.11L247.45 136.82Z" fill="#263238" stroke="#263238" stroke-linecap="round" stroke-linejoin="round"/>
<path d="M240.37 118.21C240.37 118.21 237.1 114.78 235.48 118.69C233.86 122.6 237.48 128.49 239.41 128.74C240.555 128.889 241.719 128.804 242.83 128.49C242.83 128.49 244.2 134.13 245.46 135.84C247.94 138.976 251.117 141.489 254.74 143.18C259.2 145.18 274.13 145.89 276.02 143.18C277.91 140.47 277.8 126.03 277.77 124.81C277.74 123.59 277.53 106.13 277.53 106.13C277.53 106.13 278.87 100.07 277.05 95.9001C275.23 91.7301 256.96 85.9001 252.37 88.3101C247.78 90.7201 242.49 94.9201 242.13 100.31C241.77 105.7 241.99 114.52 241.99 114.52L240.37 118.21Z" fill="white" stroke="#263238" stroke-linecap="round" stroke-linejoin="round"/>
<path d="M267.37 110.61C267.37 110.61 270.42 124.61 269.72 126.29C269.02 127.97 266.83 128 264.09 126.53C261.35 125.06 262.78 123.1 262.78 123.1" stroke="#263238" stroke-linecap="round" stroke-linejoin="round"/>
<path d="M256.75 126.78C256.75 126.78 258.07 130.45 260.52 130.7C262.97 130.95 269.12 131.43 269.12 131.43" stroke="#263238" stroke-linecap="round" stroke-linejoin="round"/>
<path d="M248 111.1L248.39 116.98C248.39 116.98 250.63 118.21 255.77 118.21C260.91 118.21 262.6 116.98 262.6 116.98L262.46 111.1C262.46 111.1 255 106.69 248 111.1Z" stroke="#263238" stroke-linecap="round" stroke-linejoin="round"/>
<path d="M267.39 111.1L269.25 117.23C269.25 117.23 270.01 118.23 275.16 118.23C280.31 118.23 282 117 282 117L281.85 111.12C281.85 111.12 274.38 106.69 267.39 111.1Z" stroke="#263238" stroke-linecap="round" stroke-linejoin="round"/>
<path d="M262.49 111.1H267.39" stroke="#263238" stroke-linecap="round" stroke-linejoin="round"/>
<path d="M248.03 111.1L238.37 116.74" stroke="#263238" stroke-linecap="round" stroke-linejoin="round"/>
<path d="M250.41 108.16C250.41 108.16 253.03 105.22 258.97 107.67" stroke="#263238" stroke-linecap="round" stroke-linejoin="round"/>
<path d="M268.29 108.16C269.172 107.452 270.236 107.008 271.36 106.879C272.483 106.75 273.62 106.941 274.64 107.43" stroke="#263238" stroke-linecap="round" stroke-linejoin="round"/>
<path d="M256.67 113.8C256.67 114.88 256.28 115.8 255.74 115.8C255.2 115.8 254.74 114.92 254.74 113.8C254.74 112.68 255.13 111.8 255.68 111.8C256.23 111.8 256.65 112.71 256.67 113.8Z" fill="#263238"/>
<path d="M272.35 113.55C272.35 114.63 271.96 115.55 271.42 115.55C270.88 115.55 270.42 114.67 270.42 113.55C270.42 112.43 270.81 111.55 271.35 111.55C271.89 111.55 272.32 112.47 272.35 113.55Z" fill="#263238"/>
<path d="M255.57 90.8901C255.57 90.8901 257.93 96.1001 255 98.0001C254.096 98.5233 253.07 98.7988 252.025 98.7988C250.98 98.7988 249.954 98.5233 249.05 98.0001C249.829 99.0761 250.264 100.363 250.298 101.691C250.332 103.019 249.963 104.326 249.24 105.44C247.804 107.833 246.128 110.075 244.24 112.13C244.24 112.13 244.77 118.46 243.67 119.2C242.57 119.94 239.57 118.83 239.52 116.97C239.47 115.11 238.27 111.39 238.22 109.53C238.17 107.67 237.31 102.83 237.31 102.83C237.31 102.83 229.79 99.4801 233.78 95.3901C237.77 91.3001 246.24 87.9501 246.24 87.9501C246.24 87.9501 246.43 80.5101 251.58 78.2801C256.73 76.0501 267.81 72.7001 267.9 76.4201C268.041 78.3345 267.697 80.2537 266.9 82.0001C266.9 82.0001 276.19 81.6301 282.67 88.0001C289.15 94.3701 288.93 100.28 285.58 100.28C282.23 100.28 281.14 101.02 281.14 101.02C281.14 101.02 287.55 104.74 284.25 106.6C280.95 108.46 277.55 106.23 277.55 106.23C277.55 106.23 278.97 103.63 274.79 100.23C270.61 96.8301 255.57 90.8901 255.57 90.8901Z" fill="#263238" stroke="#263238" stroke-linecap="round" stroke-linejoin="round"/>
<path d="M128.68 467C157.581 467 181.01 461.717 181.01 455.2C181.01 448.683 157.581 443.4 128.68 443.4C99.779 443.4 76.3501 448.683 76.3501 455.2C76.3501 461.717 99.779 467 128.68 467Z" fill="#263238" stroke="#263238" stroke-linecap="round" stroke-linejoin="round"/>
<path d="M163.14 211.13V220.69L177.04 227.06C177.04 227.06 178.49 220.69 177.33 209.39L163.14 211.13Z" fill="#999999" stroke="#263238" stroke-linecap="round" stroke-linejoin="round"/>
<path d="M94.1499 440.54C90.9684 443.271 87.9624 446.2 85.1499 449.31C81.1499 453.82 80.3699 458.31 84.0899 460.46C87.8099 462.61 93.6499 462.05 100.02 458.07C106.39 454.09 106.13 452.49 109.85 451.17C113.57 449.85 115.96 447.17 115.96 442.93C115.96 438.69 102.41 438.15 99.4899 437.93C96.5699 437.71 94.1499 440.54 94.1499 440.54Z" fill="white" stroke="#263238" stroke-linecap="round" stroke-linejoin="round"/>
<path d="M115.93 442.93C115.93 442.93 109.93 445.59 107.02 448.01C104.11 450.43 98.3099 459.14 91.5299 459.14C88.0772 459.143 84.6818 458.258 81.6699 456.57C81.6743 457.375 81.8995 458.163 82.3209 458.849C82.7423 459.535 83.3438 460.092 84.0599 460.46C87.7799 462.58 93.6199 462.05 99.9899 458.07C106.36 454.09 106.1 452.49 109.82 451.17C113.54 449.85 115.93 447.18 115.93 442.93Z" stroke="#263238" stroke-linecap="round" stroke-linejoin="round"/>
<path d="M161.54 440.54C164.722 443.271 167.727 446.2 170.54 449.31C174.54 453.82 175.32 458.31 171.6 460.46C167.88 462.61 162.04 462.05 155.67 458.07C149.3 454.09 149.56 452.49 145.84 451.17C142.12 449.85 139.73 447.17 139.73 442.93C139.73 438.69 153.28 438.15 156.2 437.93C159.12 437.71 161.54 440.54 161.54 440.54Z" fill="white" stroke="#263238" stroke-linecap="round" stroke-linejoin="round"/>
<path d="M139.76 442.93C139.76 442.93 145.76 445.59 148.67 448.01C151.58 450.43 157.38 459.14 164.16 459.14C167.612 459.143 171.008 458.258 174.02 456.57C174.015 457.375 173.79 458.163 173.369 458.849C172.947 459.535 172.346 460.092 171.63 460.46C167.91 462.58 162.07 462.05 155.7 458.07C149.33 454.09 149.59 452.49 145.87 451.17C142.15 449.85 139.76 447.18 139.76 442.93Z" stroke="#263238" stroke-linecap="round" stroke-linejoin="round"/>
<path d="M86.4497 289.7C86.4497 289.7 88.0397 349.45 88.8397 358.22C89.6397 366.99 91.9997 386.9 91.9997 388C91.9997 389.1 93.3197 433.15 93.3197 433.15L90.9297 437.15L91.7297 442.73L102.35 444.85C107.66 445.91 114.57 447.51 115.63 446.45C116.69 445.39 116.96 443.26 117.49 440.34C118.02 437.42 119.08 432.1 118.02 427.86C116.96 423.62 119.35 378.46 119.62 377.4C119.89 376.34 126 332.72 126 332.72C126 332.72 130 368.58 132.9 379.46C135.8 390.34 134.76 406.55 135.82 412.92C136.88 419.29 139.01 440.81 139.28 442.4C139.55 443.99 140.07 446.4 140.07 446.4C140.07 446.4 153.35 444.54 155.74 443.47C158.163 442.577 160.65 441.869 163.18 441.35C163.18 441.35 163.97 426.21 162.91 420.1C162.137 415.807 161.693 411.461 161.58 407.1C161.58 405.24 162.91 346.29 162.91 346.29L161.58 289.19C161.58 289.19 125.73 292.91 111.92 290.25C98.1097 287.59 86.7197 286 86.7197 286L86.4497 289.7Z" fill="#0B8FAC" stroke="#263238" stroke-linecap="round" stroke-linejoin="round"/>
<path d="M111.94 290.23C98.1297 287.58 86.7197 286 86.7197 286L86.4497 289.71C86.4497 289.71 86.5397 293.14 86.6897 298.46C93.0197 300.23 105.88 303.34 118.31 303.34C131.45 303.34 152.38 299.34 161.8 297.43L161.6 289.18C161.6 289.18 125.75 292.89 111.94 290.23Z" fill="#263238" stroke="#263238" stroke-linecap="round" stroke-linejoin="round"/>
<path d="M158.07 424.79C158.24 426.62 158.35 427.67 158.35 427.67" stroke="#263238" stroke-linecap="round" stroke-linejoin="round"/>
<path d="M154 303.72C154 303.72 155 355.04 155 374.41C155 387.81 156.62 408.15 157.62 419.41" stroke="#263238" stroke-linecap="round" stroke-linejoin="round"/>
<path d="M100.25 300.82L102.67 356.5" stroke="#263238" stroke-linecap="round" stroke-linejoin="round"/>
<path d="M102.18 360.85V370.05" stroke="#263238" stroke-linecap="round" stroke-linejoin="round"/>
<path d="M114.77 149.44C113.463 149.447 112.176 149.765 111.016 150.369C109.856 150.972 108.856 151.843 108.1 152.91C106.446 155.092 104.606 157.126 102.6 158.99L78.8501 171.74L81.1701 262.4L82.0401 293.4C82.0401 293.4 100.28 299.48 117.66 299.48C135.04 299.48 166.03 292.48 166.03 292.48C166.03 292.48 163.43 171.7 164.3 171.7C165.17 171.7 147.21 156.1 139.1 152C130.99 147.9 114.77 149.44 114.77 149.44Z" fill="#0B8FAC" stroke="#263238" stroke-linecap="round" stroke-linejoin="round"/>
<path d="M108 160.4C108 160.4 117.2 177.35 121.08 185.1C124.96 192.85 132.2 204 132.2 204L144.31 171.56" stroke="#263238" stroke-linecap="round" stroke-linejoin="round"/>
<path d="M114.8 267.91L114.33 254.38L87 252.79C87 252.79 87.27 272.71 87.8 273.79" stroke="#263238" stroke-linecap="round" stroke-linejoin="round"/>
<path d="M115.13 277.49L115 273.69" stroke="#263238" stroke-linecap="round" stroke-linejoin="round"/>
<path d="M147.53 275.36L146.73 253.06C146.73 253.06 156.29 253.85 164.26 248.54" stroke="#263238" stroke-linecap="round" stroke-linejoin="round"/>
<path d="M106.55 199.92C107.39 202.57 109.95 204.13 112.26 203.39C114.57 202.65 115.74 199.9 114.89 197.25C114.04 194.6 111.49 193.04 109.18 193.78C106.87 194.52 105.7 197.27 106.55 199.92Z" stroke="#263238" stroke-linecap="round" stroke-linejoin="round"/>
<path d="M106.82 153.52C106.82 153.52 103.75 165.32 110.73 197.35" stroke="#263238" stroke-width="2" stroke-linecap="round" stroke-linejoin="round"/>
<path d="M112.88 198.45C112.674 198.865 112.354 199.212 111.956 199.45C111.559 199.688 111.102 199.808 110.639 199.794C110.176 199.78 109.727 199.633 109.345 199.372C108.963 199.11 108.664 198.744 108.483 198.318C108.303 197.891 108.249 197.422 108.327 196.965C108.405 196.509 108.613 196.085 108.925 195.743C109.238 195.401 109.642 195.156 110.089 195.036C110.537 194.917 111.009 194.929 111.45 195.07C112.085 195.332 112.592 195.834 112.859 196.466C113.127 197.099 113.134 197.812 112.88 198.45Z" stroke="#263238" stroke-linecap="round" stroke-linejoin="round"/>
<path d="M163.14 170C163.14 170 167.48 173.19 167.77 174.35C168.06 175.51 182.83 210.84 182.83 210.84L161.4 214L161.69 193.14" fill="#0B8FAC"/>
<path d="M163.14 170C163.14 170 167.48 173.19 167.77 174.35C168.06 175.51 182.83 210.84 182.83 210.84L161.4 214L161.69 193.14" stroke="#263238" stroke-linecap="round" stroke-linejoin="round"/>
<path d="M81.7499 170.58C81.7499 170.58 76.8199 171.16 75.6599 174.92C74.4999 178.68 66.1099 216.92 66.1099 216.92L96.8099 214L93.9099 185.32" fill="#0B8FAC"/>
<path d="M81.7499 170.58C81.7499 170.58 76.8199 171.16 75.6599 174.92C74.4999 178.68 66.1099 216.92 66.1099 216.92L96.8099 214L93.9099 185.32" stroke="#263238" stroke-linecap="round" stroke-linejoin="round"/>
<path d="M141.05 151.72C141.05 151.72 148.66 156.06 149.41 166.86C150.16 177.66 149.41 180.4 149.41 180.4" stroke="#263238" stroke-width="2" stroke-linecap="round" stroke-linejoin="round"/>
<path d="M152.85 194.23C152.85 194.23 152.17 207 150.78 210.69C149.39 214.38 143.89 218.75 139.53 219.45" stroke="#263238" stroke-linecap="round" stroke-linejoin="round"/>
<path d="M143 192.85C143 192.85 142.39 207.58 142.33 210.32C142.27 213.06 145.03 217.83 148.99 222.4" stroke="#263238" stroke-linecap="round" stroke-linejoin="round"/>
<path d="M150.126 224.005L150.242 223.91C150.787 223.468 150.87 222.668 150.429 222.124L149.868 221.432C149.426 220.888 148.626 220.804 148.082 221.246L147.965 221.34C147.42 221.782 147.337 222.582 147.779 223.127L148.339 223.818C148.781 224.363 149.581 224.446 150.126 224.005Z" fill="#263238"/>
<path d="M137.964 219.917L137.992 220.064C138.123 220.753 138.787 221.206 139.476 221.076L140.351 220.91C141.04 220.779 141.493 220.115 141.362 219.426L141.334 219.278C141.204 218.589 140.539 218.136 139.85 218.267L138.975 218.433C138.286 218.563 137.834 219.228 137.964 219.917Z" fill="#263238"/>
<path d="M153 195.2L152.71 184.47C152.683 183.351 152.24 182.282 151.467 181.472C150.694 180.662 149.647 180.169 148.53 180.09C147.344 180.002 146.171 180.387 145.268 181.16C144.365 181.934 143.805 183.034 143.71 184.22L142.81 195.1" stroke="#263238" stroke-width="2" stroke-linecap="round" stroke-linejoin="round"/>
<path d="M177.91 219.82L171 218.37L146.67 214.32L112.55 207.82L104.46 204.25C104.46 204.25 96.8097 194.25 96.1497 193.25C95.4897 192.25 86.8397 195.74 87.1497 197.07C87.4597 198.4 88.4797 211.69 89.1497 212.53C89.8197 213.37 97.2897 213.36 97.2897 213.36C97.2897 213.36 132.93 230.56 134.41 231.19C154.98 239.86 164.9 239.78 168.41 240.35C171.92 240.92 174.21 239.5 176.23 237.18C178.25 234.86 177.91 219.82 177.91 219.82Z" fill="#999999" stroke="#263238" stroke-linecap="round" stroke-linejoin="round"/>
<path d="M95.1098 193.11C95.1098 193.11 90.9598 193.28 84.8098 197.43C82.5198 198.98 81.3198 200.09 81.3198 200.76C81.4509 201.557 81.6758 202.336 81.9898 203.08C85.9771 201.16 90.1528 199.659 94.4498 198.6" fill="#999999"/>
<path d="M95.1098 193.11C95.1098 193.11 90.9598 193.28 84.8098 197.43C82.5198 198.98 81.3198 200.09 81.3198 200.76C81.4509 201.557 81.6758 202.336 81.9898 203.08C85.9771 201.16 90.1528 199.659 94.4498 198.6" stroke="#263238" stroke-linecap="round" stroke-linejoin="round"/>
<path d="M96.7697 203.75C96.7697 203.75 85.4797 206.57 83.6497 206.91C81.8197 207.25 81.4897 205.41 81.4897 204.75C81.4897 204.09 81.9898 203.08 83.9798 202.09C85.9698 201.1 95.9798 198.43 95.9798 198.43" fill="#999999"/>
<path d="M96.7697 203.75C96.7697 203.75 85.4797 206.57 83.6497 206.91C81.8197 207.25 81.4897 205.41 81.4897 204.75C81.4897 204.09 81.9898 203.08 83.9798 202.09C85.9698 201.1 95.9798 198.43 95.9798 198.43" stroke="#263238" stroke-linecap="round" stroke-linejoin="round"/>
<path d="M97.9397 208.9C97.9397 208.9 84.8097 210.23 83.8097 209.4C83.5037 209.067 83.2716 208.673 83.1286 208.244C82.9856 207.815 82.9348 207.36 82.9797 206.91L94.7797 204.41" fill="#999999"/>
<path d="M97.9397 208.9C97.9397 208.9 84.8097 210.23 83.8097 209.4C83.5037 209.067 83.2716 208.673 83.1286 208.244C82.9856 207.815 82.9348 207.36 82.9797 206.91L94.7797 204.41" stroke="#263238" stroke-linecap="round" stroke-linejoin="round"/>
<path d="M94.2799 209.56L84.1499 210.06C84.1499 210.06 84.6399 211.56 85.1499 211.72C87.5498 212.313 89.9949 212.704 92.4599 212.89C94.0763 212.943 95.687 213.11 97.2799 213.39" fill="#999999"/>
<path d="M94.2799 209.56L84.1499 210.06C84.1499 210.06 84.6399 211.56 85.1499 211.72C87.5498 212.313 89.9949 212.704 92.4599 212.89C94.0763 212.943 95.687 213.11 97.2799 213.39" stroke="#263238" stroke-linecap="round" stroke-linejoin="round"/>
<path d="M72.48 216.34C72.48 216.34 77.11 236.34 78.27 237.78C79.43 239.22 88.99 237.78 98.55 234.88C108.11 231.98 148.66 214.61 148.66 214.61L154.45 215.76C154.45 215.76 152.13 208.52 148.08 208.23C144.03 207.94 96.81 214 96.81 214L72.48 216.34Z" fill="#999999" stroke="#263238" stroke-linecap="round" stroke-linejoin="round"/>
<path d="M113 136.69C113 136.69 113 137.12 113 137.85C113.09 141.66 113.46 153.76 114.43 156.68C115.59 160.15 131.23 189.41 132.43 187.09C133.63 184.77 140.83 153.2 140.83 153.2V140.75C140.83 140.75 137.06 143.93 130.11 143.93C123.16 143.93 113 136.69 113 136.69Z" fill="#999999" stroke="#263238" stroke-linecap="round" stroke-linejoin="round"/>
<path d="M136.2 153.85C137.822 152.86 139.372 151.757 140.84 150.55V140.75C140.84 140.75 137.07 143.93 130.12 143.93C123.17 143.93 113 136.69 113 136.69C113 136.69 113 137.12 113 137.85C113 139.19 113.1 141.56 113.22 144.2C113.494 144.64 113.802 145.058 114.14 145.45C116.14 147.76 125.72 153.56 128.04 154.14C130.36 154.72 133.59 155.29 136.2 153.85Z" fill="#263238" stroke="#263238" stroke-linecap="round" stroke-linejoin="round"/>
<path d="M147.79 119.89C147.79 119.89 152.42 117.28 152.42 122.21C152.42 127.14 148.08 132.93 148.08 132.93L147.79 119.89Z" fill="#999999" stroke="#263238" stroke-linecap="round" stroke-linejoin="round"/>
<path d="M106.37 120.18C106.37 120.18 99.9897 118.44 99.9897 124.24C99.9897 130.04 105.79 133.79 105.79 133.79H109.79C109.79 133.79 112.11 139.59 114.14 141.9C116.17 144.21 125.72 150.01 128.04 150.59C130.36 151.17 133.54 151.75 136.15 150.3C139.429 148.256 142.451 145.825 145.15 143.06C146.31 141.62 148.34 131.77 148.34 131.77C148.34 131.77 148.92 114.1 147.76 108.02C146.6 101.94 139.07 92.3801 128.64 91.2201C118.21 90.0601 108.36 98.4601 106.92 105.12C105.48 111.78 106.37 120.18 106.37 120.18Z" fill="#999999" stroke="#263238" stroke-linecap="round" stroke-linejoin="round"/>
<path d="M125.19 124.82C125.19 124.82 123.19 128.87 126.64 130.03C130.09 131.19 134.46 130.9 135.33 129.16C136.2 127.42 134.75 125.4 134.75 125.4" stroke="#263238" stroke-linecap="round" stroke-linejoin="round"/>
<path d="M121.72 132.06C121.72 132.06 128.96 138.14 138.81 132.35" stroke="#263238" stroke-linecap="round" stroke-linejoin="round"/>
<path d="M125.77 137.56C125.77 137.56 131.86 141.04 135.91 136.98" stroke="#263238" stroke-linecap="round" stroke-linejoin="round"/>
<path d="M122.3 121.34C123.101 121.34 123.75 120.301 123.75 119.02C123.75 117.739 123.101 116.7 122.3 116.7C121.499 116.7 120.85 117.739 120.85 119.02C120.85 120.301 121.499 121.34 122.3 121.34Z" fill="#263238"/>
<path d="M137.94 118.73C137.94 120.01 137.29 121.05 136.49 121.05C135.69 121.05 135.04 120.05 135.04 118.73C135.04 117.41 135.69 116.42 136.49 116.42C137.29 116.42 137.94 117.45 137.94 118.73Z" fill="#263238"/>
<path d="M118.24 115.84C118.24 115.84 119.69 113.52 125.24 114.39" stroke="#263238" stroke-linecap="round" stroke-linejoin="round"/>
<path d="M134.17 114.68C134.17 114.68 136.78 110.62 140.84 114.68" stroke="#263238" stroke-linecap="round" stroke-linejoin="round"/>
<path d="M147.79 108C147.414 106.28 146.762 104.632 145.86 103.12C145.523 104.723 145.405 106.365 145.51 108C145.93 110.12 147.42 113.08 147.42 114.56C147.42 116.04 147.2 121.97 148.26 121.13C148.365 121.019 148.45 120.89 148.51 120.75C148.576 116.488 148.335 112.227 147.79 108Z" fill="#263238" stroke="#263238" stroke-linecap="round" stroke-linejoin="round"/>
<path d="M133.23 96.0001C135.09 95.9016 136.941 95.6778 138.77 95.3301C135.815 93.1183 132.333 91.7186 128.67 91.2701C118.24 90.1101 108.39 98.5101 106.95 105.17C105.51 111.83 106.37 120.23 106.37 120.23C106.37 120.23 108.67 121.83 109.52 120.14C110.37 118.45 109.52 115.69 110.37 112.73C111.22 109.77 112.48 108.28 112.69 105.95C112.9 103.62 111.42 100.24 112.27 98.3301C113.12 96.4201 118.41 92.8301 121.8 94.1001C125.447 95.4815 129.332 96.1273 133.23 96.0001Z" fill="#263238" stroke="#263238" stroke-linecap="round" stroke-linejoin="round"/>
</svg>
