<svg width="18" height="19" viewBox="0 0 18 19" fill="none" xmlns="http://www.w3.org/2000/svg">
<path d="M10.0305 0.399152C9.752 0.142823 9.38327 0 9 0C8.61673 0 8.248 0.142823 7.9695 0.399152L0.703501 7.08424C0.481023 7.2892 0.303873 7.53621 0.182905 7.81016C0.0619366 8.0841 -0.000302358 8.37921 1.10438e-06 8.67739V16.8111C0.000398756 17.3917 0.237627 17.9485 0.659541 18.359C1.08145 18.7694 1.65352 19 2.25 19H4.5C5.09674 19 5.66903 18.7692 6.09099 18.3584C6.51295 17.9477 6.75 17.3905 6.75 16.8096V13.1589C6.75 12.9653 6.82902 12.7796 6.96967 12.6427C7.11032 12.5057 7.30109 12.4288 7.5 12.4288H10.5C10.6989 12.4288 10.8897 12.5057 11.0303 12.6427C11.171 12.7796 11.25 12.9653 11.25 13.1589V16.8096C11.25 17.3905 11.4871 17.9477 11.909 18.3584C12.331 18.7692 12.9033 19 13.5 19H15.75C16.3467 19 16.919 18.7692 17.341 18.3584C17.7629 17.9477 18 17.3905 18 16.8096V8.67593C17.9999 8.37789 17.9373 8.083 17.8161 7.80931C17.6949 7.53562 17.5176 7.2889 17.295 7.08424L10.0305 0.396232V0.399152Z" fill="#4F4F4F"/>
</svg>
