<svg width="18" height="18" viewBox="0 0 18 18" fill="none" xmlns="http://www.w3.org/2000/svg">
<path opacity="0.16" d="M13.9372 8.20872C13.9372 9.71161 13.3401 11.153 12.2774 12.2157C11.2147 13.2784 9.77338 13.8754 8.27049 13.8754C6.76759 13.8754 5.32626 13.2784 4.26355 12.2157C3.20084 11.153 2.60382 9.71161 2.60382 8.20872C2.60382 6.70583 3.20084 5.26449 4.26355 4.20178C5.32626 3.13908 6.76759 2.54205 8.27049 2.54205C9.77338 2.54205 11.2147 3.13908 12.2774 4.20178C13.3401 5.26449 13.9372 6.70583 13.9372 8.20872Z" fill="#787878"/>
<path d="M15.3538 15.292L12.2775 12.2157M12.2775 12.2157C12.8037 11.6895 13.2211 11.0648 13.5059 10.3773C13.7907 9.68973 13.9372 8.95284 13.9372 8.20866C13.9372 7.46448 13.7907 6.72759 13.5059 6.04006C13.2211 5.35254 12.8037 4.72783 12.2775 4.20162C11.7513 3.67541 11.1266 3.25799 10.439 2.97321C9.75149 2.68842 9.0146 2.54185 8.27043 2.54185C7.52625 2.54185 6.78936 2.68842 6.10183 2.97321C5.4143 3.25799 4.7896 3.67541 4.26339 4.20162C3.20065 5.26435 2.60361 6.70573 2.60361 8.20866C2.60361 9.71159 3.20065 11.153 4.26339 12.2157C5.32612 13.2784 6.7675 13.8755 8.27043 13.8755C9.77336 13.8755 11.2147 13.2784 12.2775 12.2157Z" stroke="#787878" stroke-width="2" stroke-linecap="round" stroke-linejoin="round"/>
</svg>
