<svg width="21" height="20" viewBox="0 0 21 20" fill="none" xmlns="http://www.w3.org/2000/svg">
<path fill-rule="evenodd" clip-rule="evenodd" d="M0.715576 1.31539C0.715576 1.13779 0.786128 0.967468 0.91171 0.841886C1.03729 0.716304 1.20762 0.645752 1.38522 0.645752H3.39415C3.54352 0.645793 3.68859 0.695775 3.80629 0.787749C3.92399 0.879724 4.00755 1.00841 4.0437 1.15334L4.58611 3.32432H20.1352C20.2369 3.32435 20.3373 3.34755 20.4287 3.39216C20.5201 3.43677 20.6002 3.50162 20.6628 3.58179C20.7254 3.66195 20.7689 3.75533 20.7901 3.85482C20.8112 3.95432 20.8094 4.05733 20.7848 4.15602L18.7758 12.1917C18.7397 12.3367 18.6561 12.4654 18.5384 12.5573C18.4207 12.6493 18.2757 12.6993 18.1263 12.6993H6.07272C5.92335 12.6993 5.77828 12.6493 5.66058 12.5573C5.54288 12.4654 5.45931 12.3367 5.42317 12.1917L2.87183 1.98504H1.38522C1.20762 1.98504 1.03729 1.91449 0.91171 1.7889C0.786128 1.66332 0.715576 1.493 0.715576 1.31539ZM4.92093 4.66361L6.59504 11.36H17.604L19.2781 4.66361H4.92093ZM7.412 15.3779C7.0568 15.3779 6.71615 15.519 6.46499 15.7702C6.21382 16.0213 6.07272 16.362 6.07272 16.7172C6.07272 17.0724 6.21382 17.413 6.46499 17.6642C6.71615 17.9154 7.0568 18.0565 7.412 18.0565C7.76721 18.0565 8.10786 17.9154 8.35902 17.6642C8.61019 17.413 8.75129 17.0724 8.75129 16.7172C8.75129 16.362 8.61019 16.0213 8.35902 15.7702C8.10786 15.519 7.76721 15.3779 7.412 15.3779ZM4.73343 16.7172C4.73343 16.0068 5.01564 15.3255 5.51797 14.8231C6.0203 14.3208 6.7016 14.0386 7.412 14.0386C8.12241 14.0386 8.80371 14.3208 9.30604 14.8231C9.80837 15.3255 10.0906 16.0068 10.0906 16.7172C10.0906 17.4276 9.80837 18.1089 9.30604 18.6112C8.80371 19.1135 8.12241 19.3958 7.412 19.3958C6.7016 19.3958 6.0203 19.1135 5.51797 18.6112C5.01564 18.1089 4.73343 17.4276 4.73343 16.7172ZM16.787 15.3779C16.4318 15.3779 16.0912 15.519 15.84 15.7702C15.5888 16.0213 15.4477 16.362 15.4477 16.7172C15.4477 17.0724 15.5888 17.413 15.84 17.6642C16.0912 17.9154 16.4318 18.0565 16.787 18.0565C17.1422 18.0565 17.4829 17.9154 17.734 17.6642C17.9852 17.413 18.1263 17.0724 18.1263 16.7172C18.1263 16.362 17.9852 16.0213 17.734 15.7702C17.4829 15.519 17.1422 15.3779 16.787 15.3779ZM14.1084 16.7172C14.1084 16.0068 14.3906 15.3255 14.893 14.8231C15.3953 14.3208 16.0766 14.0386 16.787 14.0386C17.4974 14.0386 18.1787 14.3208 18.681 14.8231C19.1834 15.3255 19.4656 16.0068 19.4656 16.7172C19.4656 17.4276 19.1834 18.1089 18.681 18.6112C18.1787 19.1135 17.4974 19.3958 16.787 19.3958C16.0766 19.3958 15.3953 19.1135 14.893 18.6112C14.3906 18.1089 14.1084 17.4276 14.1084 16.7172Z" fill="black"/>
</svg>
