<svg width="26" height="25" viewBox="0 0 26 25" fill="none" xmlns="http://www.w3.org/2000/svg">
<path fill-rule="evenodd" clip-rule="evenodd" d="M6.84377 13.5416C11.0823 13.5416 11.2709 14.9791 11.2709 17.9687C11.2709 19.4666 11.2709 20.5322 10.6417 21.3124C9.91773 22.2114 8.60002 22.3958 6.84377 22.3958C5.08752 22.3958 3.76981 22.2114 3.04585 21.3124C2.41669 20.5322 2.41669 19.4676 2.41669 17.9947L3.19794 17.9687H2.41669C2.41669 14.9791 2.60523 13.5416 6.84377 13.5416ZM18.3021 13.5416C22.5406 13.5416 22.7292 14.9791 22.7292 17.9687C22.7292 19.4666 22.7292 20.5322 22.1 21.3124C21.3761 22.2114 20.0584 22.3958 18.3021 22.3958C16.5459 22.3958 15.2281 22.2114 14.5042 21.3124C13.875 20.5322 13.875 19.4676 13.875 17.9947L14.6563 17.9687H13.875C13.875 14.9791 14.0636 13.5416 18.3021 13.5416ZM7.05852 15.1045L6.84377 15.1041C4.12609 15.1041 3.98672 15.2991 3.97957 17.5802L3.98001 18.4689C3.98495 19.3761 4.01951 20.0315 4.26148 20.3333C4.53752 20.6749 5.35731 20.8333 6.84377 20.8333C8.33023 20.8333 9.15002 20.6739 9.42606 20.3322C9.70835 19.9812 9.70835 19.1478 9.70835 17.9937C9.70835 15.3893 9.70835 15.1168 7.05852 15.1045ZM18.5169 15.1045L18.3021 15.1041C15.5844 15.1041 15.4451 15.2991 15.4379 17.5802L15.4383 18.4689C15.4433 19.3761 15.4778 20.0315 15.7198 20.3333C15.9959 20.6749 16.8156 20.8333 18.3021 20.8333C19.7886 20.8333 20.6084 20.6739 20.8844 20.3322C21.1667 19.9812 21.1667 19.1478 21.1667 17.9937C21.1667 15.3893 21.1667 15.1168 18.5169 15.1045ZM6.84377 2.08325C11.0823 2.08325 11.2709 3.52075 11.2709 6.51033C11.2709 8.00825 11.2709 9.07388 10.6417 9.85408C9.91773 10.753 8.60002 10.9374 6.84377 10.9374C5.08752 10.9374 3.76981 10.753 3.04585 9.85408C2.41669 9.07388 2.41669 8.00929 2.41669 6.53638L3.19794 6.51033H2.41669C2.41669 3.52075 2.60523 2.08325 6.84377 2.08325ZM18.3021 2.08325C22.5406 2.08325 22.7292 3.52075 22.7292 6.51033C22.7292 8.00825 22.7292 9.07388 22.1 9.85408C21.3761 10.753 20.0584 10.9374 18.3021 10.9374C16.5459 10.9374 15.2281 10.753 14.5042 9.85408C13.875 9.07388 13.875 8.00929 13.875 6.53638L14.6563 6.51033H13.875C13.875 3.52075 14.0636 2.08325 18.3021 2.08325ZM7.05852 3.64622L6.84377 3.64575C4.12609 3.64575 3.98672 3.84077 3.97957 6.12185L3.98001 7.01052C3.98495 7.91778 4.01951 8.57313 4.26148 8.87492C4.53752 9.21659 5.35731 9.37492 6.84377 9.37492C8.33023 9.37492 9.15002 9.21554 9.42606 8.87388C9.70835 8.52284 9.70835 7.6895 9.70835 6.53534C9.70835 3.93096 9.70835 3.65848 7.05852 3.64622ZM18.5169 3.64622L18.3021 3.64575C15.5844 3.64575 15.4451 3.84077 15.4379 6.12185L15.4383 7.01052C15.4433 7.91778 15.4778 8.57313 15.7198 8.87492C15.9959 9.21659 16.8156 9.37492 18.3021 9.37492C19.7886 9.37492 20.6084 9.21554 20.8844 8.87388C21.1667 8.52284 21.1667 7.6895 21.1667 6.53534C21.1667 3.93096 21.1667 3.65848 18.5169 3.64622Z" fill="black"/>
</svg>
