<svg width="24" height="24" viewBox="0 0 24 24" fill="none" xmlns="http://www.w3.org/2000/svg">
<path d="M5.42014 14.4656L4.59739 17.537L1.59026 17.6006C0.691575 15.9338 0.181824 14.0266 0.181824 12C0.181824 10.0403 0.658429 8.1922 1.50324 6.56494H1.50389L4.18108 7.05576L5.35385 9.71689C5.10839 10.4325 4.9746 11.2007 4.9746 12C4.9747 12.8675 5.13184 13.6987 5.42014 14.4656Z" fill="#FBBB00"/>
<path d="M23.6117 9.79211C23.7474 10.507 23.8182 11.2453 23.8182 11.9999C23.8182 12.846 23.7292 13.6713 23.5598 14.4675C22.9845 17.1765 21.4812 19.5421 19.3987 21.2161L19.3981 21.2155L16.026 21.0434L15.5488 18.0642C16.9306 17.2538 18.0105 15.9856 18.5793 14.4675H12.2598V9.79211H18.6715H23.6117Z" fill="#518EF8"/>
<path d="M19.3981 21.2156L19.3987 21.2162C17.3734 22.8441 14.8006 23.8181 12 23.8181C7.49936 23.8181 3.58639 21.3026 1.59027 17.6006L5.42015 14.4656C6.41818 17.1292 8.98767 19.0253 12 19.0253C13.2948 19.0253 14.5078 18.6753 15.5487 18.0643L19.3981 21.2156Z" fill="#28B446"/>
<path d="M19.5436 2.90253L15.715 6.03693C14.6377 5.36357 13.3643 4.97459 12.0001 4.97459C8.91953 4.97459 6.30199 6.95769 5.35395 9.71682L1.50394 6.56487H1.5033C3.47019 2.77267 7.43252 0.181763 12.0001 0.181763C14.8676 0.181763 17.4968 1.2032 19.5436 2.90253Z" fill="#F14336"/>
</svg>
