<svg width="25" height="25" viewBox="0 0 25 25" fill="none" xmlns="http://www.w3.org/2000/svg">
<path fill-rule="evenodd" clip-rule="evenodd" d="M14.2885 15.9285C15.5427 15.9285 16.5635 16.942 16.5635 18.1878V21.392C16.5635 21.6597 16.7781 21.8743 17.0531 21.8806H19.0385C20.6031 21.8806 21.875 20.6243 21.875 19.0806V9.99305C21.8677 9.4618 21.6146 8.9618 21.1802 8.62951L14.3125 3.15243C13.3906 2.42222 12.101 2.42222 11.176 3.15451L4.3552 8.62743C3.90416 8.97013 3.65104 9.47013 3.64583 10.0108V19.0806C3.64583 20.6243 4.9177 21.8806 6.48229 21.8806H8.48645C8.76874 21.8806 8.99791 21.6566 8.99791 21.3816C8.99791 21.3212 9.0052 21.2608 9.0177 21.2035V18.1878C9.0177 16.9493 10.0323 15.9368 11.2771 15.9285H14.2885ZM19.0385 23.4431H17.0344C15.8865 23.416 15.001 22.5149 15.001 21.392V18.1878C15.001 17.8035 14.6812 17.491 14.2885 17.491H11.2823C10.8979 17.493 10.5802 17.8066 10.5802 18.1878V21.3816C10.5802 21.4597 10.5698 21.5347 10.5479 21.6056C10.4354 22.6368 9.55416 23.4431 8.48645 23.4431H6.48229C4.05624 23.4431 2.08333 21.4858 2.08333 19.0806V10.0035C2.09374 8.96805 2.57083 8.02013 3.39479 7.39617L10.2021 1.93263C11.701 0.745134 13.7896 0.745134 15.2854 1.93055L22.1417 7.3993C22.9469 8.01284 23.424 8.95868 23.4375 9.98159V19.0806C23.4375 21.4858 21.4646 23.4431 19.0385 23.4431Z" fill="black"/>
</svg>
