<svg width="24" height="25" viewBox="0 0 24 25" fill="none" xmlns="http://www.w3.org/2000/svg">
<path fill-rule="evenodd" clip-rule="evenodd" d="M19.8399 18.6932C19.8399 21.9892 15.3199 22.3702 11.9209 22.3702L11.6776 22.3699C9.51208 22.3647 3.99988 22.228 3.99988 18.6732C3.99988 15.4444 8.33823 15.0129 11.7114 14.9967L12.1641 14.9964C14.3295 15.0016 19.8399 15.1383 19.8399 18.6932ZM11.9209 16.4962C7.65988 16.4962 5.49988 17.2282 5.49988 18.6732C5.49988 20.1312 7.65988 20.8702 11.9209 20.8702C16.1809 20.8702 18.3399 20.1382 18.3399 18.6932C18.3399 17.2352 16.1809 16.4962 11.9209 16.4962ZM11.9209 2.49976C14.8489 2.49976 17.2299 4.88176 17.2299 7.80976C17.2299 10.7378 14.8489 13.1188 11.9209 13.1188H11.8889C8.96688 13.1098 6.59988 10.7268 6.60985 7.80676C6.60985 4.88176 8.99188 2.49976 11.9209 2.49976ZM11.9209 3.92776C9.77988 3.92776 8.03786 5.66876 8.03786 7.80976C8.03088 9.94376 9.75988 11.6838 11.8919 11.6918L11.9209 12.4058V11.6918C14.0609 11.6918 15.8019 9.94976 15.8019 7.80976C15.8019 5.66876 14.0609 3.92776 11.9209 3.92776Z" fill="black"/>
</svg>
