<svg width="26" height="23" viewBox="0 0 26 23" fill="none" xmlns="http://www.w3.org/2000/svg">
<path fill-rule="evenodd" clip-rule="evenodd" d="M15.9802 1.91675C19.5136 1.91675 21.5406 3.52579 21.5406 6.32892V20.2592C21.5406 20.8438 21.2136 21.37 20.6636 21.6642C20.1156 21.9593 19.4552 21.9651 18.9011 21.6776L12.6927 18.4509L6.4271 21.6843C6.15627 21.8242 5.8594 21.8951 5.56148 21.8951C5.25419 21.8951 4.9469 21.8194 4.66773 21.668C4.11877 21.3738 3.79169 20.8477 3.79169 20.264V6.15354C3.79169 3.46062 5.81981 1.91675 9.35627 1.91675H15.9802ZM15.9802 3.35425H9.35627C6.70106 3.35425 5.35419 4.29533 5.35419 6.15354V20.264C5.35419 20.3541 5.41044 20.403 5.45731 20.4279C5.50419 20.4547 5.57815 20.4739 5.66356 20.4298L12.3115 16.999C12.549 16.8773 12.8396 16.8763 13.0781 17L19.6688 20.425C19.7552 20.471 19.8292 20.45 19.8761 20.4241C19.9229 20.3982 19.9781 20.3493 19.9781 20.2592L19.9778 6.21971C19.9699 5.3949 19.7964 3.35425 15.9802 3.35425ZM16.4373 8.36489C16.8686 8.36489 17.2186 8.68689 17.2186 9.08364C17.2186 9.48039 16.8686 9.80239 16.4373 9.80239H8.8144C8.38315 9.80239 8.03315 9.48039 8.03315 9.08364C8.03315 8.68689 8.38315 8.36489 8.8144 8.36489H16.4373Z" fill="black"/>
</svg>
